<svg width="544" height="146" viewBox="0 0 544 146" fill="none" xmlns="http://www.w3.org/2000/svg">
<path d="M39.422 145.643H38.422V146.643H39.422V145.643ZM39.422 130.613H40.422V129.699L39.5107 129.617L39.422 130.613ZM0.0100002 113.245L-0.804242 112.665L-1.29284 113.35L-0.701003 113.949L0.0100002 113.245ZM12.869 95.2095L13.5966 94.5235L12.7615 93.6377L12.0548 94.629L12.869 95.2095ZM39.422 109.571L39.2524 110.557L40.422 110.758V109.571H39.422ZM39.422 83.1855H40.422V82.3996L39.6584 82.2138L39.422 83.1855ZM28.901 80.3465L28.5623 81.2874L28.5844 81.2953L28.6069 81.3023L28.901 80.3465ZM19.382 76.1715L18.9012 77.0483L18.9178 77.0574L18.9348 77.0659L19.382 76.1715ZM11.032 70.1595L10.307 70.8482L10.3158 70.8575L10.3249 70.8666L11.032 70.1595ZM5.688 61.6425L4.76148 62.0189L4.76581 62.0292L5.688 61.6425ZM13.203 27.4075L13.8976 28.1269L13.9039 28.1207L13.203 27.4075ZM39.422 16.2185L39.5225 17.2134L40.422 17.1226V16.2185H39.422ZM39.422 0.68748V-0.31252H38.422V0.68748H39.422ZM55.287 0.68748H56.287V-0.31252H55.287V0.68748ZM55.287 16.5525H54.287V17.45L55.1793 17.5467L55.287 16.5525ZM89.188 31.4155L89.9843 32.0204L90.5361 31.294L89.8633 30.678L89.188 31.4155ZM75.995 48.7835L75.3245 49.5254L76.1325 50.2557L76.7913 49.3884L75.995 48.7835ZM55.287 37.9285L55.5295 36.9583L54.287 36.6477V37.9285H55.287ZM55.287 61.4755H54.287V62.2614L55.0507 62.4471L55.287 61.4755ZM65.808 64.4815L66.1351 63.5365L65.808 64.4815ZM75.327 68.8235L74.8462 69.7003L74.8628 69.7094L74.8798 69.7179L75.327 68.8235ZM83.844 74.8355L83.119 75.5242L83.1278 75.5335L83.1369 75.5426L83.844 74.8355ZM89.355 83.5195L88.4285 83.8959L88.4357 83.9136L88.4436 83.9311L89.355 83.5195ZM82.341 119.09L81.6277 118.39L82.341 119.09ZM55.287 130.446L55.1838 129.452L54.287 129.545V130.446H55.287ZM55.287 145.643V146.643H56.287V145.643H55.287ZM55.287 87.1935L55.5955 86.2423L54.287 85.8179V87.1935H55.287ZM55.287 109.571H54.287V110.791L55.4831 110.552L55.287 109.571ZM64.305 105.229L63.5979 104.522L64.305 105.229ZM39.422 57.3005L39.1473 58.262L40.422 58.6262V57.3005H39.422ZM39.422 36.9265H40.422V35.798L39.3017 35.9337L39.422 36.9265ZM30.738 40.6005L31.4246 41.3275L31.4257 41.3264L30.738 40.6005ZM40.422 145.643V130.613H38.422V145.643H40.422ZM39.5107 129.617C23.4553 128.188 10.5508 122.481 0.721003 112.542L-0.701003 113.949C9.5092 124.272 22.8793 130.144 39.3333 131.61L39.5107 129.617ZM0.824243 113.826L13.6832 95.79L12.0548 94.629L-0.804242 112.665L0.824243 113.826ZM12.1414 95.8955C19.6349 103.843 28.6805 108.738 39.2524 110.557L39.5916 108.586C29.4556 106.842 20.7991 102.162 13.5966 94.5235L12.1414 95.8955ZM40.422 109.571V83.1855H38.422V109.571H40.422ZM39.6584 82.2138C35.5514 81.2148 32.0648 80.2737 29.1951 79.3907L28.6069 81.3023C31.5265 82.2006 35.0539 83.1521 39.1856 84.1571L39.6584 82.2138ZM29.2397 79.4056C26.5036 78.4206 23.3679 77.0464 19.8292 75.2771L18.9348 77.0659C22.5215 78.8593 25.7317 80.2684 28.5623 81.2874L29.2397 79.4056ZM19.8628 75.2947C16.47 73.4341 13.7702 71.4834 11.7391 69.4524L10.3249 70.8666C12.5245 73.0662 15.3913 75.1235 18.9012 77.0483L19.8628 75.2947ZM11.757 69.4707C9.74119 67.3488 8.02058 64.619 6.6102 61.2558L4.76581 62.0292C6.25009 65.5686 8.09214 68.5168 10.307 70.8482L11.757 69.4707ZM6.61447 61.2661C5.22157 57.8374 4.517 54.015 4.517 49.7855H2.517C2.517 54.2399 3.25976 58.3222 4.76153 62.0189L6.61447 61.2661ZM4.517 49.7855C4.517 41.3829 7.62806 34.1802 13.8976 28.1269L12.5084 26.6881C5.86327 33.1041 2.517 40.8201 2.517 49.7855H4.517ZM13.9039 28.1207C20.1652 21.9674 28.6747 18.3092 39.5225 17.2134L39.3215 15.2235C28.1253 16.3545 19.1555 20.1555 12.5021 26.6942L13.9039 28.1207ZM40.422 16.2185V0.68748H38.422V16.2185H40.422ZM39.422 1.68748H55.287V-0.31252H39.422V1.68748ZM54.287 0.68748V16.5525H56.287V0.68748H54.287ZM55.1793 17.5467C68.3439 18.9728 79.4407 23.8462 88.5127 32.153L89.8633 30.678C80.4539 22.0621 68.9501 17.0268 55.3947 15.5583L55.1793 17.5467ZM88.3917 30.8106L75.1987 48.1786L76.7913 49.3884L89.9843 32.0204L88.3917 30.8106ZM76.6655 48.0416C70.7473 42.6924 63.6951 38.9997 55.5295 36.9583L55.0445 38.8986C62.9109 40.8652 69.6641 44.4092 75.3245 49.5254L76.6655 48.0416ZM54.287 37.9285V61.4755H56.287V37.9285H54.287ZM55.0507 62.4471C59.15 63.4443 62.6249 64.4379 65.4809 65.4265L66.1351 63.5365C63.2018 62.5211 59.6627 61.5107 55.5234 60.5038L55.0507 62.4471ZM65.4809 65.4265C68.31 66.4058 71.431 67.8274 74.8462 69.7003L75.8078 67.9467C72.3204 66.0342 69.0953 64.5612 66.1351 63.5365L65.4809 65.4265ZM74.8798 69.7179C78.3679 71.4619 81.1034 73.4025 83.119 75.5242L84.569 74.1467C82.3539 71.8151 79.4115 69.7477 75.7742 67.9291L74.8798 69.7179ZM83.1369 75.5426C85.2507 77.6563 87.0207 80.4303 88.4285 83.8959L90.2815 83.1431C88.7947 79.4833 86.8907 76.4679 84.5511 74.1284L83.1369 75.5426ZM88.4436 83.9311C89.9359 87.2354 90.693 90.9887 90.693 95.2095H92.693C92.693 90.7463 91.8914 86.7062 90.2664 83.1079L88.4436 83.9311ZM90.693 95.2095C90.693 104.544 87.6637 112.246 81.6277 118.39L83.0543 119.791C89.4876 113.243 92.693 105.024 92.693 95.2095H90.693ZM81.6277 118.39C75.6034 124.522 66.8314 128.243 55.1838 129.452L55.3902 131.441C67.3453 130.201 76.6093 126.351 83.0543 119.791L81.6277 118.39ZM54.287 130.446V145.643H56.287V130.446H54.287ZM55.287 144.643H39.422V146.643H55.287V144.643ZM68.645 97.8815C68.645 95.3006 67.4356 93.0383 65.2097 91.1131C63.0069 89.2081 59.7755 87.5979 55.5955 86.2423L54.9785 88.1447C59.0372 89.461 61.9847 90.9682 63.9014 92.6258C65.7947 94.2634 66.645 96.009 66.645 97.8815H68.645ZM54.287 87.1935V109.571H56.287V87.1935H54.287ZM55.4831 110.552C59.511 109.746 62.7181 108.231 65.0121 105.937L63.5979 104.522C61.6612 106.459 58.8563 107.838 55.0909 108.591L55.4831 110.552ZM65.0121 105.937C67.3903 103.558 68.645 100.866 68.645 97.8815H66.645C66.645 100.241 65.6731 102.447 63.5979 104.522L65.0121 105.937ZM26.732 47.7815C26.732 50.2079 27.898 52.2958 30.0231 54.0262C32.1213 55.7347 35.1907 57.1315 39.1473 58.262L39.6967 56.339C35.86 55.2427 33.0844 53.9397 31.2859 52.4753C29.5143 51.0327 28.732 49.4744 28.732 47.7815H26.732ZM40.422 57.3005V36.9265H38.422V57.3005H40.422ZM39.3017 35.9337C35.4728 36.3979 32.3589 37.6874 30.0503 39.8745L31.4257 41.3264C33.3478 39.5055 36.0232 38.3458 39.5423 37.9192L39.3017 35.9337ZM30.0514 39.8735C27.8364 41.9654 26.732 44.6272 26.732 47.7815H28.732C28.732 45.1465 29.6316 43.0209 31.4246 41.3275L30.0514 39.8735ZM189.264 128.943V129.943H190.264V128.943H189.264ZM105.43 128.943H104.43V129.943H105.43V128.943ZM105.43 110.406L104.834 109.604L104.43 109.904V110.406H105.43ZM152.691 72.6645L153.388 73.3819L153.388 73.3818L152.691 72.6645ZM159.037 40.7675L159.621 39.9555L159.037 40.7675ZM116.452 49.7855L115.695 50.4383L116.412 51.2706L117.173 50.4784L116.452 49.7855ZM102.925 34.0875L102.171 33.431L101.602 34.0842L102.168 34.7403L102.925 34.0875ZM122.13 20.5605L122.499 21.4899L122.506 21.4871L122.13 20.5605ZM176.238 25.5705L175.611 26.3493L175.616 26.3534L176.238 25.5705ZM177.574 78.3425L176.802 77.7071L176.801 77.7082L177.574 78.3425ZM143.84 108.068L143.253 107.259L140.756 109.068H143.84V108.068ZM189.264 108.068H190.264V107.068H189.264V108.068ZM189.264 127.943H105.43V129.943H189.264V127.943ZM106.43 128.943V110.406H104.43V128.943H106.43ZM106.026 111.209C129.846 93.5115 145.651 80.8939 153.388 73.3819L151.994 71.9471C144.367 79.3537 128.665 91.8975 104.834 109.604L106.026 111.209ZM153.388 73.3818C161.254 65.7402 165.381 58.4259 165.381 51.4555H163.381C163.381 57.6223 159.715 64.4475 151.994 71.9472L153.388 73.3818ZM165.381 51.4555C165.381 46.5843 163.457 42.7128 159.621 39.9555L158.453 41.5795C161.742 43.9435 163.381 47.1974 163.381 51.4555H165.381ZM159.621 39.9555C155.868 37.2585 151.428 35.9265 146.345 35.9265V37.9265C151.06 37.9265 155.08 39.1552 158.453 41.5795L159.621 39.9555ZM146.345 35.9265C134.378 35.9265 124.155 40.3275 115.731 49.0926L117.173 50.4784C125.227 42.0981 134.932 37.9265 146.345 37.9265V35.9265ZM117.21 49.1327L103.683 33.4347L102.168 34.7403L115.695 50.4383L117.21 49.1327ZM103.679 34.744C108.805 28.8551 115.073 24.4383 122.499 21.4899L121.761 19.6311C114.045 22.6946 107.511 27.2958 102.171 33.431L103.679 34.744ZM122.506 21.4871C130.071 18.4172 137.848 16.8845 145.844 16.8845V14.8845C137.585 14.8845 129.553 16.4691 121.754 19.6339L122.506 21.4871ZM145.844 16.8845C157.908 16.8845 167.805 20.061 175.611 26.3492L176.865 24.7917C168.639 18.1653 158.274 14.8845 145.844 14.8845V16.8845ZM175.616 26.3534C183.494 32.6124 187.429 40.9468 187.429 51.4555H189.429C189.429 40.3655 185.237 31.4433 176.86 24.7875L175.616 26.3534ZM187.429 51.4555C187.429 60.3002 183.929 69.0452 176.802 77.7071L178.346 78.9778C185.693 70.0491 189.429 60.8694 189.429 51.4555H187.429ZM176.801 77.7082C169.755 86.296 158.589 96.1463 143.253 107.259L144.427 108.878C159.82 97.724 171.143 87.757 178.347 78.9768L176.801 77.7082ZM143.84 109.068H189.264V107.068H143.84V109.068ZM188.264 108.068V128.943H190.264V108.068H188.264ZM208.905 119.257L208.039 118.757L207.633 119.46L208.237 120.002L208.905 119.257ZM219.426 101.054L220.113 100.328L219.193 99.4584L218.56 100.554L219.426 101.054ZM262.011 100.553L261.231 99.9271L261.23 99.9288L262.011 100.553ZM269.526 75.8375H270.526V72.7449L268.715 75.252L269.526 75.8375ZM257.335 86.0245L257.804 86.9074L257.335 86.0245ZM213.748 80.6805L213.088 81.4316L213.094 81.4369L213.1 81.4421L213.748 80.6805ZM214.583 26.5725L213.913 25.8302L213.908 25.8349L214.583 26.5725ZM272.699 23.7335L272.111 24.5422L272.116 24.5464L272.699 23.7335ZM288.564 44.4415L287.625 44.7872L287.628 44.7947L287.631 44.8021L288.564 44.4415ZM279.546 114.915L278.793 114.258L278.789 114.262L279.546 114.915ZM269.359 59.4715L270.131 60.1068L270.391 59.7905L270.355 59.3825L269.359 59.4715ZM263.013 43.4395L263.784 42.8031L263.013 43.4395ZM232.285 41.7695L232.969 42.499L232.285 41.7695ZM232.953 65.6505L232.367 66.4612L232.375 66.4666L232.382 66.4718L232.953 65.6505ZM241.637 129.78C228.595 129.78 217.934 126.006 209.572 118.513L208.237 120.002C217.021 127.873 228.182 131.78 241.637 131.78V129.78ZM209.771 119.758L220.292 101.555L218.56 100.554L208.039 118.757L209.771 119.758ZM218.739 101.781C225.054 107.752 232.706 110.738 241.637 110.738V108.738C233.2 108.738 226.044 105.936 220.113 100.328L218.739 101.781ZM241.637 110.738C250.587 110.738 257.681 107.566 262.792 101.178L261.23 99.9288C256.543 105.787 250.054 108.738 241.637 108.738V110.738ZM262.79 101.18C267.954 94.7544 270.526 87.1254 270.526 78.3425H268.526C268.526 86.7049 266.088 93.8832 261.231 99.9271L262.79 101.18ZM270.526 78.3425V75.8375H268.526V78.3425H270.526ZM268.715 75.252C265.926 79.1139 261.989 82.4159 256.865 85.1416L257.804 86.9074C263.146 84.0664 267.336 80.5771 270.336 76.423L268.715 75.252ZM256.865 85.1416C251.774 87.8499 246.423 89.1995 240.802 89.1995V91.1995C246.759 91.1995 252.431 89.7657 257.804 86.9074L256.865 85.1416ZM240.802 89.1995C230.442 89.1995 221.659 86.0982 214.396 79.9188L213.1 81.4421C220.755 87.9548 230.008 91.1995 240.802 91.1995V89.1995ZM214.408 79.9293C207.312 73.6932 203.726 65.08 203.726 53.9605H201.726C201.726 65.553 205.488 74.7531 213.088 81.4316L214.408 79.9293ZM203.726 53.9605C203.726 43.2099 207.567 34.3513 215.258 27.3101L213.908 25.8349C205.789 33.267 201.726 42.667 201.726 53.9605H203.726ZM215.253 27.3147C223.055 20.2709 233.101 16.7175 245.478 16.7175V14.7175C232.693 14.7175 222.142 18.4007 213.913 25.8302L215.253 27.3147ZM245.478 16.7175C256.107 16.7175 264.964 19.3446 272.111 24.5422L273.287 22.9247C265.738 17.4343 256.448 14.7175 245.478 14.7175V16.7175ZM272.116 24.5464C279.416 29.776 284.579 36.5172 287.625 44.7872L289.502 44.0958C286.314 35.4431 280.9 28.379 273.281 22.9206L272.116 24.5464ZM287.631 44.8021C290.807 53.015 292.407 62.519 292.407 73.3325H294.407C294.407 62.3247 292.778 52.568 289.497 44.0808L287.631 44.8021ZM292.407 73.3325C292.407 90.2916 287.841 103.901 278.793 114.258L280.299 115.573C289.732 104.777 294.407 90.664 294.407 73.3325H292.407ZM278.789 114.262C269.88 124.583 257.54 129.78 241.637 129.78V131.78C258.021 131.78 270.953 126.401 280.303 115.569L278.789 114.262ZM247.482 70.8255C256.689 70.8255 264.264 67.2394 270.131 60.1068L268.587 58.8362C263.098 65.5089 256.088 68.8255 247.482 68.8255V70.8255ZM270.355 59.3825C269.782 52.9647 267.598 47.4253 263.784 42.8031L262.241 44.0759C265.776 48.3604 267.822 53.509 268.363 59.5604L270.355 59.3825ZM263.784 42.8031C259.873 38.0627 254.1 35.7595 246.647 35.7595V37.7595C253.667 37.7595 258.804 39.9096 262.241 44.0759L263.784 42.8031ZM246.647 35.7595C240.442 35.7595 235.389 37.4881 231.601 41.0399L232.969 42.499C236.305 39.3708 240.827 37.7595 246.647 37.7595V35.7595ZM231.601 41.0399C227.871 44.5371 225.941 48.5749 225.941 53.1255H227.941C227.941 49.2147 229.574 45.6819 232.969 42.499L231.601 41.0399ZM225.941 53.1255C225.941 58.8633 228.069 63.357 232.367 66.4612L233.538 64.8398C229.82 62.1546 227.941 58.2983 227.941 53.1255H225.941ZM232.382 66.4718C236.584 69.3896 241.634 70.8255 247.482 70.8255V68.8255C241.973 68.8255 237.338 67.478 233.523 64.8291L232.382 66.4718ZM326.625 126.772L325.918 126.065L326.625 126.772ZM307.587 126.772L306.88 127.48L307.587 126.772ZM307.587 107.734L308.295 108.442L307.587 107.734ZM326.625 107.734L325.918 108.442L326.625 107.734ZM325.918 126.065C323.428 128.556 320.507 129.78 317.106 129.78V131.78C321.054 131.78 324.479 130.333 327.333 127.48L325.918 126.065ZM317.106 129.78C313.706 129.78 310.785 128.556 308.295 126.065L306.88 127.48C309.734 130.333 313.159 131.78 317.106 131.78V129.78ZM308.295 126.065C305.804 123.575 304.579 120.654 304.579 117.253H302.579C302.579 121.201 304.027 124.626 306.88 127.48L308.295 126.065ZM304.579 117.253C304.579 113.853 305.804 110.932 308.295 108.442L306.88 107.027C304.027 109.881 302.579 113.306 302.579 117.253H304.579ZM308.295 108.442C310.785 105.951 313.706 104.726 317.106 104.726V102.726C313.159 102.726 309.734 104.174 306.88 107.027L308.295 108.442ZM317.106 104.726C320.507 104.726 323.428 105.951 325.918 108.442L327.333 107.027C324.479 104.174 321.054 102.726 317.106 102.726V104.726ZM325.918 108.442C328.409 110.932 329.633 113.853 329.633 117.253H331.633C331.633 113.306 330.186 109.881 327.333 107.027L325.918 108.442ZM329.633 117.253C329.633 120.654 328.409 123.575 325.918 126.065L327.333 127.48C330.186 124.626 331.633 121.201 331.633 117.253H329.633ZM357.163 122.931L356.634 123.78L356.639 123.783L357.163 122.931ZM350.984 82.8515L351.731 83.5159L351.739 83.5077L350.984 82.8515ZM368.185 71.4955L368.515 72.4396L371.221 71.4945L368.514 70.5512L368.185 71.4955ZM358.833 23.3995L359.334 24.2649L359.338 24.2628L358.833 23.3995ZM409.434 18.7235L409.143 19.6804L409.434 18.7235ZM425.299 28.5765L424.566 29.2569L424.575 29.266L424.583 29.2748L425.299 28.5765ZM409.768 71.4955L409.435 70.5526L406.751 71.5011L409.438 72.4396L409.768 71.4955ZM426.969 82.8515L426.214 83.5077L426.222 83.5164L426.23 83.525L426.969 82.8515ZM420.79 122.931L421.314 123.783L421.322 123.778L420.79 122.931ZM389.06 62.1435L388.915 63.1329L389.06 63.1541L389.205 63.1329L389.06 62.1435ZM401.752 57.8015L401.266 56.9273L401.256 56.9332L401.752 57.8015ZM402.587 39.7655L402.026 40.5934L402.035 40.5997L402.045 40.6058L402.587 39.7655ZM375.366 39.7655L375.908 40.6058L375.915 40.6015L375.366 39.7655ZM376.201 57.8015L376.687 56.9273L376.201 57.8015ZM403.756 106.899L404.277 107.753L404.286 107.748L404.294 107.742L403.756 106.899ZM402.921 87.0265L402.422 87.8934L402.432 87.8986L402.921 87.0265ZM389.06 82.1835L389.198 81.1931L389.06 81.1738L388.922 81.1931L389.06 82.1835ZM375.032 87.0265L374.543 86.1543L374.534 86.1596L375.032 87.0265ZM374.197 106.899L373.648 107.735L373.662 107.744L373.676 107.753L374.197 106.899ZM389.06 129.947C376.621 129.947 366.18 127.306 357.687 122.08L356.639 123.783C365.514 129.245 376.337 131.947 389.06 131.947V129.947ZM357.692 122.083C349.405 116.917 345.304 109.608 345.304 100.052H343.304C343.304 110.314 347.775 118.258 356.634 123.78L357.692 122.083ZM345.304 100.052C345.304 93.8501 347.434 88.3504 351.731 83.5158L350.237 82.1871C345.627 87.3725 343.304 93.3402 343.304 100.052H345.304ZM351.739 83.5077C356.067 78.5298 361.649 74.8371 368.515 72.4396L367.855 70.5514C360.693 73.0525 354.808 76.9305 350.229 82.1953L351.739 83.5077ZM368.514 70.5512C361.277 68.029 355.941 64.6471 352.417 60.4562C348.908 56.2819 347.141 51.2409 347.141 45.2765H345.141C345.141 51.6701 347.048 57.1779 350.887 61.7433C354.711 66.292 360.397 69.8406 367.856 72.4398L368.514 70.5512ZM347.141 45.2765C347.141 35.9515 351.178 28.9869 359.334 24.2649L358.332 22.534C349.565 27.6094 345.141 35.2295 345.141 45.2765H347.141ZM359.338 24.2628C367.733 19.3562 377.629 16.8845 389.06 16.8845V14.8845C377.334 14.8845 367.078 17.4227 358.328 22.5361L359.338 24.2628ZM389.06 16.8845C396.322 16.8845 403.014 17.8197 409.143 19.6804L409.724 17.7666C403.384 15.842 396.494 14.8845 389.06 14.8845V16.8845ZM409.143 19.6804C415.213 21.5228 420.347 24.7134 424.566 29.2569L426.032 27.896C421.567 23.0875 416.125 19.7095 409.724 17.7666L409.143 19.6804ZM424.583 29.2748C428.848 33.6465 430.979 38.96 430.979 45.2765H432.979C432.979 38.4556 430.656 32.6358 426.015 27.8782L424.583 29.2748ZM430.979 45.2765C430.979 51.1808 429.201 56.1937 425.663 60.3699C422.111 64.5634 416.731 67.9743 409.435 70.5526L410.101 72.4383C417.612 69.784 423.338 66.2087 427.189 61.6626C431.055 57.0991 432.979 51.6188 432.979 45.2765H430.979ZM409.438 72.4396C416.304 74.8371 421.886 78.5298 426.214 83.5077L427.724 82.1953C423.145 76.9305 417.26 73.0525 410.098 70.5514L409.438 72.4396ZM426.23 83.525C430.636 88.3608 432.816 93.8575 432.816 100.052H434.816C434.816 93.3328 432.432 87.3621 427.708 82.178L426.23 83.525ZM432.816 100.052C432.816 109.487 428.667 116.802 420.258 122.085L421.322 123.778C430.281 118.15 434.816 110.213 434.816 100.052H432.816ZM420.266 122.08C411.771 127.307 401.386 129.947 389.06 129.947V131.947C401.673 131.947 412.441 129.244 421.314 123.783L420.266 122.08ZM389.205 63.1329C393.89 62.4474 398.24 60.9601 402.248 58.6697L401.256 56.9332C397.471 59.0962 393.36 60.5036 388.915 61.154L389.205 63.1329ZM402.238 58.6756C406.471 56.3239 408.764 53.0823 408.764 48.9505H406.764C406.764 52.1666 405.049 54.8257 401.266 56.9273L402.238 58.6756ZM408.764 48.9505C408.764 44.6926 406.847 41.324 403.129 38.9252L402.045 40.6058C405.229 42.6602 406.764 45.415 406.764 48.9505H408.764ZM403.148 38.9376C399.484 36.4555 394.761 35.2585 389.06 35.2585V37.2585C394.492 37.2585 398.788 38.3995 402.026 40.5934L403.148 38.9376ZM389.06 35.2585C383.357 35.2585 378.586 36.4562 374.817 38.9294L375.915 40.6015C379.271 38.3988 383.629 37.2585 389.06 37.2585V35.2585ZM374.824 38.9252C371.106 41.324 369.189 44.6926 369.189 48.9505H371.189C371.189 45.415 372.724 42.6602 375.908 40.6058L374.824 38.9252ZM369.189 48.9505C369.189 53.0823 371.482 56.3239 375.715 58.6756L376.687 56.9273C372.904 54.8257 371.189 52.1666 371.189 48.9505H369.189ZM375.715 58.6756C379.83 60.9614 384.232 62.4475 388.915 63.1329L389.205 61.154C384.759 60.5034 380.588 59.0949 376.687 56.9273L375.715 58.6756ZM389.06 111.573C394.991 111.573 400.08 110.318 404.277 107.753L403.235 106.046C399.416 108.38 394.708 109.573 389.06 109.573V111.573ZM404.294 107.742C408.528 105.038 410.768 101.464 410.768 97.0465H408.768C408.768 100.645 407 103.64 403.218 106.057L404.294 107.742ZM410.768 97.0465C410.768 92.4643 408.191 88.8362 403.41 86.1543L402.432 87.8986C406.78 90.3381 408.768 93.39 408.768 97.0465H410.768ZM403.419 86.1596C398.862 83.5391 394.12 81.8799 389.198 81.1931L388.922 83.1739C393.574 83.8231 398.073 85.3925 402.423 87.8934L403.419 86.1596ZM388.922 81.1931C384.001 81.8797 379.207 83.5378 374.543 86.1543L375.521 87.8986C379.986 85.3938 384.544 83.8233 389.198 83.1739L388.922 81.1931ZM374.534 86.1596C369.859 88.8472 367.352 92.4768 367.352 97.0465H369.352C369.352 93.3775 371.298 90.3271 375.53 87.8934L374.534 86.1596ZM367.352 97.0465C367.352 101.451 369.523 105.025 373.648 107.735L374.746 106.064C371.077 103.653 369.352 100.658 369.352 97.0465H367.352ZM373.676 107.753C377.876 110.32 383.022 111.573 389.06 111.573V109.573C383.297 109.573 378.534 108.378 374.718 106.046L373.676 107.753ZM450.757 128.943H449.757V129.943H450.757V128.943ZM450.757 17.5545V16.5545H449.757V17.5545H450.757ZM532.921 25.9045L532.214 26.6116L532.221 26.6187L532.229 26.6256L532.921 25.9045ZM535.927 62.9785L535.148 62.3515L535.927 62.9785ZM522.233 71.4955L522.033 70.5157L522.087 72.4847L522.233 71.4955ZM537.43 80.6805L536.645 81.299L537.43 80.6805ZM513.549 41.4355L512.842 42.1426L512.859 42.1594L512.877 42.1754L513.549 41.4355ZM474.471 37.9285V36.9285H473.471V37.9285H474.471ZM474.471 62.1435H473.471V63.1435H474.471V62.1435ZM515.553 105.062L516.21 105.817L516.219 105.809L516.228 105.801L515.553 105.062ZM515.553 86.3585L514.846 87.0656L514.854 87.0734L514.862 87.0811L515.553 86.3585ZM474.471 82.5175V81.5175H473.471V82.5175H474.471ZM474.471 108.402H473.471V109.402H474.471V108.402ZM511.211 127.943H450.757V129.943H511.211V127.943ZM451.757 128.943V17.5545H449.757V128.943H451.757ZM450.757 18.5545H509.374V16.5545H450.757V18.5545ZM509.374 18.5545C519.32 18.5545 526.885 21.2821 532.214 26.6116L533.628 25.1974C527.825 19.3935 519.691 16.5545 509.374 16.5545V18.5545ZM532.229 26.6256C537.709 31.8915 540.438 38.3108 540.438 45.9445H542.438C542.438 37.7689 539.489 30.8281 533.614 25.1834L532.229 26.6256ZM540.438 45.9445C540.438 52.5458 538.657 57.992 535.148 62.3515L536.706 63.6055C540.546 58.8356 542.438 52.9259 542.438 45.9445H540.438ZM535.148 62.3515C531.612 66.745 527.248 69.4515 522.033 70.5157L522.433 72.4753C528.129 71.3128 532.895 68.3413 536.706 63.6055L535.148 62.3515ZM522.087 72.4847C527.821 73.3342 532.667 76.246 536.645 81.299L538.216 80.0619C533.955 74.6496 528.67 71.4381 522.38 70.5063L522.087 72.4847ZM536.645 81.299C540.62 86.3486 542.609 92.1964 542.609 98.8835H544.609C544.609 91.7653 542.48 85.4777 538.216 80.0619L536.645 81.299ZM542.609 98.8835C542.609 107.326 539.859 114.245 534.385 119.719L535.799 121.134C541.681 115.252 544.609 107.809 544.609 98.8835H542.609ZM534.385 119.719C528.943 125.162 521.266 127.943 511.211 127.943V129.943C521.643 129.943 529.886 127.047 535.799 121.134L534.385 119.719ZM504.197 63.1435C508.397 63.1435 511.84 61.9717 514.406 59.5276L513.027 58.0793C510.917 60.0886 508.014 61.1435 504.197 61.1435V63.1435ZM514.406 59.5276C516.964 57.0916 518.223 53.9245 518.223 50.1195H516.223C516.223 53.4398 515.145 56.062 513.027 58.0793L514.406 59.5276ZM518.223 50.1195C518.223 46.2992 516.897 43.1274 514.222 40.6955L512.877 42.1754C515.1 44.1969 516.223 46.8144 516.223 50.1195H518.223ZM514.256 40.7284C511.698 38.1696 508.308 36.9285 504.197 36.9285V38.9285C507.88 38.9285 510.725 40.0253 512.842 42.1426L514.256 40.7284ZM504.197 36.9285H474.471V38.9285H504.197V36.9285ZM473.471 37.9285V62.1435H475.471V37.9285H473.471ZM474.471 63.1435H504.197V61.1435H474.471V63.1435ZM505.032 109.402C509.65 109.402 513.416 108.246 516.21 105.817L514.897 104.308C512.569 106.332 509.321 107.402 505.032 107.402V109.402ZM516.228 105.801C519.029 103.243 520.394 99.7843 520.394 95.5435H518.394C518.394 99.3186 517.199 102.206 514.879 104.324L516.228 105.801ZM520.394 95.5435C520.394 91.6079 519.01 88.2815 516.245 85.6358L514.862 87.0811C517.218 89.3341 518.394 92.1311 518.394 95.5435H520.394ZM516.26 85.6514C513.471 82.8619 509.686 81.5175 505.032 81.5175V83.5175C509.285 83.5175 512.514 84.7337 514.846 87.0656L516.26 85.6514ZM505.032 81.5175H474.471V83.5175H505.032V81.5175ZM473.471 82.5175V108.402H475.471V82.5175H473.471ZM474.471 109.402H505.032V107.402H474.471V109.402Z" fill="white" fill-opacity="0.4"/>
</svg>
