<svg width="266" height="71" viewBox="0 0 266 71" fill="none" xmlns="http://www.w3.org/2000/svg">
<path d="M7.58111 5.40869L4.47778 7.18203L11.7484 19.3737L14.8074 17.556L7.58111 5.40869Z" fill="white"/>
<path d="M52.269 31.8314C47.747 18.3097 33.4273 10.6844 19.684 14.497L12.6793 2.39404L9.576 4.16738L17.9993 18.753L19.3737 18.3097C21.7677 17.5117 24.2947 17.0684 26.8217 17.0684C39.6783 17.0684 50.0967 27.4867 50.0967 40.3434C50.0967 43.9344 49.2543 47.481 47.6583 50.7174C44.954 56.259 40.1217 60.4707 34.2697 62.4213C31.8757 63.2193 29.3487 63.6627 26.8217 63.6627C16.8467 63.6183 7.98 57.2343 4.788 47.7913C2.926 42.294 3.192 36.309 5.54167 31.0334L5.852 30.324L2.61567 28.9054L2.30534 29.6147C-3.63533 43.1807 2.527 59.052 16.1373 64.9927C29.7033 70.9333 45.5747 64.771 51.5153 51.1607C54.1753 45.087 54.4413 38.171 52.269 31.8314Z" fill="white"/>
<path d="M62.6873 32.8066H72.2633C73.3716 32.8066 74.5242 32.9396 75.5882 33.25C76.5192 33.516 77.4502 33.9593 78.2039 34.58C78.9576 35.1563 79.5339 35.8656 79.9772 36.708C80.4206 37.6833 80.6422 38.703 80.6422 39.767C80.6866 41.1856 80.2432 42.56 79.3122 43.624C78.3812 44.6436 77.1842 45.3973 75.8986 45.8406V45.9293C76.6966 45.9736 77.4946 46.1953 78.2482 46.5943C78.9576 46.949 79.6226 47.481 80.1546 48.0573C80.7309 48.678 81.1742 49.3873 81.4846 50.1853C81.7949 51.0276 81.9722 51.9143 81.9279 52.801C81.9722 53.9536 81.7062 55.062 81.1742 56.0816C80.6422 57.0126 79.8886 57.8106 79.0019 58.4313C78.0709 59.0963 77.0512 59.584 75.9429 59.8943C74.7016 60.249 73.4603 60.4263 72.1746 60.4263H62.7316V32.8066H62.6873ZM66.4113 44.2446H71.5096C72.1746 44.2446 72.8396 44.156 73.5046 44.023C74.0809 43.89 74.6572 43.6683 75.1449 43.3136C75.6326 42.959 75.9872 42.5156 76.2532 41.9836C76.5636 41.4073 76.6966 40.7423 76.6522 40.0773C76.6522 39.0133 76.2976 38.038 75.5882 37.24C74.7016 36.3533 73.5046 35.9543 72.2633 36.043H66.3669V44.2446H66.4113ZM66.4113 57.1013H71.9086C72.5292 57.1013 73.1942 57.057 73.8149 56.924C74.4799 56.791 75.1449 56.5693 75.7212 56.2146C76.3419 55.86 76.8296 55.3723 77.2286 54.796C77.6719 54.0866 77.8936 53.2886 77.8492 52.4463C77.9379 51.0276 77.3616 49.6533 76.2532 48.7666C75.0119 47.88 73.4603 47.4366 71.9529 47.5253H66.4556V57.1013H66.4113Z" fill="white"/>
<path d="M83.79 51.1605C83.79 49.8748 84.056 48.5892 84.5437 47.3922C85.0314 46.2395 85.7407 45.2198 86.6274 44.3332C90.4843 40.4762 96.7353 40.4762 100.592 44.3332C101.479 45.2198 102.188 46.2395 102.676 47.3922C103.164 48.5892 103.43 49.8748 103.43 51.2048C103.43 53.7762 102.41 56.2588 100.592 58.0765C98.7303 59.8942 96.2033 60.9138 93.632 60.9138C92.302 60.9138 91.0163 60.6478 89.775 60.1602C88.6224 59.6725 87.5584 58.9632 86.6717 58.1208C85.785 57.2342 85.0757 56.2145 84.588 55.0175C84.056 53.7762 83.79 52.4462 83.79 51.1605ZM87.514 51.1605C87.514 52.0472 87.647 52.9338 87.9574 53.7762C88.445 55.2835 89.5977 56.5248 91.0607 57.1455C91.8587 57.4558 92.701 57.6332 93.5877 57.6332C94.43 57.6332 95.2723 57.4115 96.0703 57.1012C96.7797 56.7908 97.4447 56.3475 97.9767 55.7712C98.553 55.1948 98.952 54.5298 99.2623 53.7762C99.5727 52.9338 99.7057 52.0472 99.7057 51.1605C99.7057 50.2738 99.5727 49.3872 99.2623 48.5448C98.9963 47.7912 98.5973 47.0818 98.0653 46.5055C97.5333 45.9292 96.8683 45.4858 96.159 45.1755C95.361 44.8208 94.4743 44.6878 93.632 44.6878C92.7453 44.6878 91.903 44.8208 91.105 45.1755C89.642 45.7962 88.4894 46.9932 88.0017 48.5005C87.647 49.3872 87.514 50.2738 87.514 51.1605Z" fill="white"/>
<path d="M105.957 41.6732H109.282V44.5548C109.415 44.2002 109.636 43.8455 109.902 43.5795C110.257 43.1805 110.7 42.7815 111.144 42.4712C111.72 42.1165 112.296 41.8062 112.917 41.5845C113.671 41.3185 114.424 41.1855 115.178 41.2298C117.616 41.0968 119.922 42.4268 120.941 44.6435C121.518 43.5352 122.404 42.6485 123.468 42.0722C124.488 41.5402 125.641 41.2298 126.793 41.2298C128.035 41.1855 129.232 41.4515 130.34 41.9392C131.182 42.3825 131.936 43.0031 132.468 43.8011C133 44.5991 133.355 45.4858 133.532 46.4168C133.709 47.3921 133.842 48.4118 133.842 49.4315V60.1601H130.34V49.7861C130.34 49.1211 130.296 48.4561 130.207 47.7911C130.118 47.1705 129.941 46.5941 129.631 46.0621C129.365 45.5745 128.921 45.1312 128.434 44.8652C127.813 44.5548 127.104 44.4218 126.394 44.4218C125.02 44.2888 123.646 44.8652 122.759 45.9735C122.005 47.1262 121.606 48.5448 121.651 49.9191V60.0271H118.104V50.4068C118.104 49.6088 118.06 48.7665 117.971 47.9685C117.882 47.3035 117.705 46.6828 117.439 46.1065C117.173 45.5745 116.774 45.1312 116.286 44.8652C115.666 44.5548 114.956 44.3775 114.247 44.4218C113.626 44.4218 113.006 44.5548 112.429 44.8208C111.853 45.0868 111.321 45.4415 110.878 45.9292C110.39 46.4611 110.035 47.1261 109.814 47.7911C109.548 48.6778 109.415 49.5645 109.415 50.4955V60.0714H105.957V41.6732Z" fill="white"/>
<path d="M137.123 30.2354H140.625V43.89H140.714C141.379 42.9147 142.266 42.1167 143.33 41.629C144.482 41.097 145.768 40.7867 147.054 40.7867C148.384 40.7423 149.714 41.0084 150.911 41.5404C152.063 41.9837 153.127 42.693 154.014 43.5797C154.856 44.4663 155.477 45.5303 155.876 46.683C156.319 47.9243 156.541 49.21 156.541 50.4957C156.541 51.7813 156.319 53.067 155.876 54.3083C155.477 55.461 154.812 56.4807 154.014 57.4117C153.172 58.2983 152.152 59.0077 151.044 59.4954C149.802 59.983 148.517 60.249 147.187 60.249C145.901 60.249 144.66 59.983 143.507 59.451C142.399 58.9633 141.423 58.1653 140.714 57.1457H140.625V60.2933H137.123V30.2354ZM146.743 56.8797C147.63 56.8797 148.472 56.7467 149.27 56.392C149.98 56.0817 150.645 55.6384 151.177 55.062C151.709 54.4857 152.108 53.7763 152.374 53.0227C152.684 52.1803 152.817 51.2937 152.817 50.407C152.817 49.5204 152.684 48.6337 152.374 47.7913C151.842 46.3283 150.733 45.1757 149.27 44.5993C148.472 44.2447 147.63 44.1117 146.743 44.1117C145.857 44.1117 145.014 44.2447 144.216 44.5993C143.507 44.9097 142.842 45.353 142.31 45.9293C141.778 46.5057 141.379 47.215 141.113 47.9687C140.803 48.811 140.67 49.6977 140.67 50.5843C140.67 51.471 140.803 52.3577 141.113 53.2C141.379 53.9537 141.778 54.663 142.31 55.2393C142.842 55.8157 143.507 56.259 144.216 56.5693C145.014 56.791 145.857 56.924 146.743 56.8797Z" fill="white"/>
<path d="M160.797 32.8066H170.373C171.481 32.8066 172.59 32.9396 173.698 33.25C174.629 33.516 175.56 33.9593 176.314 34.58C177.067 35.112 177.688 35.8656 178.087 36.708C178.53 37.6833 178.752 38.703 178.752 39.767C178.796 41.1856 178.353 42.56 177.422 43.624C176.491 44.6436 175.294 45.3973 174.008 45.8406V45.9293C174.806 45.9736 175.604 46.1953 176.358 46.5943C177.067 46.949 177.732 47.481 178.22 48.0573C178.796 48.678 179.24 49.3873 179.55 50.1853C179.86 51.0276 180.038 51.9143 180.038 52.801C180.082 53.9536 179.816 55.062 179.284 56.0816C178.796 57.0126 178.087 57.855 177.2 58.4756C176.269 59.1406 175.205 59.6283 174.097 59.9386C172.856 60.2933 171.614 60.4706 170.329 60.4706H160.841L160.797 32.8066ZM164.61 44.2446H169.708C170.373 44.2446 171.038 44.156 171.703 44.023C172.279 43.89 172.856 43.6683 173.343 43.3136C173.831 42.959 174.186 42.5156 174.452 41.9836C174.718 41.4073 174.895 40.7423 174.851 40.0773C174.851 39.0133 174.496 38.038 173.787 37.24C172.9 36.3533 171.703 35.9543 170.462 36.043H164.565V44.2446H164.61ZM164.61 57.1013H170.107C170.728 57.1013 171.348 57.057 171.969 56.924C172.634 56.791 173.299 56.5693 173.92 56.2146C174.54 55.86 175.028 55.3723 175.427 54.796C175.87 54.0866 176.092 53.2443 176.048 52.402C176.136 50.9833 175.56 49.609 174.452 48.7223C173.166 47.8356 171.659 47.4366 170.151 47.481H164.61V57.1013Z" fill="white"/>
<path d="M181.944 51.1605C181.944 49.8748 182.21 48.5892 182.698 47.3922C183.185 46.2395 183.895 45.2198 184.781 44.3332C188.638 40.4762 194.845 40.4762 198.702 44.3332C199.589 45.2198 200.298 46.2395 200.786 47.3922C201.318 48.5892 201.584 49.8748 201.539 51.1605C201.539 53.7318 200.52 56.2145 198.702 58.0322C197.815 58.9188 196.751 59.6282 195.599 60.0715C193.116 61.0912 190.367 61.0912 187.885 60.0715C186.732 59.5838 185.668 58.8745 184.781 58.0322C182.964 56.2145 181.944 53.7318 181.944 51.1605ZM185.668 51.1605C185.668 52.0472 185.801 52.9338 186.111 53.7762C186.377 54.5298 186.776 55.2392 187.308 55.8155C187.84 56.3918 188.505 56.8352 189.215 57.1455C190.855 57.8105 192.628 57.8105 194.269 57.1455C194.978 56.8352 195.643 56.3918 196.175 55.8155C196.707 55.2392 197.106 54.5298 197.372 53.7762C197.682 52.9338 197.815 52.0472 197.815 51.1605C197.815 50.2738 197.682 49.3872 197.372 48.5448C197.106 47.7912 196.707 47.1262 196.175 46.5055C195.643 45.9292 194.978 45.4858 194.269 45.1755C192.628 44.5105 190.855 44.5105 189.215 45.1755C188.505 45.4858 187.84 45.9292 187.308 46.5055C186.776 47.0818 186.377 47.7912 186.111 48.5448C185.801 49.3872 185.668 50.2738 185.668 51.1605Z" fill="white"/>
<path d="M204.111 41.6736H207.391V44.5553H207.48C207.613 44.2006 207.835 43.8903 208.056 43.5799C208.411 43.1809 208.854 42.7819 209.298 42.4716C209.874 42.1169 210.45 41.8066 211.071 41.5849C212.977 40.9643 215.061 41.1416 216.834 42.0726C217.81 42.6933 218.608 43.5799 219.14 44.6439C219.716 43.5356 220.603 42.6489 221.667 42.0726C222.686 41.5406 223.839 41.2303 224.992 41.2303C226.189 41.1859 227.386 41.4076 228.494 41.9396C229.336 42.3829 230.09 43.0036 230.622 43.8016C231.154 44.5996 231.509 45.4863 231.686 46.4173C231.863 47.3926 231.996 48.4123 231.996 49.4319V60.1606H228.494V49.8309C228.494 49.1659 228.45 48.5009 228.361 47.8359C228.272 47.2153 228.095 46.6389 227.785 46.1069C227.474 45.6193 227.075 45.1759 226.588 44.9099C225.967 44.5996 225.258 44.4223 224.504 44.4666C223.13 44.3336 221.755 44.9099 220.913 46.0183C220.159 47.1709 219.76 48.5896 219.805 49.9639V60.0719H216.302V50.4959C216.302 49.6979 216.258 48.8556 216.169 48.0576C216.081 47.3926 215.903 46.7719 215.637 46.1956C215.371 45.6636 214.972 45.2203 214.485 44.9543C213.864 44.6439 213.155 44.4666 212.445 44.5109C211.825 44.5109 211.204 44.6439 210.628 44.9099C210.051 45.1316 209.519 45.5306 209.076 46.0183C208.588 46.5503 208.234 47.2153 208.012 47.8803C207.746 48.7669 207.613 49.6536 207.613 50.5846V60.1606H204.111V41.6736Z" fill="white"/>
<path d="M235.277 30.2354H238.779V43.89H238.868C239.533 42.9147 240.42 42.1167 241.484 41.629C242.636 41.097 243.922 40.7867 245.208 40.7867C246.538 40.7423 247.868 41.0084 249.065 41.5404C250.173 41.9837 251.193 42.693 252.035 43.5797C252.877 44.4663 253.498 45.5303 253.897 46.683C254.34 47.9243 254.562 49.21 254.562 50.4957C254.562 51.7813 254.34 53.067 253.897 54.3083C253.454 55.461 252.833 56.4807 252.035 57.4117C251.193 58.2983 250.173 59.0077 249.065 59.4954C247.823 59.983 246.538 60.249 245.208 60.249C243.966 60.249 242.681 59.983 241.572 59.451C240.464 58.9633 239.489 58.1653 238.779 57.1457H238.691V60.2933H235.188L235.277 30.2354ZM244.853 56.8797C245.74 56.8797 246.582 56.7467 247.38 56.392C248.089 56.0817 248.754 55.6384 249.286 55.062C249.818 54.4857 250.217 53.7763 250.483 53.0227C250.794 52.1803 250.927 51.2937 250.927 50.407C250.927 49.5204 250.794 48.6337 250.483 47.7913C250.217 47.0377 249.818 46.3284 249.286 45.752C248.754 45.1757 248.089 44.7324 247.38 44.422C245.74 43.8014 243.922 43.8457 242.282 44.555C240.819 45.1757 239.666 46.3727 239.178 47.88C238.868 48.7223 238.735 49.609 238.735 50.4957C238.735 51.3823 238.868 52.269 239.178 53.1113C239.444 53.865 239.843 54.5743 240.375 55.1507C240.907 55.6827 241.572 56.0817 242.282 56.3477C243.124 56.7467 243.966 56.8797 244.853 56.8797Z" fill="white"/>
<path d="M256.69 34.1368H255.183V33.0728H259.439V34.1368H257.931V38.4371H256.734L256.69 34.1368Z" fill="white"/>
<path d="M259.971 33.0728H261.744L262.985 36.5751L264.227 33.0728H266V38.4371H264.847V34.3141L263.384 38.4371H262.453L261.123 34.3141V38.4371H259.926V33.0728H259.971Z" fill="white"/>
</svg>
