<svg width="22" height="21" viewBox="0 0 22 21" fill="none" xmlns="http://www.w3.org/2000/svg">
<path d="M8.90993 9.1711C9.68993 9.9511 9.68993 11.2111 8.90993 11.9911C8.11993 12.7711 6.85993 12.7711 6.07993 11.9911C5.28993 11.2011 5.28993 9.9411 6.07893 9.1611C6.85893 8.3711 8.11893 8.3711 8.89893 9.1611" stroke="#163B7B" stroke-width="1.5" stroke-linecap="round" stroke-linejoin="round"/>
<path d="M14 10.0011H18" stroke="#163B7B" stroke-width="1.5" stroke-linecap="round" stroke-linejoin="round"/>
<path d="M17 13.5011H14" stroke="#163B7B" stroke-width="1.5" stroke-linecap="round" stroke-linejoin="round"/>
<path d="M11 17.0422C10.83 16.6122 10.56 16.2222 10.22 15.9122C9.63998 15.3822 8.88998 15.0822 8.11998 15.0822H6.85998C6.07998 15.0822 5.33098 15.3722 4.75998 15.9022C4.41998 16.2122 4.15898 16.5922 3.97998 17.0222" stroke="#163B7B" stroke-width="1.5" stroke-linecap="round" stroke-linejoin="round"/>
<path d="M12 6.0011H10C9.44 6.0011 9 5.5511 9 5.0011V2.0011C9 1.4491 9.44 1.0011 10 1.0011H12C12.55 1.0011 13 1.4411 13 2.0011V5.0011C13 5.5511 12.55 6.0011 12 6.0011Z" stroke="#163B7B" stroke-width="1.5" stroke-linecap="round" stroke-linejoin="round"/>
<path d="M9.00002 4.00112H3.04002C1.91002 4.00112 0.999023 4.91112 0.999023 6.04112V18.0001C0.999023 19.1001 1.89402 20.0001 2.99902 20.0001H18.999C20.099 20.0001 20.999 19.1001 20.999 18.0001V6.00012C20.999 4.89012 20.099 4.00012 18.999 4.00012H12.999" stroke="#163B7B" stroke-width="1.5" stroke-linecap="round" stroke-linejoin="round"/>
</svg>
