<svg width="266" height="40" viewBox="0 0 266 40" fill="none" xmlns="http://www.w3.org/2000/svg">
<path d="M21.8071 30.2035V30.3201C21.8071 36.3841 17.7255 39.766 11.0785 39.766C4.19816 39.766 0 36.0343 0 29.5038V20.6411C0 14.1106 4.19816 10.3789 11.0785 10.3789C17.6089 10.3789 21.6905 13.7608 21.6905 19.8248V19.9414H18.3086V19.8248C18.3086 15.7432 15.5099 13.4109 10.9619 13.4109C6.18062 13.4109 3.26523 16.0931 3.26523 20.7577V29.6205C3.26523 34.2851 6.18062 36.9672 10.8452 36.9672C15.3932 36.9672 18.192 34.5183 18.192 30.4368V30.3201H21.8071V30.2035Z" fill="white"/>
<path d="M29.6201 10.8452H33.002V36.5006H48.0454V39.5326H29.6201V10.8452Z" fill="white"/>
<path d="M76.149 29.5038C76.149 36.0343 71.9509 39.766 64.954 39.766C58.0736 39.766 53.8755 36.0343 53.8755 29.5038V20.6411C53.8755 14.1106 58.0736 10.3789 65.0706 10.3789C71.9509 10.3789 76.149 13.994 76.149 20.6411V29.5038ZM72.8838 20.6411C72.8838 15.9764 69.9684 13.2943 65.1872 13.2943C60.2893 13.2943 57.4906 15.9764 57.4906 20.6411V29.5038C57.4906 34.1685 60.406 36.8506 65.1872 36.8506C70.085 36.8506 72.8838 34.1685 72.8838 29.5038V20.6411Z" fill="white"/>
<path d="M105.537 10.8452V29.9701C105.537 36.2674 101.455 39.8825 94.925 39.8825C88.3945 39.8825 84.313 36.384 84.313 29.9701V10.8452H87.6948V29.9701C87.6948 34.4015 90.4936 36.9671 95.0416 36.9671C99.5896 36.9671 102.388 34.4015 102.388 29.9701V10.8452H105.537Z" fill="white"/>
<path d="M135.39 29.2705C135.39 35.8009 131.192 39.416 124.195 39.416H113.933V10.8452H124.195C131.076 10.8452 135.274 14.4603 135.274 20.8741V29.2705H135.39ZM131.892 20.8741C131.892 16.3261 128.977 13.644 124.195 13.644H117.198V36.384H124.079C128.977 36.384 131.775 33.7018 131.775 29.1538V20.7575H131.892V20.8741Z" fill="white"/>
<path d="M140.639 10.8452H144.371L153.35 35.3345L166.178 0H169.56L155.333 39.5326H151.368L140.639 10.8452Z" fill="white"/>
<path d="M172.475 10.8452H175.856V39.416H172.475V10.8452Z" fill="white"/>
<path d="M184.368 10.8452H195.796C201.277 10.8452 204.892 13.644 204.892 19.708C204.892 24.3726 202.91 27.0548 199.528 28.1043L205.009 39.5326H201.044L195.913 28.804H195.563H187.517V39.5326H184.135V10.8452H184.368ZM187.75 25.6554H195.68C199.178 25.6554 201.394 23.9061 201.394 19.708C201.394 15.5098 199.062 13.8772 195.68 13.8772H187.75V25.6554Z" fill="white"/>
<path d="M230.666 30.3201V27.7545H221.686V24.7225H234.047V39.2995H231.482L231.132 36.2675C229.499 38.3665 226.584 39.6493 222.736 39.6493C216.205 39.6493 212.357 36.0342 212.357 29.3871V20.5244C212.357 13.6441 216.555 10.2622 223.435 10.2622C229.849 10.2622 234.047 13.2942 234.047 19.125V19.3582H230.666V19.125C230.666 15.2767 227.867 13.1776 223.319 13.1776C218.538 13.1776 215.622 15.7431 215.622 20.641V29.5038C215.622 34.1684 218.538 36.8505 223.202 36.8505C227.983 36.8505 230.666 34.4016 230.666 30.3201Z" fill="white"/>
<path d="M265.999 39.416H262.384L259.585 32.0692H246.758L243.959 39.416H240.577L251.073 10.8452H255.154L265.999 39.416ZM247.691 29.1538H258.769L253.288 14.4603L247.691 29.1538Z" fill="white"/>
</svg>
