<svg width="24" height="16" viewBox="0 0 24 16" fill="none" xmlns="http://www.w3.org/2000/svg">
<path d="M20.7898 5.52114C21.5798 6.31114 21.5798 7.59114 20.7898 8.38114C19.9898 9.17114 18.7098 9.17114 17.9198 8.38114C17.1198 7.58114 17.1198 6.30114 17.9198 5.51114C18.7098 4.71114 19.9898 4.71114 20.7798 5.51014" stroke="#163B7C" stroke-width="1.5" stroke-linecap="round" stroke-linejoin="round"/>
<path d="M14.2 1.91108C15.41 3.12108 15.41 5.09108 14.2 6.31108C12.98 7.52108 11.01 7.52108 9.79 6.31108C8.57 5.09108 8.57 3.12108 9.79 1.90108C11 0.681084 12.97 0.681084 14.19 1.90108" stroke="#163B7C" stroke-width="1.5" stroke-linecap="round" stroke-linejoin="round"/>
<path d="M6.05984 5.52114C6.84984 6.31114 6.84984 7.59114 6.05984 8.38114C5.25984 9.17114 3.97984 9.17114 3.18984 8.38114C2.38984 7.58114 2.38984 6.30114 3.18984 5.51114C3.97984 4.71114 5.25984 4.71114 6.04984 5.51014" stroke="#163B7C" stroke-width="1.5" stroke-linecap="round" stroke-linejoin="round"/>
<path d="M22.9999 15.001V13.905C22.9999 12.515 21.8799 11.405 20.4999 11.405H19.6899" stroke="#163B7C" stroke-width="1.5" stroke-linecap="round" stroke-linejoin="round"/>
<path d="M1 15.001V13.905C1 12.515 2.11 11.405 3.5 11.405H4.3" stroke="#163B7C" stroke-width="1.5" stroke-linecap="round" stroke-linejoin="round"/>
<path d="M17.3299 15.0011V13.3911C17.3299 11.4511 15.7599 9.89111 13.8299 9.89111H10.1499C8.2099 9.89111 6.6499 11.4511 6.6499 13.3911V14.9911" stroke="#163B7C" stroke-width="1.5" stroke-linecap="round" stroke-linejoin="round"/>
</svg>
