<svg width="14" height="14" viewBox="0 0 14 14" fill="none" xmlns="http://www.w3.org/2000/svg">
<path d="M7.00004 0C3.13407 0 0 3.13407 0 7.00004C0 10.4674 2.52365 13.3389 5.83257 13.895V8.46044H4.14396V6.50478H5.83257V5.06275C5.83257 3.38959 6.85449 2.47781 8.34729 2.47781C9.06225 2.47781 9.67667 2.53108 9.85504 2.55455V4.30345L8.81967 4.30395C8.00802 4.30395 7.85153 4.68957 7.85153 5.25565V6.50378H9.78823L9.53563 8.45944H7.85153V13.9417C11.3149 13.5202 14 10.5755 14 6.99804C14 3.13407 10.8659 0 7.00004 0Z" fill="#163B7D"/>
</svg>
