<svg width="14" height="14" viewBox="0 0 14 14" fill="none" xmlns="http://www.w3.org/2000/svg">
<path d="M3.55003 13.9505C2.71745 13.9126 2.26516 13.7741 1.96434 13.6567C1.56573 13.5015 1.28154 13.3168 0.982376 13.018C0.683211 12.7193 0.498053 12.4351 0.343686 12.0365C0.22635 11.7357 0.0877939 11.2834 0.0499302 10.4508C0.00832169 9.55081 0 9.28077 0 7.00062C0 4.72048 0.00915386 4.45086 0.0495141 3.55003C0.0873778 2.71745 0.226766 2.266 0.34327 1.96434C0.498469 1.56573 0.683627 1.28154 0.98196 0.98196C1.28071 0.683211 1.56489 0.497637 1.96392 0.34327C2.26475 0.225934 2.71703 0.0873778 3.54962 0.0495141C4.45003 0.00832169 4.72048 0 6.99979 0C9.27994 0 9.54956 0.00915386 10.4504 0.0495141C11.283 0.0873778 11.7344 0.226766 12.0361 0.34327C12.4347 0.497637 12.7189 0.683211 13.018 0.98196C13.3172 1.28071 13.5015 1.56531 13.6567 1.96392C13.7741 2.26475 13.9126 2.71703 13.9505 3.54962C13.9917 4.45044 14 4.72006 14 7.00021C14 9.27952 13.9917 9.54997 13.9505 10.4508C13.9126 11.2834 13.7732 11.7357 13.6567 12.0365C13.5015 12.4351 13.3168 12.7193 13.018 13.018C12.7193 13.3168 12.4347 13.5015 12.0361 13.6567C11.7353 13.7741 11.283 13.9126 10.4504 13.9505C9.55039 13.9917 9.27994 14 6.99979 14C4.72048 14 4.45003 13.9921 3.55003 13.9505Z" fill="white"/>
<path d="M3.55003 13.9505C2.71745 13.9126 2.26516 13.7741 1.96434 13.6567C1.56573 13.5015 1.28154 13.3168 0.982376 13.018C0.683211 12.7193 0.498053 12.4351 0.343686 12.0365C0.22635 11.7357 0.0877939 11.2834 0.0499302 10.4508C0.00832169 9.55081 0 9.28077 0 7.00062C0 4.72048 0.00915387 4.45086 0.0495141 3.55003C0.0873778 2.71745 0.226766 2.266 0.34327 1.96434C0.498469 1.56573 0.683627 1.28154 0.98196 0.98196C1.28071 0.683211 1.56489 0.497637 1.96392 0.34327C2.26475 0.225934 2.71703 0.0873778 3.54962 0.0495141C4.45003 0.00832169 4.72048 0 6.99979 0C9.27994 0 9.54956 0.00915387 10.4504 0.0495141C11.283 0.0873778 11.7344 0.226766 12.0361 0.34327C12.4347 0.497637 12.7189 0.683211 13.018 0.98196C13.3172 1.28071 13.5015 1.56531 13.6567 1.96392C13.7741 2.26475 13.9126 2.71703 13.9505 3.54962C13.9917 4.45044 14 4.72006 14 7.00021C14 9.27952 13.9917 9.54998 13.9505 10.4508C13.9126 11.2834 13.7732 11.7357 13.6567 12.0365C13.5015 12.4351 13.3168 12.7193 13.018 13.018C12.7193 13.3168 12.4347 13.5015 12.0361 13.6567C11.7353 13.7741 11.283 13.9126 10.4504 13.9505C9.55039 13.9917 9.27994 14 6.99979 14C4.72048 14 4.45003 13.9921 3.55003 13.9505Z" fill="white"/>
<path d="M5.28112 7.02965C5.28112 6.07221 6.05707 5.29583 7.01452 5.29583C7.97197 5.29583 8.74834 6.07221 8.74834 7.02965C8.74834 7.9871 7.97197 8.76347 7.01452 8.76347C6.05707 8.76347 5.28112 7.9871 5.28112 7.02965ZM4.34385 7.02965C4.34385 8.50467 5.53951 9.70033 7.01452 9.70033C8.48954 9.70033 9.6852 8.50467 9.6852 7.02965C9.6852 5.55464 8.48954 4.35898 7.01452 4.35898C5.53951 4.35898 4.34389 5.55456 4.34389 7.02965H4.34385ZM9.16684 4.25309C9.16679 4.37653 9.20335 4.49721 9.27189 4.59988C9.34042 4.70254 9.43787 4.78257 9.55189 4.82986C9.66592 4.87714 9.7914 4.88955 9.91248 4.86552C10.0336 4.84149 10.1448 4.78209 10.2321 4.69484C10.3194 4.60759 10.3789 4.4964 10.403 4.37534C10.4272 4.25429 10.4149 4.12879 10.3677 4.01473C10.3205 3.90066 10.2405 3.80316 10.1379 3.73454C10.0353 3.66592 9.91466 3.62926 9.79122 3.62921H9.79097C9.6255 3.62929 9.46684 3.69504 9.34982 3.81201C9.23279 3.92899 9.16698 4.08763 9.16684 4.25309ZM4.9133 11.2632C4.40622 11.2401 4.1306 11.1557 3.94744 11.0843C3.70462 10.9898 3.53136 10.8772 3.3492 10.6953C3.16704 10.5134 3.05428 10.3403 2.96016 10.0974C2.88876 9.91436 2.8043 9.63866 2.78125 9.13158C2.75603 8.58335 2.751 8.41866 2.751 7.02974C2.751 5.64081 2.75645 5.47658 2.78125 4.92789C2.80434 4.42081 2.88943 4.14566 2.96016 3.96204C3.0547 3.71921 3.16729 3.54596 3.3492 3.36379C3.53111 3.18163 3.7042 3.06887 3.94744 2.97476C4.13052 2.90336 4.40622 2.81889 4.9133 2.79584C5.46153 2.77063 5.62622 2.76559 7.01452 2.76559C8.40283 2.76559 8.56768 2.77096 9.11637 2.79592C9.62345 2.81902 9.89861 2.90411 10.0822 2.97484C10.3251 3.06896 10.4983 3.18197 10.6805 3.36388C10.8626 3.54579 10.975 3.7193 11.0695 3.96212C11.1409 4.1452 11.2254 4.4209 11.2484 4.92798C11.2736 5.47667 11.2787 5.64089 11.2787 7.02982C11.2787 8.41875 11.2736 8.58298 11.2484 9.13166C11.2253 9.63875 11.1404 9.91436 11.0695 10.0975C10.975 10.3403 10.8624 10.5136 10.6805 10.6953C10.4986 10.8771 10.3251 10.9899 10.0822 11.0844C9.89915 11.1558 9.62345 11.2403 9.11637 11.2633C8.56814 11.2885 8.40345 11.2936 7.01452 11.2936C5.62559 11.2936 5.46137 11.2885 4.9133 11.2633V11.2632ZM4.87024 1.86011C4.31655 1.88533 3.93821 1.97312 3.6078 2.10169C3.26582 2.23446 2.97593 2.41259 2.68646 2.7016C2.39699 2.99061 2.21932 3.28054 2.08655 3.62293C1.95798 3.95355 1.87019 4.33169 1.84497 4.88537C1.81934 5.43992 1.81348 5.61722 1.81348 7.02965C1.81348 8.44209 1.81934 8.61938 1.84497 9.17394C1.87019 9.72766 1.95798 10.1058 2.08655 10.4364C2.21932 10.7784 2.39703 11.0688 2.68646 11.3577C2.97589 11.6466 3.2654 11.8245 3.6078 11.9576C3.93883 12.0862 4.31655 12.174 4.87024 12.1992C5.42508 12.2244 5.60208 12.2307 7.01452 12.2307C8.42696 12.2307 8.60425 12.2248 9.15881 12.1992C9.71253 12.174 10.0906 12.0862 10.4212 11.9576C10.7632 11.8245 11.0531 11.6467 11.3426 11.3577C11.6321 11.0687 11.8093 10.7784 11.9425 10.4364C12.0711 10.1058 12.1593 9.72762 12.1841 9.17394C12.2093 8.61897 12.2152 8.44209 12.2152 7.02965C12.2152 5.61722 12.2093 5.43992 12.1841 4.88537C12.1589 4.33165 12.0711 3.95334 11.9425 3.62293C11.8093 3.28095 11.6316 2.99107 11.3426 2.7016C11.0536 2.41213 10.7632 2.23446 10.4217 2.10169C10.0906 1.97312 9.71249 1.88491 9.15923 1.86011C8.60459 1.83477 8.42738 1.82861 7.01515 1.82861C5.60292 1.82861 5.42529 1.83448 4.87044 1.86011" fill="#1C3155"/>
</svg>
