<svg width="14" height="14" viewBox="0 0 14 14" fill="none" xmlns="http://www.w3.org/2000/svg">
<path d="M3.55003 13.9505C2.71745 13.9126 2.26516 13.7741 1.96434 13.6567C1.56573 13.5015 1.28154 13.3168 0.982376 13.018C0.683211 12.7193 0.498053 12.4351 0.343686 12.0365C0.22635 11.7357 0.0877939 11.2834 0.0499302 10.4508C0.00832169 9.55081 0 9.28077 0 7.00062C0 4.72048 0.00915386 4.45086 0.0495141 3.55003C0.0873778 2.71745 0.226766 2.266 0.34327 1.96434C0.498469 1.56573 0.683627 1.28154 0.98196 0.98196C1.28071 0.683211 1.56489 0.497637 1.96392 0.34327C2.26475 0.225934 2.71703 0.0873778 3.54962 0.0495141C4.45003 0.00832169 4.72048 0 6.99979 0C9.27994 0 9.54956 0.00915386 10.4504 0.0495141C11.283 0.0873778 11.7344 0.226766 12.0361 0.34327C12.4347 0.497637 12.7189 0.683211 13.018 0.98196C13.3172 1.28071 13.5015 1.56531 13.6567 1.96392C13.7741 2.26475 13.9126 2.71703 13.9505 3.54962C13.9917 4.45044 14 4.72006 14 7.00021C14 9.27952 13.9917 9.54997 13.9505 10.4508C13.9126 11.2834 13.7732 11.7357 13.6567 12.0365C13.5015 12.4351 13.3168 12.7193 13.018 13.018C12.7193 13.3168 12.4347 13.5015 12.0361 13.6567C11.7353 13.7741 11.283 13.9126 10.4504 13.9505C9.55039 13.9917 9.27994 14 6.99979 14C4.72048 14 4.45003 13.9921 3.55003 13.9505Z" fill="#163B7D"/>
<path d="M3.55003 13.9505C2.71745 13.9126 2.26516 13.7741 1.96434 13.6567C1.56573 13.5015 1.28154 13.3168 0.982376 13.018C0.683211 12.7193 0.498053 12.4351 0.343686 12.0365C0.22635 11.7357 0.0877939 11.2834 0.0499302 10.4508C0.00832169 9.55081 0 9.28077 0 7.00062C0 4.72048 0.00915387 4.45086 0.0495141 3.55003C0.0873778 2.71745 0.226766 2.266 0.34327 1.96434C0.498469 1.56573 0.683627 1.28154 0.98196 0.98196C1.28071 0.683211 1.56489 0.497637 1.96392 0.34327C2.26475 0.225934 2.71703 0.0873778 3.54962 0.0495141C4.45003 0.00832169 4.72048 0 6.99979 0C9.27994 0 9.54956 0.00915387 10.4504 0.0495141C11.283 0.0873778 11.7344 0.226766 12.0361 0.34327C12.4347 0.497637 12.7189 0.683211 13.018 0.98196C13.3172 1.28071 13.5015 1.56531 13.6567 1.96392C13.7741 2.26475 13.9126 2.71703 13.9505 3.54962C13.9917 4.45044 14 4.72006 14 7.00021C14 9.27952 13.9917 9.54998 13.9505 10.4508C13.9126 11.2834 13.7732 11.7357 13.6567 12.0365C13.5015 12.4351 13.3168 12.7193 13.018 13.018C12.7193 13.3168 12.4347 13.5015 12.0361 13.6567C11.7353 13.7741 11.283 13.9126 10.4504 13.9505C9.55039 13.9917 9.27994 14 6.99979 14C4.72048 14 4.45003 13.9921 3.55003 13.9505Z" fill="#163B7D"/>
<path d="M5.28087 7.0299C5.28087 6.07245 6.05683 5.29608 7.01428 5.29608C7.97173 5.29608 8.7481 6.07245 8.7481 7.0299C8.7481 7.98735 7.97173 8.76372 7.01428 8.76372C6.05683 8.76372 5.28087 7.98735 5.28087 7.0299ZM4.3436 7.0299C4.3436 8.50491 5.53926 9.70057 7.01428 9.70057C8.4893 9.70057 9.68495 8.50491 9.68495 7.0299C9.68495 5.55488 8.4893 4.35923 7.01428 4.35923C5.53926 4.35923 4.34365 5.5548 4.34365 7.0299H4.3436ZM9.1666 4.25333C9.16655 4.37677 9.2031 4.49746 9.27164 4.60012C9.34018 4.70278 9.43762 4.78282 9.55165 4.8301C9.66567 4.87739 9.79116 4.8898 9.91224 4.86576C10.0333 4.84173 10.1445 4.78233 10.2319 4.69508C10.3192 4.60783 10.3787 4.49665 10.4028 4.37559C10.4269 4.25453 10.4146 4.12903 10.3674 4.01497C10.3202 3.90091 10.2403 3.8034 10.1377 3.73478C10.0351 3.66616 9.91441 3.62951 9.79097 3.62946H9.79072C9.62526 3.62953 9.46659 3.69528 9.34957 3.81226C9.23255 3.92923 9.16674 4.08787 9.1666 4.25333ZM4.91306 11.2635C4.40597 11.2404 4.13036 11.1559 3.9472 11.0845C3.70437 10.99 3.53112 10.8774 3.34896 10.6955C3.16679 10.5136 3.05404 10.3405 2.95992 10.0977C2.88852 9.9146 2.80405 9.63891 2.781 9.13183C2.75579 8.58359 2.75075 8.41891 2.75075 7.02998C2.75075 5.64105 2.7562 5.47683 2.781 4.92814C2.80409 4.42106 2.88918 4.1459 2.95992 3.96228C3.05445 3.71946 3.16704 3.5462 3.34896 3.36404C3.53087 3.18188 3.70396 3.06912 3.9472 2.975C4.13028 2.9036 4.40597 2.81914 4.91306 2.79608C5.46129 2.77087 5.62597 2.76584 7.01428 2.76584C8.40258 2.76584 8.56744 2.7712 9.11613 2.79617C9.62321 2.81926 9.89836 2.90435 10.082 2.97508C10.3248 3.0692 10.4981 3.18221 10.6802 3.36412C10.8624 3.54603 10.9747 3.71954 11.0693 3.96237C11.1407 4.14544 11.2251 4.42114 11.2482 4.92822C11.2734 5.47691 11.2784 5.64114 11.2784 7.03006C11.2784 8.41899 11.2734 8.58322 11.2482 9.13191C11.2251 9.63899 11.1402 9.9146 11.0693 10.0978C10.9747 10.3406 10.8621 10.5138 10.6802 10.6956C10.4983 10.8773 10.3248 10.9901 10.082 11.0846C9.8989 11.156 9.62321 11.2405 9.11613 11.2635C8.56789 11.2888 8.40321 11.2938 7.01428 11.2938C5.62535 11.2938 5.46112 11.2888 4.91306 11.2635V11.2635ZM4.86999 1.86035C4.31631 1.88557 3.93796 1.97336 3.60755 2.10193C3.26557 2.23471 2.97569 2.41283 2.68622 2.70184C2.39675 2.99085 2.21908 3.28078 2.08631 3.62317C1.95774 3.95379 1.86994 4.33193 1.84473 4.88561C1.8191 5.44017 1.81323 5.61746 1.81323 7.0299C1.81323 8.44233 1.8191 8.61963 1.84473 9.17418C1.86994 9.72791 1.95774 10.106 2.08631 10.4366C2.21908 10.7786 2.39679 11.0691 2.68622 11.358C2.97565 11.6468 3.26516 11.8247 3.60755 11.9579C3.93859 12.0864 4.31631 12.1742 4.86999 12.1994C5.42484 12.2247 5.60184 12.2309 7.01428 12.2309C8.42672 12.2309 8.60401 12.2251 9.15857 12.1994C9.71229 12.1742 10.0904 12.0864 10.421 11.9579C10.763 11.8247 11.0529 11.647 11.3423 11.358C11.6318 11.0689 11.8091 10.7786 11.9422 10.4366C12.0708 10.106 12.159 9.72787 12.1838 9.17418C12.209 8.61921 12.2149 8.44233 12.2149 7.0299C12.2149 5.61746 12.209 5.44017 12.1838 4.88561C12.1586 4.33189 12.0708 3.95359 11.9422 3.62317C11.8091 3.2812 11.6314 2.99131 11.3423 2.70184C11.0533 2.41237 10.763 2.23471 10.4214 2.10193C10.0904 1.97336 9.71225 1.88515 9.15898 1.86035C8.60434 1.83502 8.42713 1.82886 7.0149 1.82886C5.60267 1.82886 5.42505 1.83472 4.8702 1.86035" fill="white"/>
</svg>
