<svg width="14" height="14" viewBox="0 0 14 14" fill="none" xmlns="http://www.w3.org/2000/svg">
<path d="M3.55003 13.9505C2.71745 13.9126 2.26516 13.7741 1.96434 13.6567C1.56573 13.5015 1.28154 13.3168 0.982376 13.018C0.683211 12.7193 0.498053 12.4351 0.343686 12.0365C0.22635 11.7357 0.0877939 11.2834 0.0499302 10.4508C0.00832169 9.55081 0 9.28077 0 7.00062C0 4.72048 0.00915386 4.45086 0.0495141 3.55003C0.0873778 2.71745 0.226766 2.266 0.34327 1.96434C0.498469 1.56573 0.683627 1.28154 0.98196 0.98196C1.28071 0.683211 1.56489 0.497637 1.96392 0.34327C2.26475 0.225934 2.71703 0.0873778 3.54962 0.0495141C4.45003 0.00832169 4.72048 0 6.99979 0C9.27994 0 9.54956 0.00915386 10.4504 0.0495141C11.283 0.0873778 11.7344 0.226766 12.0361 0.34327C12.4347 0.497637 12.7189 0.683211 13.018 0.98196C13.3172 1.28071 13.5015 1.56531 13.6567 1.96392C13.7741 2.26475 13.9126 2.71703 13.9505 3.54962C13.9917 4.45044 14 4.72006 14 7.00021C14 9.27952 13.9917 9.54997 13.9505 10.4508C13.9126 11.2834 13.7732 11.7357 13.6567 12.0365C13.5015 12.4351 13.3168 12.7193 13.018 13.018C12.7193 13.3168 12.4347 13.5015 12.0361 13.6567C11.7353 13.7741 11.283 13.9126 10.4504 13.9505C9.55039 13.9917 9.27994 14 6.99979 14C4.72048 14 4.45003 13.9921 3.55003 13.9505Z" fill="#163B7D" fill-opacity="0.3"/>
<path d="M3.55003 13.9505C2.71745 13.9126 2.26516 13.7741 1.96434 13.6567C1.56573 13.5015 1.28154 13.3168 0.982376 13.018C0.683211 12.7193 0.498053 12.4351 0.343686 12.0365C0.22635 11.7357 0.0877939 11.2834 0.0499302 10.4508C0.00832169 9.55081 0 9.28077 0 7.00062C0 4.72048 0.00915387 4.45086 0.0495141 3.55003C0.0873778 2.71745 0.226766 2.266 0.34327 1.96434C0.498469 1.56573 0.683627 1.28154 0.98196 0.98196C1.28071 0.683211 1.56489 0.497637 1.96392 0.34327C2.26475 0.225934 2.71703 0.0873778 3.54962 0.0495141C4.45003 0.00832169 4.72048 0 6.99979 0C9.27994 0 9.54956 0.00915387 10.4504 0.0495141C11.283 0.0873778 11.7344 0.226766 12.0361 0.34327C12.4347 0.497637 12.7189 0.683211 13.018 0.98196C13.3172 1.28071 13.5015 1.56531 13.6567 1.96392C13.7741 2.26475 13.9126 2.71703 13.9505 3.54962C13.9917 4.45044 14 4.72006 14 7.00021C14 9.27952 13.9917 9.54998 13.9505 10.4508C13.9126 11.2834 13.7732 11.7357 13.6567 12.0365C13.5015 12.4351 13.3168 12.7193 13.018 13.018C12.7193 13.3168 12.4347 13.5015 12.0361 13.6567C11.7353 13.7741 11.283 13.9126 10.4504 13.9505C9.55039 13.9917 9.27994 14 6.99979 14C4.72048 14 4.45003 13.9921 3.55003 13.9505Z" fill="#163B7D"/>
<path d="M5.28112 7.02978C5.28112 6.07233 6.05707 5.29596 7.01452 5.29596C7.97197 5.29596 8.74834 6.07233 8.74834 7.02978C8.74834 7.98723 7.97197 8.76359 7.01452 8.76359C6.05707 8.76359 5.28112 7.98723 5.28112 7.02978ZM4.34385 7.02978C4.34385 8.50479 5.53951 9.70045 7.01452 9.70045C8.48954 9.70045 9.6852 8.50479 9.6852 7.02978C9.6852 5.55476 8.48954 4.3591 7.01452 4.3591C5.53951 4.3591 4.34389 5.55468 4.34389 7.02978H4.34385ZM9.16684 4.25321C9.16679 4.37665 9.20335 4.49733 9.27189 4.6C9.34042 4.70266 9.43787 4.7827 9.55189 4.82998C9.66592 4.87727 9.7914 4.88967 9.91248 4.86564C10.0336 4.84161 10.1448 4.78221 10.2321 4.69496C10.3194 4.60771 10.3789 4.49652 10.403 4.37547C10.4272 4.25441 10.4149 4.12891 10.3677 4.01485C10.3205 3.90079 10.2405 3.80328 10.1379 3.73466C10.0353 3.66604 9.91466 3.62939 9.79122 3.62934H9.79097C9.6255 3.62941 9.46684 3.69516 9.34982 3.81213C9.23279 3.92911 9.16698 4.08775 9.16684 4.25321ZM4.9133 11.2633C4.40622 11.2402 4.1306 11.1558 3.94744 11.0844C3.70462 10.9899 3.53136 10.8773 3.3492 10.6954C3.16704 10.5135 3.05428 10.3404 2.96016 10.0976C2.88876 9.91448 2.8043 9.63878 2.78125 9.1317C2.75603 8.58347 2.751 8.41879 2.751 7.02986C2.751 5.64093 2.75645 5.4767 2.78125 4.92801C2.80434 4.42093 2.88943 4.14578 2.96016 3.96216C3.0547 3.71933 3.16729 3.54608 3.3492 3.36392C3.53111 3.18175 3.7042 3.069 3.94744 2.97488C4.13052 2.90348 4.40622 2.81901 4.9133 2.79596C5.46153 2.77075 5.62622 2.76571 7.01452 2.76571C8.40283 2.76571 8.56768 2.77108 9.11637 2.79605C9.62345 2.81914 9.89861 2.90423 10.0822 2.97496C10.3251 3.06908 10.4983 3.18209 10.6805 3.364C10.8626 3.54591 10.975 3.71942 11.0695 3.96224C11.1409 4.14532 11.2254 4.42102 11.2484 4.9281C11.2736 5.47679 11.2787 5.64102 11.2787 7.02994C11.2787 8.41887 11.2736 8.5831 11.2484 9.13179C11.2253 9.63887 11.1404 9.91448 11.0695 10.0976C10.975 10.3405 10.8624 10.5137 10.6805 10.6955C10.4986 10.8772 10.3251 10.99 10.0822 11.0845C9.89915 11.1559 9.62345 11.2404 9.11637 11.2634C8.56814 11.2886 8.40345 11.2937 7.01452 11.2937C5.62559 11.2937 5.46137 11.2886 4.9133 11.2634V11.2633ZM4.87024 1.86023C4.31655 1.88545 3.93821 1.97324 3.6078 2.10181C3.26582 2.23458 2.97593 2.41271 2.68646 2.70172C2.39699 2.99073 2.21932 3.28066 2.08655 3.62305C1.95798 3.95367 1.87019 4.33181 1.84497 4.88549C1.81934 5.44005 1.81348 5.61734 1.81348 7.02978C1.81348 8.44221 1.81934 8.61951 1.84497 9.17406C1.87019 9.72779 1.95798 10.1059 2.08655 10.4365C2.21932 10.7785 2.39703 11.0689 2.68646 11.3578C2.97589 11.6467 3.2654 11.8246 3.6078 11.9577C3.93883 12.0863 4.31655 12.1741 4.87024 12.1993C5.42508 12.2245 5.60208 12.2308 7.01452 12.2308C8.42696 12.2308 8.60425 12.2249 9.15881 12.1993C9.71253 12.1741 10.0906 12.0863 10.4212 11.9577C10.7632 11.8246 11.0531 11.6468 11.3426 11.3578C11.6321 11.0688 11.8093 10.7785 11.9425 10.4365C12.0711 10.1059 12.1593 9.72774 12.1841 9.17406C12.2093 8.61909 12.2152 8.44221 12.2152 7.02978C12.2152 5.61734 12.2093 5.44005 12.1841 4.88549C12.1589 4.33177 12.0711 3.95346 11.9425 3.62305C11.8093 3.28107 11.6316 2.99119 11.3426 2.70172C11.0536 2.41225 10.7632 2.23458 10.4217 2.10181C10.0906 1.97324 9.71249 1.88503 9.15923 1.86023C8.60459 1.83489 8.42738 1.82874 7.01515 1.82874C5.60292 1.82874 5.42529 1.8346 4.87044 1.86023" fill="white"/>
</svg>
