<svg width="14" height="14" viewBox="0 0 14 14" fill="none" xmlns="http://www.w3.org/2000/svg">
<path d="M6.99999 0C3.13398 0 0 3.13397 0 6.99997C0 10.866 3.13398 13.9999 6.99999 13.9999C10.866 13.9999 14 10.866 14 6.99997C14 3.13397 10.8659 0 6.99999 0ZM5.13238 10.3841H3.59546V5.4188H5.13238V10.3841ZM4.35659 4.76855C3.85465 4.76855 3.44774 4.35833 3.44774 3.85237C3.44774 3.34635 3.85471 2.93615 4.35659 2.93615C4.85848 2.93615 5.26539 3.34635 5.26539 3.85237C5.26542 4.35835 4.85851 4.76855 4.35659 4.76855ZM10.892 10.3841H9.36251V7.77775C9.36251 7.06289 9.09097 6.66385 8.52571 6.66385C7.91052 6.66385 7.58914 7.07945 7.58914 7.77775V10.3841H6.11506V5.4188H7.58914V6.08755C7.58914 6.08755 8.03255 5.26734 9.0854 5.26734C10.1383 5.26734 10.892 5.91023 10.892 7.24016L10.892 10.3841Z" fill="#163B7D"/>
</svg>
