<svg width="12" height="16" viewBox="0 0 12 16" fill="none" xmlns="http://www.w3.org/2000/svg">
<path d="M9.75 14.75H2.25C1.4175 14.75 0.75 14.075 0.75 13.25V7.25C0.75 6.4175 1.4175 5.75 2.25 5.75H9.75C10.575 5.75 11.25 6.4175 11.25 7.25V13.25C11.25 14.075 10.575 14.75 9.75 14.75Z" stroke="#163B7D" stroke-width="1.465" stroke-linecap="round" stroke-linejoin="round"/>
<path d="M9 5.75V4.25C9 2.5925 7.65 1.25 6 1.25C4.3425 1.25 3 2.5925 3 4.25V5.75" stroke="#163B7D" stroke-width="1.403" stroke-linecap="round" stroke-linejoin="round"/>
<path d="M5.99805 9.875C5.78805 9.875 5.62305 10.04 5.62305 10.25C5.62305 10.4525 5.78805 10.625 5.99805 10.625C6.20055 10.625 6.37305 10.4525 6.37305 10.25C6.37305 10.04 6.20055 9.875 5.99055 9.875" stroke="#163B7D" stroke-width="1.5" stroke-linecap="round" stroke-linejoin="round"/>
</svg>
