<svg width="17" height="16" viewBox="0 0 17 16" fill="none" xmlns="http://www.w3.org/2000/svg">
<path d="M7.97697 9.05289C6.91632 7.99278 6.1095 6.80582 5.58552 5.60074C5.46767 5.33798 5.53112 5.04804 5.73056 4.85142L6.46486 4.10844C7.07224 3.49231 7.07224 2.6406 6.53738 2.10602L5.46767 1.03685C4.7515 0.32105 3.60926 0.32105 2.90215 1.03685L2.30384 1.6258C1.62393 2.29629 1.35197 3.26579 1.53328 4.22623C1.97748 6.59108 3.35724 9.18608 5.57736 11.4051C7.79748 13.6159 10.3911 14.9931 12.7572 15.4461C13.7181 15.6274 14.679 15.3465 15.3589 14.676L15.9482 14.078C16.6553 13.3622 16.6553 12.2205 15.9482 11.5138L14.8785 10.451C14.3436 9.91637 13.4824 9.91637 12.9475 10.451L12.1226 11.2664C11.9231 11.4567 11.624 11.5292 11.3729 11.4114C10.1672 10.8768 8.97961 10.0795 7.91895 9.01936L7.97697 9.05289Z" fill="#1B3355" stroke="#1B3355" stroke-linecap="round" stroke-linejoin="round"/>
</svg>
