<svg width="71" height="83" viewBox="0 0 71 83" fill="none" xmlns="http://www.w3.org/2000/svg">
<path d="M38.2609 80.8797C43.9281 77.9734 49.3046 74.3406 53.9546 69.9813C54.9718 68.9641 56.1343 67.9469 57.0062 66.9297C57.4421 66.4938 57.8781 66.0578 58.314 65.4766C59.0406 64.75 59.4765 64.0234 60.2031 63.2969C60.9296 62.425 61.6562 61.5531 62.2375 60.5359C63.5453 58.5016 64.8531 56.4672 65.8703 54.2875C66.4515 53.125 67.0328 51.9625 67.4687 50.6547C68.6312 47.4578 69.5031 44.1156 69.939 40.7734C70.0843 39.9016 70.0843 38.8844 70.2296 38.0125C70.375 35.5422 70.375 33.2172 69.939 30.7469C68.7765 23.4813 65.8703 17.2328 60.9296 12.0016C59.0406 9.82188 56.7156 8.07813 54.3906 6.47969C49.8859 3.57344 44.9453 1.82969 39.5687 1.10312C38.9874 0.957812 38.2609 1.10313 37.6796 0.8125H33.0296C33.0296 0.957813 32.8843 0.957812 32.739 0.957812C31.5765 1.10312 30.414 1.24844 29.2515 1.39375C20.6781 2.99219 13.7031 7.20625 8.32651 14.0359C3.82183 19.5578 1.35151 26.0969 0.915576 33.2172C0.479639 38.3031 1.2062 43.3891 3.09526 48.475C3.38589 49.3469 3.82183 50.0734 4.11245 50.8C4.25776 50.9453 4.25776 51.2359 4.40308 51.3813C6.29214 55.0141 8.61714 58.3563 11.6687 61.1172C13.2671 62.5703 14.8656 63.8781 16.7546 65.0406C22.2765 68.5281 28.3796 70.4172 35.064 70.5625C35.5 70.5625 35.6453 70.7078 35.6453 71.1438V79.2813C35.4999 80.5891 36.9531 81.4609 38.2609 80.8797ZM38.6968 26.2422C38.5515 25.3703 38.8421 24.7891 39.5687 24.3531C39.8593 24.2078 40.15 24.0625 40.4406 24.0625C44.8 24.0625 49.014 24.0625 53.3734 24.0625C54.5359 24.0625 55.1171 25.0797 55.1171 26.3875C55.1171 26.9688 55.1171 36.7047 55.1171 41.6453C55.1171 46.0047 52.3562 50.0734 48.4328 51.8172C48.2875 51.8172 48.2875 51.9625 48.1421 51.9625C48.1421 52.1078 48.2875 52.1078 48.4328 52.1078C48.2875 52.1078 48.2875 52.1078 48.1421 51.9625H47.9968C47.9968 51.9625 47.9968 51.9625 47.8515 51.9625C46.9796 52.2531 46.1078 52.3984 45.2359 52.5438C44.6546 52.6891 44.2187 52.2531 44.2187 51.6719C44.2187 51.2359 44.2187 50.8 44.2187 50.2188C44.2187 49.3469 44.2187 48.6203 44.2187 47.7484C44.2187 47.6031 44.2187 47.3125 44.2187 47.1672C44.2187 46.5859 44.5093 46.2953 45.2359 46.0047C46.2531 45.7141 47.125 45.4234 47.9968 44.6969C48.8687 43.825 49.45 42.6625 49.5953 41.5C46.8343 41.5 44.2187 41.5 41.4578 41.5C41.1671 41.5 40.8765 41.5 40.5859 41.5C39.4234 41.5 38.6968 40.7734 38.6968 39.6109C38.6968 35.2516 38.6968 30.7469 38.6968 26.2422C38.6968 26.3875 38.6968 26.3875 38.6968 26.2422ZM32.3031 41.6453C32.3031 44.8422 30.9953 47.6031 28.6703 49.7828C28.525 49.9281 28.3796 50.0734 28.3796 50.0734C27.2171 50.9453 25.9093 51.8172 24.3109 52.1078C23.7296 52.2531 23.0031 52.3984 22.4218 52.5438C21.9859 52.6891 21.55 52.3984 21.4046 51.8172C21.4046 50.3641 21.4046 49.0563 21.4046 47.6031C21.4046 47.1672 21.2593 46.7313 21.55 46.4406C21.6953 46.2953 21.8406 46.15 22.1312 46.0047C22.8578 45.8594 23.5843 45.7141 24.3109 45.2781C25.4734 44.5516 26.3453 43.5344 26.6359 42.0813C26.6359 41.9359 26.7812 41.6453 26.7812 41.3547C23.875 41.3547 20.9687 41.3547 17.9171 41.3547C17.6265 41.3547 17.4812 41.3547 17.1906 41.2094C16.464 41.0641 15.8828 40.3375 15.8828 39.4656C15.8828 34.9609 15.8828 30.6016 15.8828 26.0969C15.8828 25.3703 15.8828 24.6438 16.464 24.2078C16.7546 23.9172 17.1906 23.7719 17.6265 23.7719C21.9859 23.7719 26.3453 23.7719 30.5593 23.7719C31.7218 23.7719 32.3031 24.0625 32.3031 26.0969C32.3031 26.6781 32.3031 36.7047 32.3031 41.6453Z" fill="#E1E6EE"/>
</svg>
