<svg width="133" height="124" viewBox="0 0 133 124" fill="none" xmlns="http://www.w3.org/2000/svg">
<path d="M11.0685 2.38645C11.3997 1.53795 12.6003 1.53795 12.9315 2.38645L14.8138 7.20855C14.956 7.57265 15.2972 7.82058 15.6874 7.84324L20.8552 8.1433C21.7645 8.1961 22.1355 9.338 21.4309 9.9152L17.4265 13.1955C17.1241 13.4432 16.9938 13.8443 17.0928 14.2224L18.4043 19.23C18.6351 20.1111 17.6638 20.8168 16.8971 20.3251L12.5399 17.5303C12.2109 17.3193 11.7891 17.3193 11.4601 17.5303L7.10293 20.3251C6.33624 20.8168 5.36488 20.1111 5.59566 19.23L6.90721 14.2224C7.00624 13.8443 6.8759 13.4432 6.57353 13.1955L2.56911 9.9152C1.86449 9.338 2.23551 8.1961 3.14483 8.1433L8.31258 7.84324C8.70279 7.82058 9.04403 7.57265 9.18616 7.20854L11.0685 2.38645Z" fill="#FFB800"/>
<path d="M35.0685 32.3864C35.3997 31.5379 36.6003 31.5379 36.9315 32.3864L38.8138 37.2085C38.956 37.5727 39.2972 37.8206 39.6874 37.8432L44.8552 38.1433C45.7645 38.1961 46.1355 39.338 45.4309 39.9152L41.4265 43.1955C41.1241 43.4432 40.9938 43.8443 41.0928 44.2224L42.4043 49.23C42.6351 50.1111 41.6638 50.8168 40.8971 50.3251L36.5399 47.5303C36.2109 47.3193 35.7891 47.3193 35.4601 47.5303L31.1029 50.3251C30.3362 50.8168 29.3649 50.1111 29.5957 49.23L30.9072 44.2224C31.0062 43.8443 30.8759 43.4432 30.5735 43.1955L26.5691 39.9152C25.8645 39.338 26.2355 38.1961 27.1448 38.1433L32.3126 37.8432C32.7028 37.8206 33.044 37.5727 33.1862 37.2085L35.0685 32.3864Z" fill="#FFB800"/>
<path d="M59.0685 64.3864C59.3997 63.5379 60.6003 63.5379 60.9315 64.3864L62.8138 69.2085C62.956 69.5727 63.2972 69.8206 63.6874 69.8432L68.8552 70.1433C69.7645 70.1961 70.1355 71.338 69.4309 71.9152L65.4265 75.1955C65.1241 75.4432 64.9938 75.8443 65.0928 76.2224L66.4043 81.23C66.6351 82.1111 65.6638 82.8168 64.8971 82.3251L60.5399 79.5303C60.2109 79.3193 59.7891 79.3193 59.4601 79.5303L55.1029 82.3251C54.3362 82.8168 53.3649 82.1111 53.5957 81.23L54.9072 76.2224C55.0062 75.8443 54.8759 75.4432 54.5735 75.1955L50.5691 71.9152C49.8645 71.338 50.2355 70.1961 51.1448 70.1433L56.3126 69.8432C56.7028 69.8206 57.044 69.5727 57.1862 69.2085L59.0685 64.3864Z" fill="#FFB800"/>
<path d="M35.0685 64.3864C35.3997 63.5379 36.6003 63.5379 36.9315 64.3864L38.8138 69.2085C38.956 69.5727 39.2972 69.8206 39.6874 69.8432L44.8552 70.1433C45.7645 70.1961 46.1355 71.338 45.4309 71.9152L41.4265 75.1955C41.1241 75.4432 40.9938 75.8443 41.0928 76.2224L42.4043 81.23C42.6351 82.1111 41.6638 82.8168 40.8971 82.3251L36.5399 79.5303C36.2109 79.3193 35.7891 79.3193 35.4601 79.5303L31.1029 82.3251C30.3362 82.8168 29.3649 82.1111 29.5957 81.23L30.9072 76.2224C31.0062 75.8443 30.8759 75.4432 30.5735 75.1955L26.5691 71.9152C25.8645 71.338 26.2355 70.1961 27.1448 70.1433L32.3126 69.8432C32.7028 69.8206 33.044 69.5727 33.1862 69.2085L35.0685 64.3864Z" fill="#FFB800"/>
<path d="M59.0685 32.3864C59.3997 31.5379 60.6003 31.5379 60.9315 32.3864L62.8138 37.2085C62.956 37.5727 63.2972 37.8206 63.6874 37.8432L68.8552 38.1433C69.7645 38.1961 70.1355 39.338 69.4309 39.9152L65.4265 43.1955C65.1241 43.4432 64.9938 43.8443 65.0928 44.2224L66.4043 49.23C66.6351 50.1111 65.6638 50.8168 64.8971 50.3251L60.5399 47.5303C60.2109 47.3193 59.7891 47.3193 59.4601 47.5303L55.1029 50.3251C54.3362 50.8168 53.3649 50.1111 53.5957 49.23L54.9072 44.2224C55.0062 43.8443 54.8759 43.4432 54.5735 43.1955L50.5691 39.9152C49.8645 39.338 50.2355 38.1961 51.1448 38.1433L56.3126 37.8432C56.7028 37.8206 57.044 37.5727 57.1862 37.2085L59.0685 32.3864Z" fill="#FFB800"/>
<path d="M83.0685 32.3864C83.3997 31.5379 84.6003 31.5379 84.9315 32.3864L86.8138 37.2085C86.956 37.5727 87.2972 37.8206 87.6874 37.8432L92.8552 38.1433C93.7645 38.1961 94.1355 39.338 93.4309 39.9152L89.4265 43.1955C89.1241 43.4432 88.9938 43.8443 89.0928 44.2224L90.4043 49.23C90.6351 50.1111 89.6638 50.8168 88.8971 50.3251L84.5399 47.5303C84.2109 47.3193 83.7891 47.3193 83.4601 47.5303L79.1029 50.3251C78.3362 50.8168 77.3649 50.1111 77.5957 49.23L78.9072 44.2224C79.0062 43.8443 78.8759 43.4432 78.5735 43.1955L74.5691 39.9152C73.8645 39.338 74.2355 38.1961 75.1448 38.1433L80.3126 37.8432C80.7028 37.8206 81.044 37.5727 81.1862 37.2085L83.0685 32.3864Z" fill="#FFB800"/>
<path d="M11.0685 32.3864C11.3997 31.5379 12.6003 31.5379 12.9315 32.3864L14.8138 37.2085C14.956 37.5727 15.2972 37.8206 15.6874 37.8432L20.8552 38.1433C21.7645 38.1961 22.1355 39.338 21.4309 39.9152L17.4265 43.1955C17.1241 43.4432 16.9938 43.8443 17.0928 44.2224L18.4043 49.23C18.6351 50.1111 17.6638 50.8168 16.8971 50.3251L12.5399 47.5303C12.2109 47.3193 11.7891 47.3193 11.4601 47.5303L7.10293 50.3251C6.33624 50.8168 5.36488 50.1111 5.59566 49.23L6.90721 44.2224C7.00624 43.8443 6.8759 43.4432 6.57353 43.1955L2.56911 39.9152C1.86449 39.338 2.23551 38.1961 3.14483 38.1433L8.31258 37.8432C8.70279 37.8206 9.04403 37.5727 9.18616 37.2085L11.0685 32.3864Z" fill="#FFB800"/>
<path d="M11.0685 64.3864C11.3997 63.5379 12.6003 63.5379 12.9315 64.3864L14.8138 69.2085C14.956 69.5727 15.2972 69.8206 15.6874 69.8432L20.8552 70.1433C21.7645 70.1961 22.1355 71.338 21.4309 71.9152L17.4265 75.1955C17.1241 75.4432 16.9938 75.8443 17.0928 76.2224L18.4043 81.23C18.6351 82.1111 17.6638 82.8168 16.8971 82.3251L12.5399 79.5303C12.2109 79.3193 11.7891 79.3193 11.4601 79.5303L7.10293 82.3251C6.33624 82.8168 5.36488 82.1111 5.59566 81.23L6.90721 76.2224C7.00624 75.8443 6.8759 75.4432 6.57353 75.1955L2.56911 71.9152C1.86449 71.338 2.23551 70.1961 3.14483 70.1433L8.31258 69.8432C8.70279 69.8206 9.04403 69.5727 9.18616 69.2085L11.0685 64.3864Z" fill="#FFB800"/>
<path d="M11.0685 94.3864C11.3997 93.5379 12.6003 93.5379 12.9315 94.3864L14.8138 99.2085C14.956 99.5727 15.2972 99.8206 15.6874 99.8432L20.8552 100.143C21.7645 100.196 22.1355 101.338 21.4309 101.915L17.4265 105.195C17.1241 105.443 16.9938 105.844 17.0928 106.222L18.4043 111.23C18.6351 112.111 17.6638 112.817 16.8971 112.325L12.5399 109.53C12.2109 109.319 11.7891 109.319 11.4601 109.53L7.10293 112.325C6.33624 112.817 5.36488 112.111 5.59566 111.23L6.90721 106.222C7.00624 105.844 6.8759 105.443 6.57353 105.195L2.56911 101.915C1.86449 101.338 2.23551 100.196 3.14483 100.143L8.31258 99.8432C8.70279 99.8206 9.04403 99.5727 9.18616 99.2085L11.0685 94.3864Z" fill="#FFB800"/>
<path d="M35.0685 94.3864C35.3997 93.5379 36.6003 93.5379 36.9315 94.3864L38.8138 99.2085C38.956 99.5727 39.2972 99.8206 39.6874 99.8432L44.8552 100.143C45.7645 100.196 46.1355 101.338 45.4309 101.915L41.4265 105.195C41.1241 105.443 40.9938 105.844 41.0928 106.222L42.4043 111.23C42.6351 112.111 41.6638 112.817 40.8971 112.325L36.5399 109.53C36.2109 109.319 35.7891 109.319 35.4601 109.53L31.1029 112.325C30.3362 112.817 29.3649 112.111 29.5957 111.23L30.9072 106.222C31.0062 105.844 30.8759 105.443 30.5735 105.195L26.5691 101.915C25.8645 101.338 26.2355 100.196 27.1448 100.143L32.3126 99.8432C32.7028 99.8206 33.044 99.5727 33.1862 99.2085L35.0685 94.3864Z" fill="#FFB800"/>
<path d="M35.0685 2.38645C35.3997 1.53795 36.6003 1.53795 36.9315 2.38645L38.8138 7.20855C38.956 7.57265 39.2972 7.82058 39.6874 7.84324L44.8552 8.1433C45.7645 8.1961 46.1355 9.338 45.4309 9.9152L41.4265 13.1955C41.1241 13.4432 40.9938 13.8443 41.0928 14.2224L42.4043 19.23C42.6351 20.1111 41.6638 20.8168 40.8971 20.3251L36.5399 17.5303C36.2109 17.3193 35.7891 17.3193 35.4601 17.5303L31.1029 20.3251C30.3362 20.8168 29.3649 20.1111 29.5957 19.23L30.9072 14.2224C31.0062 13.8443 30.8759 13.4432 30.5735 13.1955L26.5691 9.9152C25.8645 9.338 26.2355 8.1961 27.1448 8.1433L32.3126 7.84324C32.7028 7.82058 33.044 7.57265 33.1862 7.20854L35.0685 2.38645Z" fill="#FFB800"/>
<path d="M59.0685 2.38645C59.3997 1.53795 60.6003 1.53795 60.9315 2.38645L62.8138 7.20855C62.956 7.57265 63.2972 7.82058 63.6874 7.84324L68.8552 8.1433C69.7645 8.1961 70.1355 9.338 69.4309 9.9152L65.4265 13.1955C65.1241 13.4432 64.9938 13.8443 65.0928 14.2224L66.4043 19.23C66.6351 20.1111 65.6638 20.8168 64.8971 20.3251L60.5399 17.5303C60.2109 17.3193 59.7891 17.3193 59.4601 17.5303L55.1029 20.3251C54.3362 20.8168 53.3649 20.1111 53.5957 19.23L54.9072 14.2224C55.0062 13.8443 54.8759 13.4432 54.5735 13.1955L50.5691 9.9152C49.8645 9.338 50.2355 8.1961 51.1448 8.1433L56.3126 7.84324C56.7028 7.82058 57.044 7.57265 57.1862 7.20854L59.0685 2.38645Z" fill="#FFB800"/>
<path d="M83.0685 2.38645C83.3997 1.53795 84.6003 1.53795 84.9315 2.38645L86.8138 7.20855C86.956 7.57265 87.2972 7.82058 87.6874 7.84324L92.8552 8.1433C93.7645 8.1961 94.1355 9.338 93.4309 9.9152L89.4265 13.1955C89.1241 13.4432 88.9938 13.8443 89.0928 14.2224L90.4043 19.23C90.6351 20.1111 89.6638 20.8168 88.8971 20.3251L84.5399 17.5303C84.2109 17.3193 83.7891 17.3193 83.4601 17.5303L79.1029 20.3251C78.3362 20.8168 77.3649 20.1111 77.5957 19.23L78.9072 14.2224C79.0062 13.8443 78.8759 13.4432 78.5735 13.1955L74.5691 9.9152C73.8645 9.338 74.2355 8.1961 75.1448 8.1433L80.3126 7.84324C80.7028 7.82058 81.044 7.57265 81.1862 7.20854L83.0685 2.38645Z" fill="#FFB800"/>
<path d="M107.068 2.38645C107.4 1.53795 108.6 1.53795 108.932 2.38645L110.814 7.20855C110.956 7.57265 111.297 7.82058 111.687 7.84324L116.855 8.1433C117.764 8.1961 118.136 9.338 117.431 9.9152L113.426 13.1955C113.124 13.4432 112.994 13.8443 113.093 14.2224L114.404 19.23C114.635 20.1111 113.664 20.8168 112.897 20.3251L108.54 17.5303C108.211 17.3193 107.789 17.3193 107.46 17.5303L103.103 20.3251C102.336 20.8168 101.365 20.1111 101.596 19.23L102.907 14.2224C103.006 13.8443 102.876 13.4432 102.574 13.1955L98.5691 9.9152C97.8645 9.338 98.2355 8.1961 99.1448 8.1433L104.313 7.84324C104.703 7.82058 105.044 7.57265 105.186 7.20854L107.068 2.38645Z" fill="#FFB800"/>
</svg>
