<svg width="22" height="20" viewBox="0 0 22 20" fill="none" xmlns="http://www.w3.org/2000/svg">
<path d="M7.9197 15.5011C8.6997 16.2811 8.6997 17.5411 7.9197 18.3211C7.1297 19.1011 5.8697 19.1011 5.0897 18.3211C4.2997 17.5311 4.2997 16.2711 5.0887 15.4911C5.8687 14.7011 7.1287 14.7011 7.9087 15.4911" stroke="#163B7D" stroke-width="1.5" stroke-linecap="round" stroke-linejoin="round"/>
<path d="M16.9 15.5011C17.68 16.2811 17.68 17.5411 16.9 18.3211C16.11 19.1011 14.85 19.1011 14.07 18.3211C13.28 17.5311 13.28 16.2711 14.07 15.4911C14.85 14.7011 16.11 14.7011 16.89 15.4911" stroke="#163B7D" stroke-width="1.5" stroke-linecap="round" stroke-linejoin="round"/>
<path d="M5.13991 6.95113C5.91991 7.73113 5.91991 8.99113 5.13991 9.77113C4.34991 10.5511 3.08991 10.5511 2.30991 9.77113C1.51991 8.98113 1.51991 7.72113 2.30891 6.94113C3.08891 6.15113 4.34891 6.15113 5.12891 6.94113" stroke="#163B7D" stroke-width="1.5" stroke-linecap="round" stroke-linejoin="round"/>
<path d="M12.4098 1.67111C13.1898 2.45111 13.1898 3.71111 12.4098 4.49111C11.6198 5.27111 10.3598 5.27111 9.5798 4.49111C8.7898 3.70111 8.7898 2.44111 9.5798 1.66111C10.3598 0.871107 11.6198 0.871106 12.3998 1.66011" stroke="#163B7D" stroke-width="1.5" stroke-linecap="round" stroke-linejoin="round"/>
<path d="M19.6798 6.95113C20.4598 7.73113 20.4598 8.99113 19.6798 9.77113C18.8898 10.5511 17.6298 10.5511 16.8498 9.77113C16.0598 8.98113 16.0598 7.72113 16.8498 6.94113C17.6298 6.15113 18.8898 6.15113 19.6698 6.94113" stroke="#163B7D" stroke-width="1.5" stroke-linecap="round" stroke-linejoin="round"/>
<path d="M12.4098 9.02108C13.1898 9.80108 13.1898 11.0611 12.4098 11.8411C11.6198 12.6211 10.3598 12.6211 9.5798 11.8411C8.7898 11.0511 8.7898 9.79108 9.5798 9.01108C10.3598 8.22108 11.6198 8.22108 12.3998 9.01108" stroke="#163B7D" stroke-width="1.5" stroke-linecap="round" stroke-linejoin="round"/>
<path d="M12.1401 12.0811L14.3501 15.2811" stroke="#163B7D" stroke-width="1.5" stroke-linecap="round" stroke-linejoin="round"/>
<path d="M9.8599 12.0811L7.6499 15.2711" stroke="#163B7D" stroke-width="1.5" stroke-linecap="round" stroke-linejoin="round"/>
<path d="M9.09014 9.90113L5.64014 8.91113" stroke="#163B7D" stroke-width="1.5" stroke-linecap="round" stroke-linejoin="round"/>
<path d="M11 8.44106V5.09106" stroke="#163B7D" stroke-width="1.5" stroke-linecap="round" stroke-linejoin="round"/>
<path d="M12.9097 9.90113L16.3597 8.91113" stroke="#163B7D" stroke-width="1.5" stroke-linecap="round" stroke-linejoin="round"/>
</svg>
