<svg width="267" height="56" viewBox="0 0 267 56" fill="none" xmlns="http://www.w3.org/2000/svg">
<path d="M259.976 15.3179L256.728 15.951C255.984 16.0886 255.448 16.7492 255.448 17.5061V20.2174C255.448 20.2999 255.379 20.3825 255.282 20.3825H253.067C252.723 20.3825 252.434 20.6715 252.434 21.0156V24.3324C252.434 24.5113 252.571 24.6489 252.75 24.6489H255.282C255.365 24.6489 255.448 24.7177 255.448 24.8141V36.5811C255.379 39.3061 257.526 41.5769 260.265 41.6595C260.333 41.6595 260.402 41.6595 260.471 41.6595H262.645C263.251 41.6595 263.76 41.2328 263.884 40.641L264.545 37.4481C264.586 37.283 264.476 37.1041 264.297 37.0765C264.269 37.0765 264.256 37.0765 264.228 37.0765H262.797C260.664 37.0765 260.361 36.3884 260.361 34.8608V24.8278C260.361 24.7452 260.43 24.6764 260.526 24.6627H263.375C264.118 24.6627 264.765 24.1535 264.93 23.424L265.522 20.7816C265.563 20.6165 265.453 20.4376 265.274 20.41C265.247 20.41 265.219 20.3963 265.205 20.3963H260.512C260.43 20.3963 260.361 20.3275 260.347 20.2311V15.6482C260.347 15.4693 260.196 15.3316 260.031 15.3316C259.989 15.3179 259.976 15.3179 259.976 15.3179Z" fill="white"/>
<path d="M140.035 41.6046H143.668C144.012 41.6046 144.301 41.3156 144.301 40.9715V12.4279C144.301 12.249 144.163 12.1113 143.984 12.1113C143.957 12.1113 143.943 12.1113 143.916 12.1113L140.668 12.7444C139.924 12.882 139.388 13.5426 139.388 14.2996V40.9715C139.401 41.3293 139.677 41.6046 140.035 41.6046Z" fill="white"/>
<path d="M84.7637 15.0425L85.3555 12.4001C85.3968 12.2349 85.2867 12.056 85.1216 12.0147C85.094 12.0147 85.0665 12.001 85.039 12.001H64.7805C63.8996 12.001 63.1978 12.7166 63.1978 13.5837V15.6343C63.1978 15.9784 63.4868 16.2674 63.8308 16.2674H69.969C70.0515 16.2674 70.1341 16.3362 70.1341 16.4325V40.9575C70.1341 41.3015 70.4231 41.5906 70.7672 41.5906H73.4509C74.3317 41.5906 75.0336 40.8749 75.0336 40.0079V16.4601C75.0336 16.3775 75.1024 16.2949 75.1987 16.2949H83.2223C83.9655 16.2949 84.6124 15.7719 84.7637 15.0425Z" fill="white"/>
<path d="M149.723 12.0423C149.379 12.0423 149.09 12.3313 149.09 12.6753V40.985C149.09 41.3291 149.379 41.6181 149.723 41.6181H168.179C168.523 41.6181 168.812 41.3291 168.812 40.985V38.9344C168.812 38.0536 168.096 37.3517 167.229 37.3517H154.155C154.072 37.3517 153.99 37.2829 153.99 37.1865V27.5252C153.99 27.4426 154.059 27.36 154.155 27.36H160.582C161.325 27.36 161.972 26.8371 162.124 26.1214L162.715 23.479C162.757 23.3138 162.646 23.1349 162.481 23.0936C162.454 23.0936 162.426 23.0799 162.399 23.0799H154.155C154.072 23.0799 153.99 23.0111 153.99 22.9147V16.4325C153.99 16.35 154.059 16.2674 154.155 16.2674H166.596C167.34 16.2674 167.986 15.7582 168.138 15.0287L168.73 12.3863C168.771 12.2212 168.661 12.0423 168.482 12.0147C168.454 12.0147 168.427 12.001 168.413 12.001L149.723 12.0423Z" fill="white"/>
<path d="M220.298 31.929H233.565C233.909 31.929 234.198 31.64 234.198 31.2959V28.5434C234.198 23.6439 230.221 19.6665 225.321 19.6665H224.179C219.28 19.6665 215.302 23.6439 215.302 28.5434V31.929C215.454 33.4566 215.729 35.3559 216.169 36.3743C216.816 38.0809 218 39.5397 219.527 40.5168C221.069 41.5077 222.927 42.0032 225.129 41.9894C226.794 42.017 228.459 41.6729 229.973 40.971C231.088 40.4618 232.093 39.7186 232.905 38.7965C233.015 38.6589 233.001 38.4662 232.877 38.3423C232.877 38.3423 232.877 38.3423 232.863 38.3423L229.946 35.9477C229.808 35.8376 229.615 35.8513 229.505 35.9889C228.473 37.1588 226.973 37.8056 225.418 37.7643C222.789 37.7368 221.138 36.7046 220.463 34.6815C220.298 34.3374 220.16 33.0713 220.078 32.1492C220.064 32.0528 220.133 31.9565 220.229 31.9427C220.257 31.929 220.284 31.929 220.298 31.929ZM220.243 28.2681C220.229 26.1212 221.784 24.2907 223.904 23.9604C226.753 23.5338 229.23 25.3092 229.23 28.0892V28.3094H220.243V28.2681Z" fill="white"/>
<path d="M184.46 21.1117L181.212 25.8736C181.116 26.025 180.91 26.0525 180.772 25.9562C180.744 25.9287 180.717 25.9011 180.689 25.8736L176.877 20.2998C176.753 20.1208 176.561 20.0245 176.354 20.0245H171.358C171.179 20.0245 171.042 20.1621 171.042 20.341C171.042 20.4099 171.056 20.4649 171.097 20.52L178.019 30.6355C178.088 30.7456 178.088 30.8832 178.019 30.9933L171.083 41.1226C170.987 41.2602 171.014 41.4666 171.166 41.563C171.221 41.6043 171.289 41.618 171.345 41.618H175.349C176.189 41.618 176.973 41.2051 177.441 40.517L180.689 35.7552C180.786 35.6038 180.992 35.5762 181.13 35.6726C181.157 35.7001 181.185 35.7276 181.212 35.7552L185.025 41.329C185.148 41.5079 185.341 41.6043 185.548 41.6043H190.557C190.736 41.6043 190.874 41.4666 190.874 41.2877C190.874 41.2189 190.86 41.1639 190.819 41.1088L183.896 30.9933C183.827 30.8832 183.827 30.7456 183.896 30.6355L190.819 20.5062C190.915 20.3548 190.874 20.1621 190.736 20.0658C190.681 20.0245 190.626 20.0107 190.557 20.0107H186.552C185.713 20.0107 184.928 20.4236 184.46 21.1117Z" fill="white"/>
<path d="M242.745 21.7584V20.6299C242.745 20.2858 242.456 19.9968 242.112 19.9968H238.478C238.134 19.9968 237.845 20.2858 237.845 20.6299V41.0123C237.845 41.3564 238.134 41.6454 238.478 41.6454H242.112C242.456 41.6454 242.745 41.3564 242.745 41.0123V30.8417C242.745 27.6075 243.199 26.2313 245.098 25.3229C246.626 24.5935 248.415 24.8963 249.089 25.0477C249.254 25.089 249.406 24.9926 249.461 24.8412L250.163 22.8044L250.892 20.7675C250.947 20.6161 250.878 20.4372 250.727 20.3684C248.387 19.35 245.649 19.4601 242.745 21.7584Z" fill="white"/>
<path d="M134.598 26.4792C134.543 25.2956 134.171 24.1395 133.511 23.1624C132.726 22.0339 131.639 21.1531 130.387 20.6025C128.914 19.9557 127.304 19.6392 125.694 19.6667C123.244 19.6667 121.207 20.2172 119.583 21.3182C119.239 21.5522 118.909 21.8137 118.606 22.1027C118.482 22.2265 118.482 22.433 118.606 22.5568C118.62 22.5706 118.62 22.5706 118.633 22.5844L121.923 25.2818C122.06 25.3919 122.253 25.3644 122.363 25.2405C122.363 25.2405 122.363 25.2405 122.377 25.2268C122.611 24.924 122.9 24.6763 123.23 24.4836C124.028 24.0707 124.923 23.878 125.831 23.9193C127.125 23.9193 128.102 24.2221 128.749 24.8277C129.423 25.3782 129.781 26.2039 129.726 27.071V28.1444C129.726 28.227 129.657 28.3096 129.561 28.3096H124.964C124.758 28.3096 124.565 28.3096 124.372 28.3096C121.868 28.3922 119.9 28.9977 118.482 30.14C116.941 31.3649 116.17 33.4018 116.17 35.59C116.17 37.7095 116.858 39.2922 118.221 40.3656C119.583 41.4391 121.331 41.9759 123.437 41.9759C126.065 41.9759 128.198 41.2052 129.699 39.4435V40.9987C129.699 41.3428 129.988 41.6318 130.332 41.6318H133.965C134.309 41.6318 134.598 41.3428 134.598 40.9987V26.4792ZM129.699 33.8559C129.712 35.067 129.162 36.2093 128.226 36.9663C127.235 37.6957 125.735 38.0673 124.359 38.0673C123.45 38.1086 122.542 37.8471 121.799 37.3241C121.138 36.8286 120.808 35.824 120.808 34.9156C120.767 33.9385 121.262 33.0164 122.102 32.5072C122.969 31.9429 124.138 31.6677 125.639 31.6677H129.712L129.699 33.8559Z" fill="white"/>
<path d="M98.6365 25.7776C97.4529 21.8415 93.7783 19.199 89.6771 19.3367C87.654 19.2954 85.6721 19.8872 84.0069 21.0432C82.3554 22.2131 81.1442 23.9059 80.5662 25.8464C80.0983 27.4428 79.8781 29.1081 79.9056 30.7734C79.8919 32.4387 80.112 34.0902 80.58 35.6866C81.1442 37.6409 82.3416 39.3475 83.9793 40.5448C85.6446 41.7284 87.6402 42.3477 89.6908 42.3064C91.7139 42.3477 93.682 41.7147 95.306 40.5173C96.0904 39.9393 96.7786 39.2236 97.3291 38.4254C97.9071 37.5859 98.3475 36.6638 98.664 35.7004C99.1457 34.1039 99.3797 32.4387 99.3522 30.7596C99.3934 29.0668 99.1457 27.3878 98.6365 25.7776ZM93.9985 34.1865C93.7233 35.1361 93.159 35.9757 92.3745 36.5812C91.5901 37.1455 90.6542 37.4345 89.6908 37.3932C88.6861 37.4345 87.6952 37.1455 86.8557 36.5674C86.085 35.9894 85.5208 35.1637 85.273 34.2416C84.9427 33.113 84.7913 31.9432 84.8051 30.7734C84.7776 29.6036 84.929 28.4475 85.2455 27.319C85.507 26.3969 86.0575 25.5987 86.8282 25.0482C87.6677 24.4839 88.6586 24.2086 89.6633 24.2362C90.6404 24.1949 91.6038 24.4701 92.4158 25.0206C93.1865 25.5987 93.737 26.4106 93.9985 27.3327C94.3288 28.4338 94.4802 29.576 94.4527 30.7321C94.4802 31.9019 94.3288 33.0717 93.9985 34.1865Z" fill="white"/>
<path d="M212.013 26.259C211.559 24.6213 210.692 23.1074 209.522 21.8825C207.939 20.2035 205.723 19.2676 203.425 19.3089C201.622 19.2814 199.874 19.9145 198.525 21.1118V20.6439C198.525 20.2998 198.236 20.0108 197.892 20.0108H194.259C193.915 20.0108 193.626 20.2998 193.626 20.6439V48.2792C193.626 48.4581 193.764 48.5957 193.943 48.5957C193.97 48.5957 193.984 48.5957 194.011 48.5957L197.259 47.9627C198.002 47.825 198.539 47.1644 198.539 46.4075V40.5309C199.888 41.7007 201.608 42.3338 203.397 42.2925C205.806 42.2925 207.843 41.4805 209.425 39.8978C209.618 39.7051 209.811 39.4987 209.99 39.2922C210.031 39.2372 210.072 39.1959 210.114 39.1408C210.182 39.0583 210.251 38.9757 210.32 38.8931L210.471 38.6867L210.65 38.4252C210.692 38.3701 210.733 38.3151 210.76 38.26C211.311 37.3792 211.738 36.4296 212.027 35.4387C212.439 33.9386 212.646 32.3972 212.618 30.842C212.618 29.2868 212.426 27.7454 212.013 26.259ZM206.219 35.9479C205.503 37.1177 204.209 37.7921 202.833 37.7233C201.512 37.7508 200.273 37.0352 199.668 35.8653C198.966 34.7093 198.608 33.0165 198.608 30.7869C198.608 28.6124 198.938 26.9885 199.585 25.8874C200.315 24.5387 201.416 23.8506 202.888 23.8506C204.388 23.7818 205.792 24.5938 206.48 25.9287C207.155 27.1123 207.499 28.7363 207.499 30.7869C207.485 32.9339 207.058 34.6542 206.219 35.9479Z" fill="white"/>
<path d="M108.614 15.2627L105.366 15.8958C104.623 16.0334 104.086 16.694 104.086 17.4509V20.1622C104.086 20.2448 104.017 20.3273 103.921 20.3273H101.705C101.361 20.3273 101.072 20.6163 101.072 20.9604V24.2772C101.072 24.4561 101.21 24.5937 101.389 24.5937H103.921C104.004 24.5937 104.086 24.6625 104.086 24.7589V36.5259C104.017 39.2509 106.164 41.5217 108.903 41.6043C108.972 41.6043 109.041 41.6043 109.11 41.6043H111.284C111.89 41.6043 112.399 41.1777 112.523 40.5859L113.183 37.3929C113.225 37.2278 113.115 37.0489 112.936 37.0214C112.908 37.0214 112.894 37.0214 112.867 37.0214H111.435C109.302 37.0214 109 36.3332 109 34.8056V24.7726C109 24.6901 109.068 24.6213 109.165 24.6075H112.014C112.757 24.6075 113.404 24.0983 113.569 23.3689L114.16 20.7264C114.202 20.5613 114.092 20.3824 113.913 20.3549C113.885 20.3549 113.858 20.3411 113.844 20.3411H109.151C109.068 20.3411 109 20.2723 108.986 20.1759V15.593C108.986 15.4141 108.834 15.2765 108.669 15.2765C108.628 15.2627 108.614 15.2627 108.614 15.2627Z" fill="white"/>
<path d="M14.492 29.3417L26.6857 41.5354C26.8095 41.6592 26.8921 41.8381 26.8921 42.017V55.9998C25.8186 55.7796 24.8002 55.2567 23.9744 54.4309L1.54141 32.0116C0.729418 31.1996 0.206439 30.195 0 29.1353H14.0103C14.1892 29.1353 14.3681 29.2041 14.492 29.3417Z" fill="white"/>
<path d="M26.8921 0V13.9828C26.8921 14.1617 26.8233 14.3406 26.6857 14.4645L14.5058 26.6444C14.3819 26.7682 14.203 26.8508 14.0241 26.8508H0C0.220202 25.8049 0.729418 24.8002 1.54141 23.9882L23.9607 1.56894C24.7864 0.74318 25.8186 0.220202 26.8921 0Z" fill="white"/>
<path d="M32.0944 1.56894L54.4586 23.9332C55.2844 24.7589 55.8074 25.7773 56.0276 26.8508H42.0448C41.8659 26.8508 41.687 26.782 41.5631 26.6444L29.3832 14.4645C29.2593 14.3406 29.1768 14.1617 29.1768 13.9828V0C30.2365 0.220202 31.2549 0.74318 32.0944 1.56894Z" fill="white"/>
<path d="M56.0276 29.1353C55.8074 30.2087 55.2844 31.2272 54.4586 32.0667L32.0944 54.4309C31.2687 55.2567 30.2365 55.7796 29.1768 55.9998V42.017C29.1768 41.8381 29.2456 41.6592 29.3832 41.5354L41.5769 29.3417C41.7007 29.2178 41.8796 29.1353 42.0585 29.1353H56.0276Z" fill="white"/>
<path d="M263.76 15.3864C263.76 14.4092 264.476 13.7349 265.357 13.7349C266.238 13.7349 266.953 14.4092 266.953 15.3864C266.953 16.3498 266.238 17.0241 265.357 17.0241C264.476 17.0379 263.76 16.3635 263.76 15.3864ZM266.554 15.3864C266.554 14.6157 266.045 14.0789 265.343 14.0789C264.655 14.0789 264.132 14.6019 264.132 15.3864C264.132 16.1571 264.641 16.6801 265.343 16.6801C266.045 16.6801 266.554 16.1571 266.554 15.3864ZM264.71 14.5469H265.398C265.756 14.5469 266.059 14.6982 266.059 15.0836C266.059 15.2763 265.949 15.4552 265.756 15.5378L266.114 16.1846H265.673L265.398 15.6479H265.123V16.1846H264.71V14.5469ZM265.315 15.3589C265.508 15.3589 265.618 15.2625 265.618 15.1111C265.618 14.9735 265.522 14.8634 265.315 14.8634H265.123V15.3589H265.315Z" fill="white"/>
</svg>
