<svg width="14" height="12" viewBox="0 0 14 12" fill="none" xmlns="http://www.w3.org/2000/svg">
<path d="M4.86742 11.25C9.92829 11.25 12.6959 7.03191 12.6959 3.37416C12.6959 3.25437 12.6935 3.13513 12.6881 3.01638C13.2266 2.62437 13.6914 2.13899 14.0606 1.58301C13.5676 1.80351 13.0371 1.95192 12.4805 2.01883C13.0486 1.67615 13.4847 1.13402 13.6904 0.487813C13.1503 0.81015 12.5595 1.03738 11.9433 1.15971C11.4412 0.621666 10.7264 0.285156 9.93491 0.285156C8.41547 0.285156 7.18333 1.52478 7.18333 3.05281C7.18333 3.27005 7.2075 3.48129 7.25471 3.68397C4.96795 3.56821 2.94021 2.46674 1.58314 0.791895C1.33872 1.21432 1.21016 1.69442 1.21059 2.18316C1.21059 3.14352 1.69632 3.99129 2.43499 4.48728C1.99806 4.47386 1.57071 4.35512 1.18889 4.14107C1.18848 4.15269 1.18848 4.16401 1.18848 4.17643C1.18848 5.51696 2.13688 6.63622 3.39585 6.88984C3.1594 6.95462 2.9154 6.98738 2.67033 6.98723C2.49335 6.98723 2.32087 6.96972 2.15323 6.93734C2.50352 8.03717 3.51924 8.83752 4.7235 8.85988C3.78179 9.60245 2.59551 10.0447 1.30621 10.0447C1.08688 10.0449 0.867732 10.0321 0.649902 10.0064C1.8676 10.7916 3.3135 11.2498 4.86756 11.2498" fill="#163B7D"/>
</svg>
