<svg width="140" height="36" viewBox="0 0 140 36" fill="none" xmlns="http://www.w3.org/2000/svg">
<path d="M35.3811 35.7624C35.3811 35.8936 35.2765 36 35.1475 36H0.233334C0.104438 36 0 35.8936 0 35.7624V0.23761C0 0.106441 0.104438 0 0.233334 0H35.1475C35.2765 0 35.3811 0.106441 35.3811 0.23761V35.7624Z" fill="white"/>
<path d="M17.6884 12.1952V6.92695L8.69824 12.2498V29.0566H13.1421V24.6708L17.6884 21.9791V16.711L13.1421 19.4027V14.8868L17.6884 12.1952Z" fill="#1C3155"/>
<path d="M17.6887 12.1956V6.92742L26.679 12.2502V29.0571H22.2351V24.6713L17.6887 21.9794V16.7113L22.2351 19.4031V14.8873L17.6887 12.1956Z" fill="#1C3155"/>
<path d="M43.9141 10.2086C43.9141 10.1261 43.9792 10.0509 44.0698 10.0509H47.4514C47.5412 10.0509 47.6064 10.1261 47.6064 10.2086V11.1149C47.6064 11.198 47.5412 11.2724 47.4514 11.2724H45.1887V12.4698H47.0509C47.1327 12.4698 47.2068 12.5448 47.2068 12.6275V13.5336C47.2068 13.6167 47.1327 13.6913 47.0509 13.6913H45.1887V15.7115C45.1887 15.794 45.1155 15.8691 45.0335 15.8691H44.0698C43.9792 15.8691 43.9141 15.794 43.9141 15.7115V10.2086Z" fill="white"/>
<path d="M49.1965 10.2086C49.1965 10.1261 49.2702 10.0509 49.3521 10.0509H50.3319C50.4138 10.0509 50.4876 10.1261 50.4876 10.2086V15.7115C50.4876 15.794 50.4138 15.8691 50.3319 15.8691H49.3521C49.2702 15.8691 49.1965 15.794 49.1965 15.7115V10.2086Z" fill="white"/>
<path d="M52.5669 10.1167C52.5669 10.0344 52.64 9.96735 52.7219 9.96735H52.9262L56.1859 13.159H56.1939V10.2083C56.1939 10.1256 56.2592 10.0506 56.349 10.0506H57.3294C57.4113 10.0506 57.4844 10.1256 57.4844 10.2083V15.8026C57.4844 15.8859 57.4113 15.9521 57.3294 15.9521H57.1984C57.1745 15.9521 57.1085 15.927 57.0926 15.9102L53.866 12.6106H53.8574V15.7112C53.8574 15.7937 53.7921 15.8689 53.7023 15.8689H52.7306C52.6488 15.8689 52.5751 15.7937 52.5751 15.7112L52.5669 10.1167Z" fill="white"/>
<path d="M62.1963 13.8741L61.5757 12.503H61.5677L60.9552 13.8741H62.1963ZM58.8392 15.6533L61.3962 10.0592C61.4207 10.0098 61.4781 9.96783 61.5352 9.96783H61.6163C61.6735 9.96783 61.7306 10.0098 61.7553 10.0592L64.3121 15.6533C64.3613 15.7611 64.2961 15.8691 64.1738 15.8691H63.2666C63.1196 15.8691 63.0544 15.8191 62.9805 15.6614L62.6865 15.005H60.465L60.1708 15.6695C60.1298 15.7698 60.0399 15.8691 59.877 15.8691H58.9783C58.8552 15.8691 58.79 15.7611 58.8392 15.6533Z" fill="white"/>
<path d="M65.6577 10.1167C65.6577 10.0344 65.7306 9.96735 65.8127 9.96735H66.0167L69.2761 13.159H69.2847V10.2083C69.2847 10.1256 69.3498 10.0506 69.4397 10.0506H70.4201C70.5019 10.0506 70.575 10.1256 70.575 10.2083V15.8026C70.575 15.8859 70.5019 15.9521 70.4201 15.9521H70.2892C70.2651 15.9521 70.1994 15.927 70.1834 15.9102L66.9566 12.6106H66.9479V15.7112C66.9479 15.7937 66.8827 15.8689 66.7931 15.8689H65.8212C65.7396 15.8689 65.6655 15.7937 65.6655 15.7112L65.6577 10.1167Z" fill="white"/>
<path d="M75.1973 9.96735C76.0142 9.96735 76.6187 10.2251 77.1743 10.7401C77.248 10.8072 77.248 10.9067 77.1828 10.973L76.5456 11.6465C76.4885 11.7046 76.3986 11.7046 76.3415 11.6465C76.0387 11.3724 75.6389 11.2229 75.2386 11.2229C74.3153 11.2229 73.6377 12.0038 73.6377 12.935C73.6377 13.8576 74.3233 14.6222 75.2465 14.6222C75.6304 14.6222 76.0475 14.4808 76.3415 14.223C76.3986 14.1735 76.5044 14.1735 76.5536 14.2317L77.1908 14.9214C77.248 14.9795 77.24 15.0878 77.1828 15.1459C76.6273 15.6942 75.9244 15.9521 75.1973 15.9521C73.5638 15.9521 72.2488 14.6303 72.2488 12.9681C72.2488 11.306 73.5638 9.96735 75.1973 9.96735Z" fill="white"/>
<path d="M78.8469 10.2086C78.8469 10.1261 78.9121 10.0509 79.0027 10.0509H82.3841C82.4739 10.0509 82.5394 10.1261 82.5394 10.2086V11.1149C82.5394 11.198 82.4739 11.2724 82.3841 11.2724H80.1213V12.3032H81.9837C82.0658 12.3032 82.1395 12.3784 82.1395 12.4617V13.3672C82.1395 13.4584 82.0658 13.5255 81.9837 13.5255H80.1213V14.6476H82.3841C82.4739 14.6476 82.5394 14.722 82.5394 14.8053V15.7115C82.5394 15.794 82.4739 15.8691 82.3841 15.8691H79.0027C78.9121 15.8691 78.8469 15.794 78.8469 15.7115V10.2086Z" fill="white"/>
<path d="M102.73 13.8741L102.11 12.503H102.102L101.489 13.8741H102.73ZM99.3733 15.6533L101.93 10.0592C101.955 10.0098 102.012 9.96783 102.069 9.96783H102.151C102.207 9.96783 102.264 10.0098 102.289 10.0592L104.846 15.6533C104.895 15.7611 104.83 15.8691 104.708 15.8691H103.8C103.653 15.8691 103.588 15.8191 103.514 15.6614L103.22 15.005H100.999L100.705 15.6695C100.664 15.7698 100.574 15.8691 100.411 15.8691H99.5123C99.3892 15.8691 99.3239 15.7611 99.3733 15.6533Z" fill="white"/>
<path d="M106.764 10.1007C106.772 10.0255 106.845 9.96735 106.911 9.96735H107.042C107.083 9.96735 107.156 10.0004 107.181 10.0506L109.076 13.6415H109.093L110.987 10.0506C111.012 10.0004 111.085 9.96735 111.126 9.96735H111.257C111.323 9.96735 111.396 10.0255 111.404 10.1007L112.327 15.686C112.344 15.7937 112.27 15.8689 112.172 15.8689H111.208C111.134 15.8689 111.061 15.8026 111.053 15.7361L110.685 13.1679H110.669L109.296 15.8607C109.272 15.9102 109.198 15.9521 109.158 15.9521H109.011C108.961 15.9521 108.896 15.9102 108.872 15.8607L107.491 13.1679H107.475L107.116 15.7361C107.107 15.8026 107.042 15.8689 106.96 15.8689H105.996C105.898 15.8689 105.825 15.7937 105.841 15.686L106.764 10.1007Z" fill="white"/>
<path d="M114.057 10.2086C114.057 10.1261 114.123 10.0509 114.213 10.0509H117.595C117.684 10.0509 117.75 10.1261 117.75 10.2086V11.1149C117.75 11.198 117.684 11.2724 117.595 11.2724H115.332V12.3032H117.194C117.276 12.3032 117.35 12.3784 117.35 12.4617V13.3672C117.35 13.4584 117.276 13.5255 117.194 13.5255H115.332V14.6476H117.595C117.684 14.6476 117.75 14.722 117.75 14.8053V15.7115C117.75 15.794 117.684 15.8691 117.595 15.8691H114.213C114.123 15.8691 114.057 15.794 114.057 15.7115V10.2086Z" fill="white"/>
<path d="M122.02 12.5361C122.355 12.5361 122.64 12.2207 122.64 11.8715C122.64 11.5221 122.355 11.2394 122.02 11.2394H120.811V12.5361H122.02ZM119.528 10.2086C119.528 10.1259 119.593 10.0509 119.684 10.0509H122.126C123.106 10.0509 123.907 10.8569 123.907 11.8464C123.907 12.611 123.409 13.2263 122.698 13.5168L123.817 15.6282C123.874 15.7364 123.817 15.8691 123.678 15.8691H122.592C122.526 15.8691 122.478 15.8278 122.461 15.794L121.375 13.5918H120.811V15.7115C120.811 15.794 120.738 15.8691 120.656 15.8691H119.684C119.593 15.8691 119.528 15.794 119.528 15.7115V10.2086Z" fill="white"/>
<path d="M125.686 10.2086C125.686 10.1261 125.759 10.0509 125.841 10.0509H126.821C126.903 10.0509 126.977 10.1261 126.977 10.2086V15.7115C126.977 15.794 126.903 15.8691 126.821 15.8691H125.841C125.759 15.8691 125.686 15.794 125.686 15.7115V10.2086Z" fill="white"/>
<path d="M131.596 9.96735C132.413 9.96735 133.018 10.2251 133.573 10.7401C133.647 10.8072 133.647 10.9067 133.582 10.973L132.944 11.6465C132.887 11.7046 132.798 11.7046 132.74 11.6465C132.437 11.3724 132.038 11.2229 131.637 11.2229C130.714 11.2229 130.036 12.0038 130.036 12.935C130.036 13.8576 130.722 14.6222 131.645 14.6222C132.029 14.6222 132.446 14.4808 132.74 14.223C132.798 14.1735 132.903 14.1735 132.952 14.2317L133.589 14.9214C133.647 14.9795 133.639 15.0878 133.582 15.1459C133.026 15.6942 132.323 15.9521 131.596 15.9521C129.963 15.9521 128.647 14.6303 128.647 12.9681C128.647 11.306 129.963 9.96735 131.596 9.96735Z" fill="white"/>
<path d="M137.868 13.8741L137.247 12.503H137.239L136.627 13.8741H137.868ZM134.511 15.6533L137.068 10.0592C137.092 10.0098 137.15 9.96783 137.207 9.96783H137.288C137.345 9.96783 137.402 10.0098 137.427 10.0592L139.983 15.6533C140.033 15.7611 139.968 15.8691 139.845 15.8691H138.938C138.791 15.8691 138.726 15.8191 138.652 15.6614L138.358 15.005H136.137L135.842 15.6695C135.801 15.7698 135.711 15.8691 135.548 15.8691H134.65C134.527 15.8691 134.461 15.7611 134.511 15.6533Z" fill="white"/>
<path d="M88.8982 13.6448C88.8982 13.864 88.9386 14.0282 89.0197 14.1378C89.1008 14.2473 89.2223 14.3021 89.3843 14.3021C89.6843 14.3021 89.9291 14.072 90.1189 13.6116C90.3091 13.1514 90.4038 12.7626 90.4038 12.4453C90.4038 12.2039 90.3585 12.0292 90.2679 11.921C90.177 11.8126 90.0726 11.7584 89.9538 11.7584C89.6347 11.7584 89.379 11.9997 89.1865 12.4821C88.9944 12.9644 88.8982 13.3522 88.8982 13.6448ZM87.835 13.2721C87.835 13.0137 87.9096 12.7361 88.058 12.4395C88.2067 12.143 88.4405 11.8963 88.7584 11.6992C89.0765 11.5026 89.4545 11.404 89.8922 11.404C90.4366 11.404 90.8362 11.5358 91.0913 11.7991C91.3464 12.0625 91.4744 12.3812 91.4744 12.7553C91.4744 13.2697 91.2782 13.7156 90.8866 14.0935C90.4946 14.4712 89.9937 14.6602 89.3843 14.6602C88.9417 14.6602 88.5729 14.5464 88.2777 14.3187C87.9827 14.091 87.835 13.7422 87.835 13.2721Z" fill="white"/>
<path d="M93.6223 11.9317L93.2594 13.5855C93.049 14.5405 92.769 15.2531 92.4194 15.723C92.07 16.1931 91.5952 16.4282 90.9953 16.4282C90.7099 16.4282 90.5012 16.3729 90.3694 16.2621C90.2375 16.1512 90.1716 16.0172 90.1716 15.8597C90.1716 15.7169 90.2232 15.597 90.3258 15.4997C90.4287 15.4023 90.5479 15.3538 90.6832 15.3538C90.964 15.3538 91.126 15.5066 91.1695 15.8117C91.1913 15.9668 91.2578 16.0441 91.369 16.0441C91.4828 16.0441 91.5862 15.9409 91.6792 15.7343C91.7723 15.5274 91.8855 15.1103 92.0185 14.4825L92.1311 13.9474C92.1649 13.8192 92.189 13.7185 92.2036 13.6445L92.5699 11.9317H92.0984L92.2217 11.522H92.6535C92.8808 10.6802 93.1463 10.1222 93.45 9.84763C93.7535 9.57322 94.1158 9.43612 94.5365 9.43612C94.8171 9.43612 95.0464 9.49151 95.2241 9.60211C95.4018 9.7127 95.4909 9.86069 95.4909 10.0451C95.4909 10.1681 95.4479 10.276 95.3619 10.3682C95.2762 10.4606 95.1667 10.5067 95.0337 10.5067C94.8426 10.5067 94.6781 10.3699 94.5402 10.0967C94.4385 9.89254 94.3357 9.79046 94.2318 9.79046C94.1109 9.79046 94.0178 9.95407 93.9524 10.2815L93.7129 11.522H94.2536L94.1301 11.9317H93.6223Z" fill="white"/>
<path d="M59.4907 20.7126C59.4987 20.6374 59.5718 20.5792 59.6377 20.5792H59.768C59.8094 20.5792 59.8825 20.6124 59.9072 20.6625L61.8021 24.2534H61.8188L63.7137 20.6625C63.7384 20.6124 63.8115 20.5792 63.8527 20.5792H63.9832C64.0489 20.5792 64.1222 20.6374 64.1302 20.7126L65.0534 26.2979C65.0699 26.4055 64.9961 26.4807 64.8984 26.4807H63.9346C63.8607 26.4807 63.7876 26.4144 63.779 26.348L63.4119 23.7797H63.3952L62.023 26.4726C61.9983 26.5221 61.9246 26.564 61.884 26.564H61.737C61.6878 26.564 61.6224 26.5221 61.5979 26.4726L60.2178 23.7797H60.201L59.8419 26.348C59.8333 26.4144 59.768 26.4807 59.6863 26.4807H58.7225C58.6247 26.4807 58.551 26.4055 58.5675 26.2979L59.4907 20.7126Z" fill="white"/>
<path d="M71.856 25.2341C72.7547 25.2341 73.4895 24.4857 73.4895 23.5801C73.4895 22.6657 72.7547 21.9091 71.856 21.9091C70.9654 21.9091 70.2304 22.6657 70.2304 23.5801C70.2304 24.4857 70.9654 25.2341 71.856 25.2341ZM71.856 20.5792C73.4895 20.5792 74.7966 21.9178 74.7966 23.5801C74.7966 25.2422 73.4895 26.564 71.856 26.564C70.2224 26.564 68.9233 25.2422 68.9233 23.5801C68.9233 21.9178 70.2224 20.5792 71.856 20.5792Z" fill="white"/>
<path d="M81.5168 23.1472C81.852 23.1472 82.1374 22.832 82.1374 22.4826C82.1374 22.1334 81.852 21.8507 81.5168 21.8507H80.3075V23.1472H81.5168ZM79.0251 20.8199C79.0251 20.7374 79.0903 20.6622 79.1807 20.6622H81.6231C82.6029 20.6622 83.4039 21.4683 83.4039 22.4577C83.4039 23.2225 82.9057 23.8376 82.1946 24.1279L83.314 26.2393C83.3712 26.3478 83.314 26.4805 83.175 26.4805H82.0888C82.0231 26.4805 81.9745 26.4393 81.9578 26.4054L80.8716 24.2028H80.3075V26.3227C80.3075 26.4054 80.2344 26.4805 80.1525 26.4805H79.1807C79.0903 26.4805 79.0251 26.4054 79.0251 26.3227V20.8199Z" fill="white"/>
<path d="M88.4727 21.884H87.3046C87.215 21.884 87.1497 21.8096 87.1497 21.7262V20.8201C87.1497 20.7374 87.215 20.6625 87.3046 20.6625H90.9316C91.0214 20.6625 91.0868 20.7374 91.0868 20.8201V21.7262C91.0868 21.8096 91.0214 21.884 90.9316 21.884H89.7638V26.323C89.7638 26.4055 89.6899 26.4805 89.6088 26.4805H88.6284C88.5465 26.4805 88.4727 26.4055 88.4727 26.323V21.884Z" fill="white"/>
<path d="M97.6348 20.5879C98.3212 20.5879 99.0729 20.8783 99.6282 21.3689C99.7013 21.4273 99.7101 21.5266 99.6442 21.5935L98.9988 22.2915C98.9339 22.3497 98.844 22.3497 98.7781 22.3002C98.468 22.0092 98.1082 21.901 97.7087 21.901C96.8179 21.901 96.099 22.6655 96.099 23.5799C96.099 24.4856 96.8259 25.234 97.7166 25.234C97.9535 25.234 98.1989 25.201 98.4437 25.1007V24.6187H97.9288C97.8389 24.6187 97.7738 24.5525 97.7738 24.4694V23.6461C97.7738 23.5549 97.8389 23.4884 97.9288 23.4884H99.5709C99.6527 23.4884 99.7181 23.563 99.7181 23.6461L99.726 25.8824C99.726 25.9237 99.6934 25.99 99.6607 26.0151C99.6607 26.0151 98.8193 26.5557 97.6348 26.5557C96.009 26.5557 94.7021 25.2419 94.7021 23.5799C94.7021 21.918 96.009 20.5879 97.6348 20.5879Z" fill="white"/>
<path d="M106.707 24.4854L106.086 23.1141H106.078L105.465 24.4854H106.707ZM103.35 26.2646L105.906 20.6703C105.931 20.6209 105.988 20.5787 106.046 20.5787H106.128C106.184 20.5787 106.241 20.6209 106.266 20.6703L108.822 26.2646C108.872 26.3722 108.806 26.4805 108.684 26.4805H107.777C107.63 26.4805 107.565 26.4304 107.491 26.2727L107.197 25.6163H104.975L104.681 26.2808C104.64 26.3811 104.55 26.4805 104.387 26.4805H103.489C103.366 26.4805 103.301 26.3722 103.35 26.2646Z" fill="white"/>
<path d="M115.207 20.5879C115.893 20.5879 116.645 20.8783 117.2 21.3689C117.273 21.4273 117.282 21.5266 117.216 21.5935L116.571 22.2915C116.506 22.3497 116.416 22.3497 116.35 22.3002C116.04 22.0092 115.68 21.901 115.28 21.901C114.39 21.901 113.671 22.6655 113.671 23.5799C113.671 24.4856 114.398 25.234 115.288 25.234C115.525 25.234 115.771 25.201 116.015 25.1007V24.6187H115.501C115.411 24.6187 115.346 24.5525 115.346 24.4694V23.6461C115.346 23.5549 115.411 23.4884 115.501 23.4884H117.143C117.225 23.4884 117.29 23.563 117.29 23.6461L117.298 25.8824C117.298 25.9237 117.265 25.99 117.233 26.0151C117.233 26.0151 116.391 26.5557 115.207 26.5557C113.581 26.5557 112.274 25.2419 112.274 23.5799C112.274 21.918 113.581 20.5879 115.207 20.5879Z" fill="white"/>
<path d="M121.656 20.8199C121.656 20.7374 121.722 20.6622 121.812 20.6622H125.194C125.283 20.6622 125.349 20.7374 125.349 20.8199V21.726C125.349 21.8093 125.283 21.8837 125.194 21.8837H122.931V22.9145H124.793C124.875 22.9145 124.949 22.9897 124.949 23.073V23.9783C124.949 24.0697 124.875 24.1368 124.793 24.1368H122.931V25.2589H125.194C125.283 25.2589 125.349 25.3333 125.349 25.4164V26.3227C125.349 26.4053 125.283 26.4805 125.194 26.4805H121.812C121.722 26.4805 121.656 26.4053 121.656 26.3227V20.8199Z" fill="white"/>
<path d="M136.777 23.1846C136.843 23.1846 136.902 23.2187 136.902 23.2561V23.7052C136.902 23.7426 136.843 23.7764 136.777 23.7764H132.428C132.363 23.7764 132.303 23.7426 132.303 23.7052V23.2561C132.303 23.2187 132.363 23.1846 132.428 23.1846H136.777Z" fill="white"/>
<path d="M51.4862 23.1846C51.5513 23.1846 51.6106 23.2187 51.6106 23.2561V23.7052C51.6106 23.7426 51.5513 23.7764 51.4862 23.7764H47.1368C47.0717 23.7764 47.0122 23.7426 47.0122 23.7052V23.2561C47.0122 23.2187 47.0717 23.1846 47.1368 23.1846H51.4862Z" fill="white"/>
<path d="M127.017 22.1633L127.218 21.9184C127.357 22.0351 127.503 22.1095 127.68 22.1095C127.819 22.1095 127.903 22.0531 127.903 21.9611V21.9566C127.903 21.8689 127.849 21.824 127.591 21.7566C127.28 21.6757 127.079 21.588 127.079 21.2757V21.2711C127.079 20.9858 127.304 20.797 127.62 20.797C127.845 20.797 128.037 20.8688 128.194 20.997L128.017 21.2578C127.881 21.161 127.746 21.1027 127.615 21.1027C127.485 21.1027 127.417 21.1634 127.417 21.2396V21.2442C127.417 21.3476 127.483 21.3813 127.75 21.4511C128.064 21.5342 128.24 21.6488 128.24 21.923V21.9273C128.24 22.2397 128.006 22.415 127.673 22.415C127.439 22.415 127.202 22.3319 127.017 22.1633Z" fill="white"/>
<path d="M128.603 20.8193H128.97L129.376 21.4846L129.783 20.8193H130.149V22.3926H129.811V21.3656L129.376 22.0375H129.367L128.937 21.3723V22.3926H128.603V20.8193Z" fill="white"/>
</svg>
