<svg width="113" height="18" viewBox="0 0 113 18" fill="none" xmlns="http://www.w3.org/2000/svg">
<path fill-rule="evenodd" clip-rule="evenodd" d="M0 0.40293H2.73594L5.69355 9.32559C6.01426 10.2629 6.33477 11.7166 6.33477 11.7166C6.33477 11.7166 6.7543 10.2873 7.14746 9.32559L10.9932 0.230469H11.3137L15.184 9.32559C15.5779 10.2629 15.9721 11.7166 15.9721 11.7166C15.9721 11.7166 16.3172 10.2629 16.6377 9.32559L19.5953 0.40293H22.1344L16.3426 17.3367H16.0221L11.8559 7.3543C11.5107 6.54062 11.1666 5.3084 11.1666 5.3084C11.1666 5.3084 10.7715 6.54062 10.4266 7.3543L6.16211 17.3367H5.8416L0 0.40293Z" fill="white"/>
<path fill-rule="evenodd" clip-rule="evenodd" d="M53.0234 0.40293H55.7596L58.717 9.32559C59.0377 10.2629 59.3582 11.7166 59.3582 11.7166C59.3582 11.7166 59.7777 10.2873 60.1709 9.32559L64.0166 0.230469H64.3371L68.2074 9.32559C68.6016 10.2629 68.9965 11.7166 68.9965 11.7166C68.9965 11.7166 69.3406 10.2629 69.6611 9.32559L72.6187 0.40293H75.1578L69.366 17.3367H69.0455L64.8793 7.3543C64.5342 6.54062 64.19 5.3084 64.19 5.3084C64.19 5.3084 63.7951 6.54062 63.45 7.3543L59.1857 17.3367H58.865L53.0234 0.40293Z" fill="white"/>
<path fill-rule="evenodd" clip-rule="evenodd" d="M83.5742 0.230469H83.8447L91.8557 9.59727L99.7934 0.230469H100.064V17.1643H97.5738V8.46309C97.5738 7.52695 97.6729 6.04766 97.6729 6.04766C97.6729 6.04766 96.8602 7.3043 96.1691 8.06895L91.9547 13.1471H91.6588L87.4434 8.06895C86.8033 7.3043 85.965 6.04766 85.965 6.04766C85.965 6.04766 86.0641 7.52695 86.0641 8.46309V17.1643H83.5742V0.230469Z" fill="white"/>
<mask id="mask0_3536_4527" style="mask-type:alpha" maskUnits="userSpaceOnUse" x="28" y="0" width="85" height="18">
<path fill-rule="evenodd" clip-rule="evenodd" d="M28.9814 0.179688H112.5V17.3732H28.9814V0.179688Z" fill="white"/>
</mask>
<g mask="url(#mask0_3536_4527)">
<path fill-rule="evenodd" clip-rule="evenodd" d="M109.911 17.1617H112.5V0.400391H109.911V17.1617Z" fill="white"/>
<path fill-rule="evenodd" clip-rule="evenodd" d="M37.5836 0.179688C32.833 0.179688 28.9814 4.03125 28.9814 8.78184C28.9814 13.5334 32.833 17.385 37.5836 17.385C42.3342 17.385 46.1867 13.5334 46.1867 8.78184C46.1867 4.03125 42.3342 0.179688 37.5836 0.179688ZM37.6475 15.1916C34.1037 15.1916 31.2314 12.3184 31.2314 8.77461C31.2314 5.23164 34.1037 2.35938 37.6475 2.35938C41.1902 2.35938 44.0637 5.23164 44.0637 8.77461C44.0637 12.3184 41.1902 15.1916 37.6475 15.1916Z" fill="white"/>
</g>
</svg>
