<svg width="266" height="71" viewBox="0 0 266 71" fill="none" xmlns="http://www.w3.org/2000/svg"><path d="M7.581 5.409L4.478 7.182l7.27 12.192 3.06-1.818L7.58 5.409z" fill="#fff"/><path d="M52.269 31.831C47.747 18.31 33.427 10.684 19.684 14.497L12.679 2.394 9.576 4.167l8.423 14.586 1.375-.443c2.394-.798 4.92-1.242 7.448-1.242 12.856 0 23.275 10.419 23.275 23.275 0 3.591-.843 7.138-2.439 10.374A22.97 22.97 0 0134.27 62.421c-2.394.798-4.921 1.242-7.448 1.242-9.975-.045-18.842-6.429-22.034-15.872a23.032 23.032 0 01.754-16.758l.31-.709-3.236-1.419-.31.71c-5.941 13.566.221 29.437 13.831 35.378 13.566 5.94 29.438-.222 35.378-13.832 2.66-6.074 2.926-12.99.754-19.33zm10.418.976h9.576c1.109 0 2.261.133 3.325.443.931.266 1.862.71 2.616 1.33a6.333 6.333 0 011.773 2.128 7.31 7.31 0 01.665 3.059c.045 1.419-.399 2.793-1.33 3.857a8.29 8.29 0 01-3.413 2.217v.088a5.69 5.69 0 012.35.665c.709.355 1.374.887 1.906 1.463a6.63 6.63 0 011.33 2.128c.31.843.487 1.73.443 2.616a6.497 6.497 0 01-.754 3.28 7.334 7.334 0 01-2.172 2.35 9.74 9.74 0 01-3.06 1.463 13.574 13.574 0 01-3.767.532h-9.443v-27.62h-.045zm3.724 11.438h5.099c.665 0 1.33-.089 1.995-.222.576-.133 1.152-.355 1.64-.71a3.573 3.573 0 001.108-1.33c.31-.576.444-1.24.4-1.906 0-1.064-.355-2.039-1.065-2.837-.886-.887-2.083-1.286-3.325-1.197h-5.896v8.202h.044zm0 12.856h5.498c.62 0 1.285-.044 1.906-.177.665-.133 1.33-.355 1.906-.71.62-.354 1.109-.842 1.508-1.418a3.99 3.99 0 00.62-2.35c.089-1.418-.487-2.793-1.596-3.68a6.796 6.796 0 00-4.3-1.24h-5.497V57.1h-.045zM83.79 51.16c0-1.285.266-2.57.754-3.768a9.612 9.612 0 012.083-3.059 9.873 9.873 0 0113.965 0 9.613 9.613 0 012.084 3.06c.488 1.196.754 2.482.754 3.812a9.731 9.731 0 01-2.838 6.872 10.017 10.017 0 01-6.96 2.837c-1.33 0-2.616-.266-3.857-.754a10.471 10.471 0 01-3.103-2.04 9.33 9.33 0 01-2.084-3.102 9.855 9.855 0 01-.798-3.858zm3.724 0c0 .887.133 1.774.443 2.616a5.553 5.553 0 003.104 3.37c.798.31 1.64.487 2.527.487.842 0 1.684-.222 2.482-.532a5.696 5.696 0 001.907-1.33c.576-.576.975-1.241 1.285-1.995.31-.842.444-1.729.444-2.616 0-.886-.133-1.773-.444-2.615-.266-.754-.665-1.463-1.197-2.04a5.695 5.695 0 00-1.906-1.33c-.798-.354-1.685-.487-2.527-.487-.887 0-1.729.133-2.527.487-1.463.621-2.616 1.818-3.103 3.326-.355.886-.488 1.773-.488 2.66zm18.443-9.487h3.325v2.882c.133-.355.354-.71.62-.975a7.387 7.387 0 011.242-1.109c.576-.354 1.152-.665 1.773-.886.754-.267 1.507-.4 2.261-.355 2.438-.133 4.744 1.197 5.763 3.414a6.15 6.15 0 012.527-2.572c1.02-.532 2.173-.842 3.325-.842 1.242-.044 2.439.222 3.547.71.842.443 1.596 1.063 2.128 1.861a7.085 7.085 0 011.064 2.616c.177.975.31 1.995.31 3.014v10.73h-3.502V49.785c0-.665-.044-1.33-.133-1.995-.089-.62-.266-1.197-.576-1.729a3.11 3.11 0 00-1.197-1.197c-.621-.31-1.33-.443-2.04-.443a4.156 4.156 0 00-3.635 1.552 6.907 6.907 0 00-1.108 3.945v10.108h-3.547v-9.62c0-.798-.044-1.64-.133-2.438a6.46 6.46 0 00-.532-1.863c-.266-.532-.665-.975-1.153-1.24-.62-.311-1.33-.489-2.039-.444a4.34 4.34 0 00-1.818.399 4.749 4.749 0 00-1.551 1.108c-.488.532-.843 1.197-1.064 1.862a9.29 9.29 0 00-.399 2.705v9.575h-3.458V41.673zm31.166-11.438h3.502V43.89h.089c.665-.975 1.552-1.773 2.616-2.261 1.152-.532 2.438-.842 3.724-.842a8.819 8.819 0 013.857.753 9.002 9.002 0 013.103 2.04 8.545 8.545 0 011.862 3.103c.443 1.241.665 2.527.665 3.813 0 1.285-.222 2.571-.665 3.812-.399 1.153-1.064 2.173-1.862 3.104a9.244 9.244 0 01-2.97 2.083c-1.242.488-2.527.754-3.857.754a8.726 8.726 0 01-3.68-.798 6.706 6.706 0 01-2.793-2.305h-.089v3.147h-3.502V30.235zm9.62 26.645c.887 0 1.729-.133 2.527-.488a5.69 5.69 0 001.907-1.33c.532-.576.931-1.286 1.197-2.04.31-.842.443-1.728.443-2.615 0-.887-.133-1.773-.443-2.616a5.381 5.381 0 00-3.104-3.192c-.798-.354-1.64-.487-2.527-.487-.886 0-1.729.133-2.527.487a5.698 5.698 0 00-1.906 1.33c-.532.577-.931 1.286-1.197 2.04a7.552 7.552 0 00-.443 2.615c0 .887.133 1.774.443 2.616.266.754.665 1.463 1.197 2.04a5.695 5.695 0 001.906 1.33c.798.221 1.641.354 2.527.31zm14.054-24.073h9.576c1.108 0 2.217.133 3.325.443.931.266 1.862.71 2.616 1.33a5.522 5.522 0 011.773 2.128c.443.975.665 1.995.665 3.059.044 1.419-.399 2.793-1.33 3.857a8.289 8.289 0 01-3.414 2.217v.088a5.693 5.693 0 012.35.665 6.072 6.072 0 011.862 1.463 6.63 6.63 0 011.33 2.128c.31.843.488 1.73.488 2.616a6.5 6.5 0 01-.754 3.28 6.747 6.747 0 01-2.084 2.395 9.973 9.973 0 01-3.103 1.463 13.574 13.574 0 01-3.768.532h-9.488l-.044-27.664zm3.813 11.438h5.098c.665 0 1.33-.089 1.995-.222.576-.133 1.153-.355 1.64-.71a3.572 3.572 0 001.109-1.33c.266-.576.443-1.24.399-1.906a4.183 4.183 0 00-1.064-2.837c-.887-.887-2.084-1.286-3.325-1.197h-5.897v8.202h.045zm0 12.856h5.497c.621 0 1.241-.044 1.862-.177a6.472 6.472 0 001.951-.71c.62-.354 1.108-.842 1.507-1.418.443-.71.665-1.552.621-2.394.088-1.419-.488-2.793-1.596-3.68-1.286-.886-2.793-1.285-4.301-1.241h-5.541v9.62zm17.334-5.941c0-1.285.266-2.57.754-3.768a9.61 9.61 0 012.083-3.059 9.82 9.82 0 0113.921 0 9.613 9.613 0 012.084 3.06 8.55 8.55 0 01.753 3.767 9.73 9.73 0 01-2.837 6.872 9.003 9.003 0 01-3.103 2.04 10.108 10.108 0 01-7.714 0 10.475 10.475 0 01-3.104-2.04 9.734 9.734 0 01-2.837-6.871zm3.724 0c0 .887.133 1.774.443 2.616.266.754.665 1.463 1.197 2.04a5.69 5.69 0 001.907 1.33 6.651 6.651 0 005.054 0 5.697 5.697 0 001.906-1.33c.532-.577.931-1.286 1.197-2.04.31-.842.443-1.729.443-2.616a7.55 7.55 0 00-.443-2.615 6.338 6.338 0 00-1.197-2.04 5.697 5.697 0 00-1.906-1.33 6.651 6.651 0 00-5.054 0 5.69 5.69 0 00-1.907 1.33c-.532.577-.931 1.286-1.197 2.04a7.553 7.553 0 00-.443 2.615zm18.443-9.486h3.28v2.881h.089c.133-.354.355-.665.576-.975a7.387 7.387 0 011.242-1.108c.576-.355 1.152-.665 1.773-.887a7.452 7.452 0 015.763.488 6.464 6.464 0 012.306 2.57 6.144 6.144 0 012.527-2.57c1.019-.532 2.172-.843 3.325-.843a7.414 7.414 0 013.502.71c.842.443 1.596 1.064 2.128 1.862a7.085 7.085 0 011.064 2.615c.177.976.31 1.995.31 3.015V60.16h-3.502V49.83c0-.665-.044-1.33-.133-1.995-.089-.62-.266-1.197-.576-1.73-.311-.487-.71-.93-1.197-1.196a4.11 4.11 0 00-2.084-.443 4.03 4.03 0 00-3.591 1.551 6.907 6.907 0 00-1.108 3.946v10.108h-3.503v-9.576c0-.798-.044-1.64-.133-2.438a6.429 6.429 0 00-.532-1.862c-.266-.532-.665-.976-1.152-1.242-.621-.31-1.33-.487-2.04-.443-.62 0-1.241.133-1.817.399-.577.222-1.109.62-1.552 1.108-.488.532-.842 1.197-1.064 1.862a9.288 9.288 0 00-.399 2.705v9.576h-3.502V41.674zm31.166-11.439h3.502V43.89h.089c.665-.975 1.552-1.773 2.616-2.261 1.152-.532 2.438-.842 3.724-.842a8.819 8.819 0 013.857.753 8.48 8.48 0 014.832 5.143c.443 1.241.665 2.527.665 3.813 0 1.285-.222 2.571-.665 3.812a10.512 10.512 0 01-1.862 3.104 9.244 9.244 0 01-2.97 2.083c-1.242.488-2.527.754-3.857.754-1.242 0-2.527-.266-3.636-.798a6.712 6.712 0 01-2.793-2.305h-.088v3.147h-3.503l.089-30.058zm9.576 26.645c.887 0 1.729-.133 2.527-.488a5.695 5.695 0 001.906-1.33c.532-.576.931-1.286 1.197-2.04a7.53 7.53 0 00.444-2.615c0-.887-.133-1.773-.444-2.616-.266-.753-.665-1.463-1.197-2.039a5.698 5.698 0 00-1.906-1.33 6.77 6.77 0 00-5.098.133c-1.463.62-2.616 1.818-3.104 3.325a7.553 7.553 0 00-.443 2.616c0 .886.133 1.773.443 2.615.266.754.665 1.463 1.197 2.04.532.532 1.197.93 1.907 1.197.842.399 1.684.532 2.571.532zm11.837-22.743h-1.507v-1.064h4.256v1.064h-1.508v4.3h-1.197l-.044-4.3zm3.281-1.064h1.773l1.241 3.502 1.242-3.502H266v5.364h-1.153v-4.123l-1.463 4.123h-.931l-1.33-4.123v4.123h-1.197v-5.364h.045z" fill="#fff"/></svg>