<svg width="22" height="21" viewBox="0 0 22 21" fill="none" xmlns="http://www.w3.org/2000/svg"><path d="M8.91 9.171c.78.78.78 2.04 0 2.82-.79.78-2.05.78-2.83 0-.79-.79-.79-2.05-.001-2.83.78-.79 2.04-.79 2.82 0m5.101.84h4m-1 3.5h-3m-3 3.541a3.126 3.126 0 00-2.88-1.96H6.86c-.78 0-1.529.29-2.1.82-.34.31-.601.69-.78 1.12M12 6.001h-2c-.56 0-1-.45-1-1v-3c0-.552.44-1 1-1h2c.55 0 1 .44 1 1v3c0 .55-.45 1-1 1z" stroke="#163B7B" stroke-width="1.5" stroke-linecap="round" stroke-linejoin="round"/><path d="M9 4.001H3.04c-1.13 0-2.041.91-2.041 2.04v11.96c0 1.1.895 2 2 2h16c1.1 0 2-.9 2-2V6a2 2 0 00-2-2h-6" stroke="#163B7B" stroke-width="1.5" stroke-linecap="round" stroke-linejoin="round"/></svg>