<svg width="266" height="40" viewBox="0 0 266 40" fill="none" xmlns="http://www.w3.org/2000/svg"><path d="M21.807 30.203v.117c0 6.064-4.081 9.446-10.728 9.446C4.199 39.766 0 36.034 0 29.504V20.64c0-6.53 4.198-10.262 11.079-10.262 6.53 0 10.611 3.382 10.611 9.446v.116h-3.38v-.116c0-4.082-2.8-6.414-7.347-6.414-4.781 0-7.697 2.682-7.697 7.347v8.863c0 4.664 2.916 7.346 7.58 7.346 4.548 0 7.347-2.449 7.347-6.53v-.117h3.615v-.117zm7.813-19.358h3.382v25.656h15.043v3.032H29.62V10.845zm46.529 18.659c0 6.53-4.198 10.262-11.195 10.262-6.88 0-11.078-3.732-11.078-10.262V20.64c0-6.53 4.198-10.262 11.195-10.262 6.88 0 11.078 3.615 11.078 10.262v8.863zm-3.265-8.863c0-4.665-2.916-7.347-7.697-7.347-4.898 0-7.696 2.682-7.696 7.347v8.863c0 4.665 2.915 7.347 7.696 7.347 4.898 0 7.697-2.682 7.697-7.347V20.64zm32.653-9.796V29.97c0 6.297-4.082 9.913-10.612 9.913s-10.612-3.499-10.612-9.913V10.845h3.382V29.97c0 4.431 2.799 6.997 7.347 6.997s7.346-2.566 7.346-6.997V10.845h3.149zM135.39 29.27c0 6.53-4.198 10.146-11.195 10.146h-10.262v-28.57h10.262c6.881 0 11.079 3.614 11.079 10.028v8.396h.116zm-3.498-8.396c0-4.548-2.915-7.23-7.697-7.23h-6.997v22.74h6.881c4.898 0 7.696-2.682 7.696-7.23v-8.396h.117v.116zm8.747-10.029h3.732l8.979 24.49L166.178 0h3.382l-14.227 39.533h-3.965l-10.729-28.688zm31.836 0h3.381v28.571h-3.381v-28.57zm11.893 0h11.428c5.481 0 9.096 2.799 9.096 8.863 0 4.665-1.982 7.347-5.364 8.396l5.481 11.429h-3.965l-5.131-10.729h-8.396v10.729h-3.382V10.845h.233zm3.382 14.81h7.93c3.498 0 5.714-1.749 5.714-5.947s-2.332-5.83-5.714-5.83h-7.93v11.777zm42.916 4.665v-2.566h-8.98v-3.032h12.361V39.3h-2.565l-.35-3.032c-1.633 2.099-4.548 3.381-8.396 3.381-6.531 0-10.379-3.615-10.379-10.262v-8.863c0-6.88 4.198-10.262 11.078-10.262 6.414 0 10.612 3.032 10.612 8.863v.233h-3.381v-.233c0-3.848-2.799-5.947-7.347-5.947-4.781 0-7.697 2.565-7.697 7.463v8.863c0 4.664 2.916 7.346 7.58 7.346 4.781 0 7.464-2.448 7.464-6.53zm35.333 9.096h-3.615l-2.799-7.347h-12.827l-2.799 7.347h-3.382l10.496-28.57h4.081l10.845 28.57zm-18.308-10.262h11.078l-5.481-14.694-5.597 14.694z" fill="#fff"/></svg>