<svg width="24" height="16" viewBox="0 0 24 16" fill="none" xmlns="http://www.w3.org/2000/svg"><path d="M20.79 5.521c.79.79.79 2.07 0 2.86-.8.79-2.08.79-2.87 0-.8-.8-.8-2.08 0-2.87.79-.8 2.07-.8 2.86 0m-6.58-3.6a3.12 3.12 0 010 4.4 3.133 3.133 0 01-4.41 0 3.114 3.114 0 010-4.41 3.102 3.102 0 014.4 0m-8.13 3.62c.79.79.79 2.07 0 2.86-.8.79-2.08.79-2.87 0-.8-.8-.8-2.08 0-2.87.79-.8 2.07-.8 2.86 0M23 15.001v-1.096c0-1.39-1.12-2.5-2.5-2.5h-.81M1 15.001v-1.096c0-1.39 1.11-2.5 2.5-2.5h.8m13.03 3.596v-1.61c0-1.94-1.57-3.5-3.5-3.5h-3.68c-1.94 0-3.5 1.56-3.5 3.5v1.6" stroke="#163B7C" stroke-width="1.5" stroke-linecap="round" stroke-linejoin="round"/></svg>