<svg width="12" height="16" viewBox="0 0 12 16" fill="none" xmlns="http://www.w3.org/2000/svg"><path d="M9.75 14.75h-7.5a1.5 1.5 0 01-1.5-1.5v-6c0-.832.667-1.5 1.5-1.5h7.5a1.5 1.5 0 011.5 1.5v6c0 .825-.675 1.5-1.5 1.5z" stroke="#163B7D" stroke-width="1.465" stroke-linecap="round" stroke-linejoin="round"/><path d="M9 5.75v-1.5a3 3 0 10-6 0v1.5" stroke="#163B7D" stroke-width="1.403" stroke-linecap="round" stroke-linejoin="round"/><path d="M5.998 9.875a.371.371 0 00-.375.375c0 .203.165.375.375.375a.381.381 0 00.375-.375.378.378 0 00-.382-.375" stroke="#163B7D" stroke-width="1.5" stroke-linecap="round" stroke-linejoin="round"/></svg>