<svg width="140" height="36" viewBox="0 0 140 36" fill="none" xmlns="http://www.w3.org/2000/svg"><path d="M35.381 35.762a.236.236 0 01-.233.238H.233A.235.235 0 010 35.762V.238C0 .106.104 0 .233 0h34.915c.128 0 .233.106.233.238v35.524z" fill="#1C3155"/><path d="M17.688 12.195V6.927l-8.99 5.323v16.807h4.444V24.67l4.546-2.692V16.71l-4.546 2.692v-4.516l4.546-2.692z" fill="#fff"/><path d="M17.689 12.196V6.927l8.99 5.323v16.807h-4.444v-4.386l-4.546-2.692v-5.268l4.546 2.692v-4.516l-4.546-2.691z" fill="#46A8DE"/><path d="M43.914 10.209c0-.083.065-.158.156-.158h3.381c.09 0 .155.075.155.158v.906a.156.156 0 01-.155.157H45.19v1.198h1.862c.082 0 .156.075.156.157v.907a.162.162 0 01-.156.157H45.19v2.02a.162.162 0 01-.156.158h-.963a.157.157 0 01-.156-.158V10.21zm5.283 0c0-.083.073-.158.155-.158h.98c.082 0 .156.075.156.158v5.502a.163.163 0 01-.156.158h-.98a.162.162 0 01-.155-.158V10.21zm3.37-.092c0-.082.073-.15.155-.15h.204l3.26 3.192h.008v-2.95c0-.083.065-.158.155-.158h.98c.082 0 .155.075.155.158v5.594c0 .083-.073.15-.155.15h-.13a.235.235 0 01-.106-.043l-3.227-3.3h-.009v3.101a.157.157 0 01-.155.158h-.971a.163.163 0 01-.156-.158l-.008-5.594zm9.629 3.757l-.62-1.371h-.008l-.613 1.37h1.241zm-3.357 1.779l2.557-5.594a.167.167 0 01.14-.091h.08c.057 0 .115.041.14.091l2.556 5.594c.05.108-.016.216-.138.216h-.907c-.147 0-.213-.05-.287-.208l-.293-.656h-2.222l-.294.664c-.041.1-.131.2-.294.2h-.899c-.123 0-.188-.108-.139-.216zm6.819-5.536c0-.082.073-.15.155-.15h.204l3.26 3.192h.008v-2.95c0-.083.065-.158.155-.158h.98c.082 0 .155.075.155.158v5.594c0 .083-.073.15-.155.15h-.13a.235.235 0 01-.107-.043l-3.226-3.3h-.01v3.101a.157.157 0 01-.154.158h-.972a.163.163 0 01-.156-.158l-.007-5.594zm9.539-.149c.817 0 1.422.257 1.977.772a.156.156 0 01.009.233l-.637.674a.141.141 0 01-.205 0 1.655 1.655 0 00-1.102-.424c-.924 0-1.601.781-1.601 1.712 0 .923.685 1.688 1.608 1.688a1.71 1.71 0 001.096-.4c.057-.05.162-.05.212.009l.637.69c.057.058.049.166-.008.224a2.78 2.78 0 01-1.986.806c-1.633 0-2.948-1.321-2.948-2.984 0-1.662 1.315-3 2.948-3zm3.65.241c0-.083.065-.158.156-.158h3.381c.09 0 .155.075.155.158v.906a.156.156 0 01-.155.157h-2.263v1.031h1.863c.082 0 .156.075.156.159v.905a.157.157 0 01-.156.158H80.12v1.123h2.263c.09 0 .155.074.155.157v.906a.157.157 0 01-.155.158h-3.381a.157.157 0 01-.156-.158V10.21zm23.883 3.665l-.62-1.371h-.008l-.613 1.37h1.241zm-3.357 1.779l2.557-5.594a.168.168 0 01.139-.091h.082c.056 0 .113.041.138.091l2.557 5.594c.049.108-.016.216-.138.216h-.908c-.147 0-.212-.05-.286-.208l-.294-.656h-2.221l-.294.664c-.041.1-.131.2-.294.2h-.899c-.123 0-.188-.108-.139-.216zm7.391-5.553a.156.156 0 01.147-.132h.131c.041 0 .114.033.139.083l1.895 3.59h.017l1.894-3.59c.025-.05.098-.083.139-.083h.131c.066 0 .139.058.147.133l.923 5.585c.017.108-.057.183-.155.183h-.964c-.074 0-.147-.066-.155-.133l-.368-2.568h-.016l-1.373 2.693a.191.191 0 01-.138.091h-.147a.176.176 0 01-.139-.091l-1.381-2.693h-.016l-.359 2.568a.161.161 0 01-.156.133h-.964c-.098 0-.171-.075-.155-.183l.923-5.585zm7.293.109c0-.083.066-.158.156-.158h3.382c.089 0 .155.075.155.158v.906a.157.157 0 01-.155.157h-2.263v1.031h1.862c.082 0 .156.075.156.159v.905a.157.157 0 01-.156.158h-1.862v1.123h2.263c.089 0 .155.074.155.157v.906a.157.157 0 01-.155.158h-3.382a.157.157 0 01-.156-.158V10.21zm7.963 2.327c.335 0 .62-.315.62-.665a.63.63 0 00-.62-.632h-1.209v1.297h1.209zm-2.492-2.327c0-.083.065-.158.156-.158h2.442c.98 0 1.781.806 1.781 1.795 0 .765-.498 1.38-1.209 1.67l1.119 2.112c.057.108 0 .241-.139.241h-1.086a.15.15 0 01-.131-.075l-1.086-2.202h-.564v2.12a.162.162 0 01-.155.157h-.972a.157.157 0 01-.156-.158V10.21zm6.158 0c0-.083.073-.158.155-.158h.98c.082 0 .156.075.156.158v5.502a.163.163 0 01-.156.158h-.98a.162.162 0 01-.155-.158V10.21zm5.91-.241c.817 0 1.422.257 1.977.772a.156.156 0 01.009.233l-.638.674a.141.141 0 01-.204 0 1.654 1.654 0 00-1.103-.424c-.923 0-1.601.781-1.601 1.712 0 .923.686 1.688 1.609 1.688a1.71 1.71 0 001.095-.4c.058-.05.163-.05.212.009l.637.69c.058.058.05.166-.007.224a2.783 2.783 0 01-1.986.806c-1.633 0-2.949-1.321-2.949-2.984 0-1.662 1.316-3 2.949-3zm6.272 3.906l-.621-1.371h-.008l-.612 1.37h1.241zm-3.357 1.779l2.557-5.594a.166.166 0 01.139-.091h.081c.057 0 .114.041.139.091l2.556 5.594c.05.108-.015.216-.138.216h-.907c-.147 0-.212-.05-.286-.208l-.294-.656h-2.221l-.295.664c-.041.1-.131.2-.294.2h-.898c-.123 0-.189-.108-.139-.216zm-45.613-2.008c0 .219.04.383.122.493.08.109.202.164.364.164.3 0 .545-.23.735-.69.19-.46.285-.85.285-1.167 0-.241-.045-.416-.136-.524a.402.402 0 00-.314-.163c-.32 0-.575.242-.767.724-.193.482-.289.87-.289 1.163zm-1.063-.373c0-.259.075-.536.223-.833.149-.296.382-.543.7-.74.319-.197.697-.295 1.134-.295.545 0 .944.132 1.2.395.254.263.382.582.382.956 0 .514-.196.96-.587 1.338-.392.378-.893.567-1.503.567-.442 0-.811-.114-1.106-.342-.295-.227-.443-.576-.443-1.046z" fill="#1C3155"/><path d="M93.622 11.932l-.363 1.653c-.21.955-.49 1.668-.84 2.138-.349.47-.824.705-1.424.705-.285 0-.494-.055-.626-.166a.508.508 0 01-.197-.402c0-.143.051-.263.154-.36a.504.504 0 01.357-.146c.281 0 .443.153.486.458.022.155.089.232.2.232.114 0 .217-.103.31-.31.093-.207.206-.624.34-1.252l.112-.535a5.24 5.24 0 00.073-.302l.366-1.713h-.472l.124-.41h.431c.228-.842.493-1.4.797-1.674a1.565 1.565 0 011.087-.412c.28 0 .51.056.687.166.178.11.267.259.267.443a.459.459 0 01-.457.462c-.191 0-.356-.137-.494-.41-.102-.204-.204-.307-.308-.307-.121 0-.214.164-.28.492l-.24 1.24h.542l-.124.41h-.508zM59.49 20.713a.156.156 0 01.148-.134h.13c.041 0 .114.033.14.084l1.894 3.59h.017l1.895-3.59c.024-.05.098-.084.139-.084h.13c.066 0 .14.058.147.134l.923 5.585a.152.152 0 01-.155.183h-.963a.169.169 0 01-.156-.133l-.367-2.568h-.017l-1.372 2.693a.193.193 0 01-.139.091h-.147a.178.178 0 01-.14-.091l-1.38-2.693h-.016l-.36 2.568a.16.16 0 01-.155.133h-.964a.151.151 0 01-.154-.183l.923-5.585zm12.366 4.521c.899 0 1.634-.748 1.634-1.654 0-.914-.735-1.67-1.634-1.67-.89 0-1.626.756-1.626 1.67 0 .906.735 1.654 1.626 1.654zm0-4.655c1.634 0 2.94 1.339 2.94 3.001s-1.306 2.984-2.94 2.984-2.933-1.322-2.933-2.984 1.3-3 2.933-3zm9.661 2.568c.335 0 .62-.315.62-.664a.631.631 0 00-.62-.632h-1.21v1.296h1.21zm-2.492-2.327c0-.082.065-.157.156-.157h2.442c.98 0 1.78.805 1.78 1.795 0 .765-.497 1.38-1.208 1.67l1.119 2.111c.057.11 0 .242-.139.242h-1.086a.15.15 0 01-.131-.075l-1.086-2.203h-.564v2.12a.162.162 0 01-.156.158h-.971a.157.157 0 01-.156-.158V20.82zm9.448 1.064h-1.168a.156.156 0 01-.155-.158v-.906c0-.083.065-.157.155-.157h3.627c.09 0 .155.074.155.157v.906a.156.156 0 01-.155.158h-1.168v4.439a.162.162 0 01-.155.157h-.98a.162.162 0 01-.156-.157v-4.439zm9.162-1.296c.686 0 1.438.29 1.993.78.073.06.082.159.016.226L99 22.29a.171.171 0 01-.22.01c-.311-.292-.67-.4-1.07-.4-.891 0-1.61.765-1.61 1.679 0 .906.727 1.654 1.618 1.654.237 0 .482-.033.727-.133v-.482h-.515a.15.15 0 01-.155-.15v-.823c0-.091.065-.158.155-.158h1.642c.082 0 .147.075.147.158l.008 2.236a.207.207 0 01-.065.133s-.842.54-2.026.54c-1.626 0-2.933-1.313-2.933-2.975 0-1.662 1.307-2.992 2.933-2.992zm9.072 3.898l-.621-1.372h-.008l-.613 1.372h1.242zm-3.357 1.779l2.556-5.594a.168.168 0 01.14-.092h.082c.056 0 .113.042.138.092l2.556 5.594c.05.107-.016.216-.138.216h-.907c-.147 0-.212-.05-.286-.208l-.294-.657h-2.222l-.294.665c-.041.1-.131.2-.294.2h-.898c-.123 0-.188-.109-.139-.216zm11.857-5.677c.686 0 1.438.29 1.993.78.073.06.082.159.016.226l-.645.697a.172.172 0 01-.221.01c-.31-.292-.67-.4-1.07-.4-.89 0-1.609.765-1.609 1.679 0 .906.727 1.654 1.617 1.654.237 0 .483-.033.727-.133v-.482h-.514a.15.15 0 01-.155-.15v-.823c0-.091.065-.158.155-.158h1.642c.082 0 .147.075.147.158l.008 2.236a.21.21 0 01-.065.133s-.842.54-2.026.54c-1.626 0-2.933-1.313-2.933-2.975 0-1.662 1.307-2.992 2.933-2.992zm6.449.232c0-.082.066-.157.156-.157h3.382c.089 0 .155.075.155.157v.906a.157.157 0 01-.155.158h-2.263v1.03h1.862c.082 0 .156.076.156.16v.904a.157.157 0 01-.156.159h-1.862v1.122h2.263c.089 0 .155.075.155.158v.906a.157.157 0 01-.155.158h-3.382a.157.157 0 01-.156-.158V20.82zm15.121 2.364c.066 0 .125.034.125.072v.449c0 .037-.059.071-.125.071h-4.349c-.065 0-.125-.034-.125-.071v-.45c0-.037.06-.07.125-.07h4.349zm-85.291 0c.065 0 .125.034.125.072v.449c0 .037-.06.071-.125.071h-4.35c-.064 0-.124-.034-.124-.071v-.45c0-.037.06-.07.125-.07h4.35z" fill="#1C3155"/><path d="M127.017 22.163l.201-.245c.139.117.285.192.462.192.139 0 .223-.057.223-.149v-.004c0-.088-.054-.133-.312-.2-.311-.081-.512-.169-.512-.481v-.005c0-.285.225-.474.541-.474.225 0 .417.072.574.2l-.177.26c-.136-.096-.271-.154-.402-.154-.13 0-.198.06-.198.137v.004c0 .104.066.137.333.207.314.083.49.198.49.472v.004c0 .313-.234.488-.567.488a.973.973 0 01-.656-.252zm1.586-1.343h.367l.406.665.407-.666h.366v1.574h-.338v-1.027l-.435.672h-.009l-.43-.666v1.02h-.334V20.82z" fill="#1C3156"/></svg>