<svg width="71" height="83" viewBox="0 0 71 83" fill="none" xmlns="http://www.w3.org/2000/svg"><path d="M38.26 80.88c5.668-2.907 11.045-6.54 15.695-10.899 1.017-1.017 2.18-2.034 3.051-3.051.436-.436.872-.872 1.308-1.453.727-.727 1.163-1.454 1.89-2.18.726-.872 1.452-1.744 2.033-2.761 1.308-2.034 2.616-4.069 3.633-6.248.581-1.163 1.163-2.325 1.599-3.633 1.162-3.197 2.034-6.54 2.47-9.882.145-.871.145-1.889.29-2.76.146-2.47.146-4.796-.29-7.266-1.162-7.266-4.069-13.514-9.01-18.745-1.888-2.18-4.213-3.924-6.538-5.522-4.505-2.907-9.446-4.65-14.822-5.377-.582-.145-1.308 0-1.89-.29h-4.65c0 .145-.145.145-.29.145l-3.487.436C20.678 2.992 13.703 7.206 8.326 14.036c-4.504 5.522-6.974 12.06-7.41 19.181-.436 5.086.29 10.172 2.18 15.258.29.872.726 1.598 1.016 2.325.146.145.146.436.291.581 1.89 3.633 4.214 6.975 7.266 9.736 1.598 1.453 3.197 2.761 5.086 3.924 5.521 3.487 11.625 5.376 18.309 5.522.436 0 .581.145.581.58v8.138c-.145 1.308 1.308 2.18 2.616 1.599zm.437-54.638c-.146-.872.145-1.453.872-1.889.29-.145.581-.29.872-.29h12.932c1.163 0 1.744 1.017 1.744 2.325v15.257c0 4.36-2.76 8.428-6.684 10.172-.145 0-.145.145-.29.145 0 .146.145.146.29.146-.145 0-.145 0-.29-.145h-.291c-.872.29-1.744.435-2.616.58-.581.146-1.017-.29-1.017-.871v-4.505c0-.581.29-.872 1.017-1.162 1.017-.29 1.889-.582 2.76-1.308.873-.872 1.454-2.035 1.6-3.197h-9.01c-1.163 0-1.89-.727-1.89-1.89V26.243c0 .145 0 .145 0 0zm-6.394 15.403c0 3.197-1.308 5.958-3.633 8.138l-.29.29c-1.163.872-2.47 1.744-4.07 2.035-.58.145-1.307.29-1.888.436-.436.145-.872-.146-1.017-.727v-4.214c0-.436-.146-.872.145-1.162.145-.146.29-.291.581-.436.727-.146 1.453-.29 2.18-.727 1.162-.726 2.034-1.744 2.325-3.197 0-.145.145-.436.145-.726h-8.864c-.29 0-.436 0-.726-.146-.727-.145-1.308-.872-1.308-1.743v-13.37c0-.726 0-1.452.581-1.888.29-.29.727-.436 1.163-.436h12.932c1.163 0 1.744.29 1.744 2.325v15.548z" fill="#E1E6EE"/></svg>