<svg width="133" height="124" viewBox="0 0 133 124" fill="none" xmlns="http://www.w3.org/2000/svg"><path d="M11.069 2.386c.33-.848 1.531-.848 1.862 0l1.883 4.823a1 1 0 00.873.634l5.168.3c.91.053 1.28 1.195.576 1.772l-4.005 3.28a1 1 0 00-.333 1.027l1.311 5.008c.231.881-.74 1.587-1.507 1.095L12.54 17.53a1 1 0 00-1.08 0l-4.357 2.795c-.767.492-1.738-.214-1.507-1.095l1.311-5.008a1 1 0 00-.333-1.027l-4.005-3.28c-.705-.577-.333-1.719.576-1.772l5.168-.3a1 1 0 00.873-.634l1.883-4.823zm24 30c.33-.848 1.531-.848 1.862 0l1.883 4.822a1 1 0 00.873.635l5.168.3c.91.053 1.28 1.195.576 1.772l-4.005 3.28a1 1 0 00-.333 1.027l1.311 5.008c.231.881-.74 1.587-1.507 1.095L36.54 47.53a1 1 0 00-1.08 0l-4.357 2.795c-.767.492-1.738-.214-1.507-1.095l1.311-5.008a1 1 0 00-.334-1.026l-4.004-3.28c-.704-.578-.334-1.72.576-1.773l5.168-.3a1 1 0 00.873-.635l1.883-4.822zm24 32c.33-.848 1.531-.848 1.862 0l1.883 4.823a1 1 0 00.873.634l5.168.3c.91.053 1.28 1.195.576 1.772l-4.004 3.28a1 1 0 00-.334 1.027l1.311 5.008c.231.881-.74 1.587-1.507 1.095L60.54 79.53a1 1 0 00-1.08 0l-4.357 2.795c-.767.492-1.738-.214-1.507-1.095l1.311-5.008a1 1 0 00-.333-1.026l-4.005-3.28c-.705-.578-.334-1.72.576-1.773l5.168-.3a1 1 0 00.873-.635l1.883-4.822zm-24 0c.33-.848 1.531-.848 1.862 0l1.883 4.823a1 1 0 00.873.634l5.168.3c.91.053 1.28 1.195.576 1.772l-4.005 3.28a1 1 0 00-.333 1.027l1.311 5.008c.231.881-.74 1.587-1.507 1.095L36.54 79.53a1 1 0 00-1.08 0l-4.357 2.795c-.767.492-1.738-.214-1.507-1.095l1.311-5.008a1 1 0 00-.334-1.026l-4.004-3.28c-.704-.578-.334-1.72.576-1.773l5.168-.3a1 1 0 00.873-.635l1.883-4.822zm24-32c.33-.848 1.531-.848 1.862 0l1.883 4.822a1 1 0 00.873.635l5.168.3c.91.053 1.28 1.195.576 1.772l-4.004 3.28a1 1 0 00-.334 1.027l1.311 5.008c.231.881-.74 1.587-1.507 1.095L60.54 47.53a1 1 0 00-1.08 0l-4.357 2.795c-.767.492-1.738-.214-1.507-1.095l1.311-5.008a1 1 0 00-.333-1.026l-4.005-3.28c-.705-.578-.334-1.72.576-1.773l5.168-.3a1 1 0 00.873-.635l1.883-4.822zm24 0c.33-.848 1.531-.848 1.862 0l1.883 4.822a1 1 0 00.873.635l5.168.3c.91.053 1.28 1.195.576 1.772l-4.004 3.28a1 1 0 00-.334 1.027l1.311 5.008c.231.881-.74 1.587-1.507 1.095L84.54 47.53a1 1 0 00-1.08 0l-4.357 2.795c-.767.492-1.738-.214-1.507-1.095l1.311-5.008a1 1 0 00-.334-1.026l-4.004-3.28c-.704-.578-.334-1.72.576-1.773l5.168-.3a1 1 0 00.873-.635l1.882-4.822zm-72 0c.33-.848 1.531-.848 1.862 0l1.883 4.822a1 1 0 00.873.635l5.168.3c.91.053 1.28 1.195.576 1.772l-4.005 3.28a1 1 0 00-.333 1.027l1.311 5.008c.231.881-.74 1.587-1.507 1.095L12.54 47.53a1 1 0 00-1.08 0l-4.357 2.795c-.767.492-1.738-.214-1.507-1.095l1.311-5.008a1 1 0 00-.333-1.026l-4.005-3.28c-.705-.578-.333-1.72.576-1.773l5.168-.3a1 1 0 00.873-.635l1.883-4.822zm0 32c.33-.848 1.531-.848 1.862 0l1.883 4.823a1 1 0 00.873.634l5.168.3c.91.053 1.28 1.195.576 1.772l-4.005 3.28a1 1 0 00-.333 1.027l1.311 5.008c.231.881-.74 1.587-1.507 1.095L12.54 79.53a1 1 0 00-1.08 0l-4.357 2.795c-.767.492-1.738-.214-1.507-1.095l1.311-5.008a1 1 0 00-.333-1.026l-4.005-3.28c-.705-.578-.333-1.72.576-1.773l5.168-.3a1 1 0 00.873-.635l1.883-4.822zm0 30c.33-.848 1.531-.848 1.862 0l1.883 4.823a1 1 0 00.873.634l5.168.3c.91.053 1.28 1.195.576 1.772l-4.005 3.28a1 1 0 00-.333 1.027l1.311 5.008c.231.881-.74 1.587-1.507 1.095l-4.357-2.795a1 1 0 00-1.08 0l-4.357 2.795c-.767.492-1.738-.214-1.507-1.095l1.311-5.008a1 1 0 00-.333-1.027l-4.005-3.28c-.705-.577-.333-1.719.576-1.772l5.168-.3a1 1 0 00.873-.635l1.883-4.822zm24 0c.33-.848 1.531-.848 1.862 0l1.883 4.823a1 1 0 00.873.634l5.168.3c.91.053 1.28 1.195.576 1.772l-4.005 3.28a1 1 0 00-.333 1.027l1.311 5.008c.231.881-.74 1.587-1.507 1.095l-4.357-2.795a1 1 0 00-1.08 0l-4.357 2.795c-.767.492-1.738-.214-1.507-1.095l1.311-5.008a1 1 0 00-.334-1.027l-4.004-3.28c-.704-.577-.334-1.719.576-1.772l5.168-.3a1 1 0 00.873-.635l1.883-4.822zm0-92c.33-.848 1.531-.848 1.862 0l1.883 4.823a1 1 0 00.873.634l5.168.3c.91.053 1.28 1.195.576 1.772l-4.005 3.28a1 1 0 00-.333 1.027l1.311 5.008c.231.881-.74 1.587-1.507 1.095L36.54 17.53a1 1 0 00-1.08 0l-4.357 2.795c-.767.492-1.738-.214-1.507-1.095l1.311-5.008a1 1 0 00-.334-1.027l-4.004-3.28c-.704-.577-.334-1.719.576-1.772l5.168-.3a1 1 0 00.873-.634l1.883-4.823zm24 0c.33-.848 1.531-.848 1.862 0l1.883 4.823a1 1 0 00.873.634l5.168.3c.91.053 1.28 1.195.576 1.772l-4.004 3.28a1 1 0 00-.334 1.027l1.311 5.008c.231.881-.74 1.587-1.507 1.095L60.54 17.53a1 1 0 00-1.08 0l-4.357 2.795c-.767.492-1.738-.214-1.507-1.095l1.311-5.008a1 1 0 00-.333-1.027l-4.005-3.28c-.705-.577-.334-1.719.576-1.772l5.168-.3a1 1 0 00.873-.634l1.883-4.823zm24 0c.33-.848 1.531-.848 1.862 0l1.883 4.823a1 1 0 00.873.634l5.168.3c.91.053 1.28 1.195.576 1.772l-4.004 3.28a1 1 0 00-.334 1.027l1.311 5.008c.231.881-.74 1.587-1.507 1.095L84.54 17.53a1 1 0 00-1.08 0l-4.357 2.795c-.767.492-1.738-.214-1.507-1.095l1.311-5.008a1 1 0 00-.334-1.027l-4.004-3.28c-.704-.577-.334-1.719.576-1.772l5.168-.3a1 1 0 00.873-.634l1.882-4.823zm23.999 0c.332-.848 1.532-.848 1.864 0l1.882 4.823a1 1 0 00.873.634l5.168.3c.909.053 1.281 1.195.576 1.772l-4.005 3.28a1 1 0 00-.333 1.027l1.311 5.008c.231.881-.74 1.587-1.507 1.095l-4.357-2.795a1 1 0 00-1.08 0l-4.357 2.795c-.767.492-1.738-.214-1.507-1.095l1.311-5.008a1 1 0 00-.333-1.027l-4.005-3.28c-.704-.577-.334-1.719.576-1.772l5.168-.3a1 1 0 00.873-.634l1.882-4.823z" fill="#FFB800"/></svg>