<svg width="22" height="20" viewBox="0 0 22 20" fill="none" xmlns="http://www.w3.org/2000/svg"><path d="M7.92 15.501c.78.78.78 2.04 0 2.82-.79.78-2.05.78-2.83 0-.79-.79-.79-2.05-.001-2.83.78-.79 2.04-.79 2.82 0m8.991.01c.78.78.78 2.04 0 2.82-.79.78-2.05.78-2.83 0-.79-.79-.79-2.05 0-2.83.78-.79 2.04-.79 2.82 0M5.14 6.951c.78.78.78 2.04 0 2.82-.79.78-2.05.78-2.83 0-.79-.79-.79-2.05-.001-2.83.78-.79 2.04-.79 2.82 0m7.281-5.27c.78.78.78 2.04 0 2.82-.79.78-2.05.78-2.83 0-.79-.79-.79-2.05 0-2.83.78-.79 2.04-.79 2.82 0m7.28 5.29c.78.78.78 2.04 0 2.82-.79.78-2.05.78-2.83 0-.79-.79-.79-2.05 0-2.83.78-.79 2.04-.79 2.82 0m-7.26 2.08c.78.78.78 2.04 0 2.82-.79.78-2.05.78-2.83 0-.79-.79-.79-2.05 0-2.83.78-.79 2.04-.79 2.82 0m-.26 3.07l2.21 3.2m-4.49-3.2l-2.21 3.19m1.44-5.37l-3.45-.99m5.36-.47v-3.35m1.91 4.81l3.45-.99" stroke="#163B7D" stroke-width="1.5" stroke-linecap="round" stroke-linejoin="round"/></svg>