<svg width="267" height="56" viewBox="0 0 267 56" fill="none" xmlns="http://www.w3.org/2000/svg"><path d="M259.976 15.318l-3.248.633a1.578 1.578 0 00-1.28 1.555v2.711a.168.168 0 01-.166.166h-2.215a.64.64 0 00-.633.633v3.316a.31.31 0 00.316.317h2.532c.083 0 .166.069.166.165v11.767a4.958 4.958 0 004.817 5.078h2.38c.606 0 1.115-.426 1.239-1.018l.661-3.193a.305.305 0 00-.248-.371h-1.5c-2.133 0-2.436-.689-2.436-2.216V24.828c0-.083.069-.152.165-.165h2.849c.743 0 1.39-.51 1.555-1.239l.592-2.642a.305.305 0 00-.248-.372c-.027 0-.055-.014-.069-.014h-4.693c-.082 0-.151-.069-.165-.165v-4.583a.32.32 0 00-.316-.316c-.042-.014-.055-.014-.055-.014zM140.035 41.605h3.633a.64.64 0 00.633-.633V12.427a.312.312 0 00-.317-.317h-.068l-3.248.633a1.578 1.578 0 00-1.28 1.556v26.672a.643.643 0 00.647.633zM84.764 15.043l.592-2.643a.327.327 0 00-.234-.385c-.028 0-.055-.014-.083-.014H64.781c-.881 0-1.583.716-1.583 1.583v2.05a.64.64 0 00.633.633h6.138c.083 0 .165.07.165.166v24.525a.64.64 0 00.633.633h2.684c.88 0 1.583-.716 1.583-1.583V16.46c0-.082.068-.165.165-.165h8.023c.744 0 1.39-.523 1.542-1.253zm64.959-3.001a.64.64 0 00-.633.633v28.31a.64.64 0 00.633.633h18.456a.64.64 0 00.633-.633v-2.05c0-.881-.716-1.583-1.583-1.583h-13.074a.167.167 0 01-.165-.165v-9.662c0-.082.069-.165.165-.165h6.427c.743 0 1.39-.523 1.542-1.239l.591-2.642a.326.326 0 00-.234-.385c-.027 0-.055-.014-.082-.014h-8.244a.167.167 0 01-.165-.165v-6.482c0-.083.069-.166.165-.166h12.441c.744 0 1.39-.509 1.542-1.238l.592-2.643a.305.305 0 00-.248-.371c-.028 0-.055-.014-.069-.014l-18.69.041zm70.575 19.887h13.267a.64.64 0 00.633-.633v-2.753c0-4.9-3.977-8.877-8.877-8.877h-1.142c-4.899 0-8.877 3.978-8.877 8.877v3.386c.152 1.528.427 3.427.867 4.445a8.507 8.507 0 003.358 4.143c1.542.99 3.4 1.486 5.602 1.472 1.665.028 3.33-.316 4.844-1.018a8.769 8.769 0 002.932-2.174.338.338 0 00-.028-.455h-.014l-2.917-2.394a.31.31 0 00-.441.04 5.264 5.264 0 01-4.087 1.776c-2.629-.027-4.28-1.06-4.955-3.083-.165-.344-.303-1.61-.385-2.532a.184.184 0 01.151-.206c.028-.014.055-.014.069-.014zm-.055-3.66a4.327 4.327 0 013.661-4.309c2.849-.426 5.326 1.35 5.326 4.13v.22h-8.987v-.042zm-35.783-7.157l-3.248 4.762a.313.313 0 01-.44.082l-.083-.082-3.812-5.574a.628.628 0 00-.523-.276h-4.996a.31.31 0 00-.316.317c0 .069.014.124.055.179l6.922 10.116a.335.335 0 010 .357l-6.936 10.13a.313.313 0 00.083.44.3.3 0 00.179.055h4.004c.84 0 1.624-.413 2.092-1.101l3.248-4.762a.314.314 0 01.441-.082l.082.082 3.813 5.574a.627.627 0 00.523.275h5.009a.312.312 0 00.317-.316.278.278 0 00-.055-.18l-6.923-10.115a.335.335 0 010-.357l6.923-10.13a.324.324 0 00-.083-.44.276.276 0 00-.179-.055h-4.005a2.53 2.53 0 00-2.092 1.1zm58.285.646V20.63a.64.64 0 00-.633-.633h-3.634a.64.64 0 00-.633.633v20.382a.64.64 0 00.633.633h3.634a.64.64 0 00.633-.633v-10.17c0-3.234.454-4.61 2.353-5.52 1.528-.729 3.317-.426 3.991-.274a.314.314 0 00.372-.207l.702-2.037.729-2.037a.322.322 0 00-.165-.399c-2.34-1.018-5.078-.908-7.982 1.39zM134.598 26.48a6.473 6.473 0 00-1.087-3.318 7.458 7.458 0 00-3.124-2.56 11.223 11.223 0 00-4.693-.935c-2.45 0-4.487.55-6.111 1.651a7.646 7.646 0 00-.977.785.324.324 0 000 .454l.027.027 3.29 2.698a.32.32 0 00.44-.041l.014-.014c.234-.303.523-.55.853-.743a5.142 5.142 0 012.601-.565c1.294 0 2.271.303 2.918.909a2.66 2.66 0 01.977 2.243v1.073a.167.167 0 01-.165.166h-5.189c-2.504.082-4.472.688-5.89 1.83-1.541 1.225-2.312 3.262-2.312 5.45 0 2.12.688 3.702 2.051 4.776 1.362 1.073 3.11 1.61 5.216 1.61 2.628 0 4.761-.77 6.262-2.532v1.555a.64.64 0 00.633.633h3.633a.64.64 0 00.633-.633v-14.52zm-4.899 7.376a3.95 3.95 0 01-1.473 3.11c-.991.73-2.491 1.101-3.867 1.101a4.137 4.137 0 01-2.56-.743c-.661-.495-.991-1.5-.991-2.408a2.685 2.685 0 011.294-2.409c.867-.564 2.036-.84 3.537-.84h4.073l-.013 2.189z" fill="#fff"/><path d="M98.636 25.778a9.04 9.04 0 00-8.959-6.441 9.587 9.587 0 00-5.67 1.706 9.054 9.054 0 00-3.44 4.803 16.563 16.563 0 00-.661 4.927 16.94 16.94 0 00.674 4.914 9.168 9.168 0 003.4 4.858 9.515 9.515 0 005.71 1.761 9.14 9.14 0 005.616-1.789 8.849 8.849 0 002.023-2.092 10.662 10.662 0 001.335-2.725 16.18 16.18 0 00.688-4.94 15.277 15.277 0 00-.716-4.982zM94 34.187a4.658 4.658 0 01-1.624 2.394 4.268 4.268 0 01-2.684.812 4.655 4.655 0 01-2.835-.826 4.332 4.332 0 01-1.583-2.325 11.846 11.846 0 01-.468-3.469c-.027-1.17.124-2.325.44-3.454a4.17 4.17 0 011.583-2.27c.84-.565 1.83-.84 2.835-.813a4.56 4.56 0 012.753.785A4.374 4.374 0 0194 27.333a10.9 10.9 0 01.454 3.4A11.274 11.274 0 0194 34.187zm118.013-7.928a10.383 10.383 0 00-2.491-4.377 8.186 8.186 0 00-6.097-2.573 7.201 7.201 0 00-4.9 1.803v-.468a.64.64 0 00-.633-.633h-3.633a.64.64 0 00-.633.633v27.635c0 .18.138.317.317.317h.068l3.248-.633a1.58 1.58 0 001.28-1.556v-5.876a7.15 7.15 0 004.858 1.761c2.409 0 4.446-.812 6.028-2.394.193-.193.386-.4.565-.606.041-.055.082-.096.124-.151l.206-.248.151-.206.179-.262c.042-.055.083-.11.11-.165.551-.88.978-1.83 1.267-2.821.412-1.5.619-3.042.591-4.597a17.1 17.1 0 00-.605-4.583zm-5.794 9.689a3.735 3.735 0 01-3.386 1.775c-1.321.028-2.56-.688-3.165-1.858-.702-1.156-1.06-2.849-1.06-5.078 0-2.175.33-3.799.977-4.9.73-1.348 1.831-2.036 3.303-2.036a3.844 3.844 0 013.592 2.078c.675 1.183 1.019 2.807 1.019 4.858-.014 2.147-.441 3.867-1.28 5.16zm-97.605-20.685l-3.248.633a1.58 1.58 0 00-1.28 1.555v2.711a.167.167 0 01-.165.165h-2.216a.64.64 0 00-.633.633v3.317c0 .18.138.317.317.317h2.532c.083 0 .165.069.165.165v11.767a4.958 4.958 0 004.817 5.078h2.381c.606 0 1.115-.426 1.239-1.018l.66-3.193a.304.304 0 00-.247-.372h-1.501c-2.133 0-2.435-.688-2.435-2.215V24.773c0-.083.068-.152.165-.165h2.849c.743 0 1.39-.51 1.555-1.24l.591-2.642a.304.304 0 00-.247-.371c-.028 0-.055-.014-.069-.014h-4.693c-.083 0-.151-.069-.165-.165v-4.583a.32.32 0 00-.317-.316c-.041-.014-.055-.014-.055-.014zM14.492 29.342l12.194 12.193a.7.7 0 01.206.482V56a5.743 5.743 0 01-2.918-1.57L1.541 32.013A5.576 5.576 0 010 29.135h14.01c.18 0 .358.07.482.207zM26.892 0v13.983a.646.646 0 01-.206.481l-12.18 12.18a.701.701 0 01-.482.207H0c.22-1.046.73-2.05 1.541-2.863l22.42-22.42A5.783 5.783 0 0126.892 0zm5.202 1.569L54.46 23.933a5.742 5.742 0 011.569 2.918H42.045a.646.646 0 01-.482-.207l-12.18-12.18a.7.7 0 01-.206-.481V0c1.06.22 2.078.743 2.917 1.569zm23.934 27.566a5.838 5.838 0 01-1.57 2.932L32.095 54.43A5.797 5.797 0 0129.177 56V42.017c0-.179.069-.358.206-.482l12.194-12.193a.7.7 0 01.482-.207h13.969zM263.76 15.386c0-.977.716-1.651 1.597-1.651s1.596.674 1.596 1.651c0 .964-.715 1.638-1.596 1.638-.881.014-1.597-.66-1.597-1.638zm2.794 0c0-.77-.509-1.307-1.211-1.307-.688 0-1.211.523-1.211 1.307 0 .771.509 1.294 1.211 1.294.702 0 1.211-.523 1.211-1.294zm-1.844-.84h.688c.358 0 .661.152.661.538a.49.49 0 01-.303.454l.358.647h-.441l-.275-.537h-.275v.537h-.413v-1.638zm.605.813c.193 0 .303-.097.303-.248 0-.138-.096-.248-.303-.248h-.192v.496h.192z" fill="#fff"/></svg>