<svg width="113" height="18" viewBox="0 0 113 18" fill="none" xmlns="http://www.w3.org/2000/svg"><path fill-rule="evenodd" clip-rule="evenodd" d="M0 .403h2.736l2.958 8.923c.32.937.64 2.39.64 2.39s.42-1.429.813-2.39L10.993.23h.32l3.871 9.096c.394.937.788 2.39.788 2.39s.345-1.453.666-2.39L19.595.403h2.54l-5.792 16.934h-.32l-4.167-9.983c-.345-.813-.69-2.046-.69-2.046s-.395 1.233-.74 2.046l-4.264 9.983h-.32L0 .403zm53.023 0h2.737l2.957 8.923c.32.937.641 2.39.641 2.39s.42-1.429.813-2.39L64.017.23h.32l3.87 9.096c.395.937.79 2.39.79 2.39s.344-1.453.664-2.39L72.62.403h2.539l-5.792 16.934h-.32L64.88 7.354c-.345-.813-.689-2.046-.689-2.046s-.395 1.233-.74 2.046l-4.264 9.983h-.321L53.023.403zM83.574.23h.27l8.012 9.367L99.793.23h.271v16.934h-2.49v-8.7c0-.937.099-2.416.099-2.416s-.813 1.256-1.504 2.02l-4.214 5.08h-.296l-4.216-5.08c-.64-.764-1.478-2.02-1.478-2.02s.1 1.479.1 2.415v8.701h-2.49V.23z" fill="#fff"/><mask id="a" style="mask-type:alpha" maskUnits="userSpaceOnUse" x="28" y="0" width="85" height="18"><path fill-rule="evenodd" clip-rule="evenodd" d="M28.981.18H112.5v17.193H28.981V.18z" fill="#fff"/></mask><g mask="url(#a)" fill-rule="evenodd" clip-rule="evenodd" fill="#fff"><path d="M109.911 17.162h2.589V.4h-2.589v16.762zM37.584.18a8.603 8.603 0 10.001 17.205A8.603 8.603 0 0037.584.18zm.063 15.012a6.417 6.417 0 11.001-12.833 6.417 6.417 0 010 12.833z"/></g></svg>